<ttFont>
          <CharString index="0">
            -1.52587890625e-05 -85 32.5 -43.5 98 0 rrcurveto
            101 hlineto
            100.999984741 31.5 43.5 85 hvcurveto
            126 vlineto
            -1.52587890625e-05 85 -32.5 43.5 -98 0 rrcurveto
            -101 hlineto
            -101.000015259 -31.5 -43.5 -85 hvcurveto
            return
          </CharString>
          <CharString index="1">
            105 vlineto
            -1.52587890625e-05 41.1499938965 9.85000610352 11.8500061035 45.3999938965 0 rrcurveto
            83.5 hlineto
            39.299987793 13.9499969482 -9.60000610352 -43.3999938965 hvcurveto
            -105 vlineto
            -1.52587890625e-05 -36.9499969482 -5.64999389648 -16.0500030518 -49.6000061035 0 rrcurveto
            -83.5 hlineto
            -42.1000061035 -11.1500091553 13.4499969482 39.5500030518 hvcurveto
            return
          </CharString>
          <CharString index="2">
            92 0 441.149993896 732 -89.5500030518 0 rlineto
            return
          </CharString>
          <CharString index="3">
            -1.52587890625e-05 -85 32.1500091553 -43.5 98 0 rrcurveto
            101.350006104 hlineto
            100.999984741 31.5 43.5 85 hvcurveto
            126 vlineto
            return
          </CharString>
          <CharString index="4">
            -1.52587890625e-05 85 -32.5 43.5 -98 0 rrcurveto
            -101.350006104 hlineto
            -101 -31.1500091553 -43.5 -85 hvcurveto
            return
          </CharString>
          <CharString index="5">
            105 vlineto
            -1.52587890625e-05 41.1499938965 9.85000610352 11.8500061035 45.3999938965 0 rrcurveto
            83.1499938965 hlineto
            39.299987793 14.3000030518 -9.60000610352 -43.3999938965 hvcurveto
            -105 vlineto
            -1.52587890625e-05 -36.950012207 -6 -16.049987793 -49.5999908447 0 rrcurveto
            -83.1499938965 hlineto
            -42.1000061035 -11.1500091553 13.4499969482 39.5500030518 hvcurveto
            return
          </CharString>
          <CharString index="6">
            -1.52587890625e-05 -344.350006104 169.5 -191.649993896 0 0 rrcurveto
            112.5 hlineto
            -1.52587890625e-05 -166 230.399993896 305.600006104 278.300003052 166 255.699996948 0 hvcurveto
            -112.5 hlineto
            -1.52587890625e-05 -169.5 -227.800003052 -306.199996948 hvcurveto
            return
          </CharString>
          <CharString index="7">
            112.5 hlineto
            0 169.5 191.649993896 344.350006104 306.199996948 -169.5 227.800003052 0 hvcurveto
            -112.5 hlineto
            0 166 -255.699996948 -278.300003052 -305.600006104 -166 -230.399993896 0 hvcurveto
            return
          </CharString>
          <CharString index="8">
            156 -157 102 157 158 102 -158 157 -102 -157 -156 hlineto
            return
          </CharString>
          <CharString index="9">
            314 102 -314 hlineto
            return
          </CharString>
          <CharString index="10">
            1.52587890625e-05 -14 10 -9 14 0 rrcurveto
            74 hlineto
            14.0000152588 11 5 18 hvcurveto
            78 vlineto
            1.52587890625e-05 16 -7 9 -18 0 rrcurveto
            -74 hlineto
            -15.9999847412 -8 -10 -15 hvcurveto
            return
          </CharString>
          <CharString index="11">
            -120 74.700012207 -52.5 104.649993896 vhcurveto
            164 hlineto
            106.350006104 67.299987793 53.5 119 hvcurveto
            387 vlineto
            92.3000030518 -43.25 80.1999969482 -130.049987793 vhcurveto
            -164 hlineto
            -105.5 -74.200012207 -60.3000030518 -115.699996948 hvcurveto
            return
          </CharString>
          <CharString index="12">
            -122.550003052 0 -86.4499969482 -8.75 -95 -14.75 rrcurveto
            return
          </CharString>
          <CharString index="13">
            -117 2 -116.5 1 -88 -31 rrcurveto
            return
          </CharString>
          <CharString index="14">
            34 -54.5 351 0 0 -167.5 116 0 0 167.5 79.5 22.5 0 90.5 -79.5 0 0 257.5 -82.5 0 -33.5 -76.0500030518 0 -181.449996948 -218.550003052 0 246.050003052 449.5 -130 0 rlineto
            return
          </CharString>
          <CharString index="15">
            133.999984741 -23 49.5 -1 124 0 rrcurveto
            74.6000061035 103.050003052 40 137 hvcurveto
            107 vlineto
            0 100.149993896 -48.1000061035 72.8500061035 -117.300003052 3.5 -24.6999969482 0.350006103516 -55.1999969482 4.89999389648 -44.1999969482 -5.25 -25.3500061035 -2.94999694824 -27.3000030518 -6.90000915527 -18.1999969482 -16.6499938965 rrcurveto
            9.19999694824 193 326 0 0 109 -436.350006104 0 -22 -445.5 108 0 rlineto
            45.9499969482 32.1499938965 18.5500030518 36.5500030518 vhcurveto
            115.5 hlineto
            71.1500091553 4.15000915527 -46.6499938965 -33 hvcurveto
            -82.3500061035 vlineto
            -35.6000061035 -12.6000061035 -43.3999938965 -66.5500030518 vhcurveto
            return
          </CharString>
          <CharString index="16">
            -1.52587890625e-05 -315 78.3000030518 -69.3500061035 113.550003052 -0.649993896484 rrcurveto
            145.149993896 hlineto
            101.699981689 69.8000030518 41.1999969482 118.300003052 hvcurveto
            117 vlineto
            -1.52587890625e-05 88.8500061035 -28.5 74.1499938965 -139.5 0 rrcurveto
            return
          </CharString>
          <CharString index="17">
            -77.5 0 -78.8000030518 -7.85000610352 -68.1999969482 -13.1499938965 1.30000305176 80.1499938965 11.6999969482 131.350006104 91 0 rrcurveto
            264.5 87.5500030518 hlineto
            -94.3000183105 15.450012207 -117.549987793 9.85000610352 -100.650009155 -5.60000610352 rrcurveto
            -85.0999908447 -4.89999389648 -86.9000091553 -82.3500061035 0 -265 rrcurveto
            return
          </CharString>
          <CharString index="18">
            206.649993896 hlineto
            42.8499908447 27.6500091553 -13.3000030518 -54.6999969482 hvcurveto
            -88.25 vlineto
            -59.1000061035 -27.5500030518 -9.64999389648 -44.6999969482 vhcurveto
            -102.800003052 hlineto
            -94.2499847412 -7.85000610352 126.800003052 98.1999969482 hvcurveto
            return
          </CharString>
          <CharString index="19">
            356 0 -237 -623 129.300003052 0 252.399993896 673.5 -34 58.5 -466.699996948 0 rlineto
            return
          </CharString>
          <CharString index="20">
            -1.52587890625e-05 -49.0500030518 4.69999694824 -113.699996948 178.300003052 0 rrcurveto
            148.5 hlineto
            75.549987793 94.4499969482 23.3000030518 141.550003052 hvcurveto
            90.3000030518 vlineto
            0.649993896484 43 -16.4000091553 80.8000030518 -59.25 11.0500030518 69.5500030518 12.8999938965 6.10000610352 79.3500061035 -0.650009155273 23.75 rrcurveto
            57.6499938965 vlineto
            -1.52587890625e-05 124.75 -58.1499938965 48.6000061035 -110.850006104 0 rrcurveto
            -149.5 hlineto
            -103.000015259 -80 -36.8999938965 -136.100006104 hvcurveto
            -65 vlineto
            -1.52587890625e-05 -55.8000030518 13.6500091553 -60.4499969482 67.5 -27.25 -45.6000061035 -11.6000061035 -35.5500030518 -33.299987793 0 -65.6000061035 rrcurveto
            return
          </CharString>
          <CharString index="21">
            82.25 vlineto
            -1.52587890625e-05 49.75 31 19.3500061035 44.6000061035 0 rrcurveto
            122.25 hlineto
            42.2500152588 29.3999938965 -22.9499969482 -46.1500091553 hvcurveto
            -82.25 vlineto
            -1.52587890625e-05 -44.25 -30.9499969482 -21.8999938965 -43.3500061035 0 rrcurveto
            -112.449996948 hlineto
            -59.700012207 -23.0500030518 22.0500030518 44.0999908447 hvcurveto
            return
          </CharString>
          <CharString index="22">
            54.6999969482 vlineto
            -1.52587890625e-05 74.5999908447 30.6500091553 8.19999694824 52.0999908447 0 rrcurveto
            113.100006104 hlineto
            46.7500152588 26.8999938965 -17.8999938965 -64.9000091553 hvcurveto
            -54.6999969482 vlineto
            -1.52587890625e-05 -33.8999938965 -9.5 -36.1000061035 -62.8499908447 0 rrcurveto
            -121.550003052 hlineto
            -33.9999847412 -41.6000061035 12.8000030518 57.1999969482 hvcurveto
            return
          </CharString>
          <CharString index="23">
            -88.8500061035 28.5 -74.1499938965 139.5 vhcurveto
            return
          </CharString>
          <CharString index="24">
            -13.9999847412 10 -9 14 vhcurveto
            74 hlineto
            14 1.52587890625e-05 11 5 0 18 rrcurveto
            78 vlineto
            16.0000152588 -7 9 -18 vhcurveto
            -74 hlineto
            -16 1.52587890625e-05 -8 -10 0 -15 rrcurveto
            return
          </CharString>
          <CharString index="25">
            100 290.25 95.25 -290.25 rlineto
            return
          </CharString>
          <CharString index="26">
            307.350006104 9.64999389648 0 94.6999969482 rlineto
            return
          </CharString>
          <CharString index="27">
            -307.350006104 10.3500061035 0 145.399993896 rlineto
            27 0 29 52 vhcurveto
            return
          </CharString>
          <CharString index="28">
            298.850006104 94.75 hlineto
            return
          </CharString>
          <CharString index="29">
            116 299.5 287 -299.5 116 732 -116 -323.5 -287 323.5 -116 hlineto
            return
          </CharString>
          <CharString index="30">
            116 732 -116 hlineto
            return
          </CharString>
          <CharString index="31">
            -113 71.75 -23.5 74.75 vhcurveto
            302.5 109 -271 hlineto
            -29 -33 -1 53 hvcurveto
            571 -116 vlineto
            return
          </CharString>
          <CharString index="32">
            203.5 -623 116 623 209.5 109 -529 hlineto
            return
          </CharString>
          <CharString index="33">
            500 109 -347 hlineto
            347 514 0 109 -500 0 0 -109 357.5 0 -357.5 -514 rlineto
            return
          </CharString>
          <CharString index="34">
            126 -136.5 83 0 -96.5 136.5 rlineto
            return
          </CharString>
          <CharString index="35">
            88.25 -436 116 hlineto
            return
          </CharString>
          <CharString index="36">
            146.899993896 28.6000061035 114 70.5 hvcurveto
            0 67.0500030518 -14.0500030518 19.25 -9.94999694824 21.6999969482 rrcurveto
            67 18 0 73.5 rlineto
            return
          </CharString>
          <CharString index="37">
            116 531 -116 hlineto
            return
          </CharString>
          <CharString index="38">
            -25.5 58.5 -90.5 0 rlineto
            return
          </CharString>
          <CharString index="39">
            90.6000061035 -247 hlineto
            -1.52587890625e-05 -141 52.9000091553 -48.6999969482 78.049987793 0 rrcurveto
            109.699996948 74 hlineto
            -7 1.52587890625e-05 -68 21 0 0 -29.8000030518 9.39999389648 -19.8500061035 17.9000091553 0 81.3999938965 rrcurveto
            return
          </CharString>
          <CharString index="40">
            -131.899993896 148 -94.5 hlineto
            return
          </CharString>
          <CharString index="41">
            -21.5 -148 rlineto
            return
          </CharString>
          <CharString index="42">
            -90.6000061035 -25 rlineto
            return
          </CharString>
          <CharString index="43">
            25.5 -58.5 90.5 0 0 531 -116 0 0 -391.5 rlineto
            return
          </CharString>
          <CharString index="44">
            1.52587890625e-05 -30.8000030518 25.4499969482 -25.4499969482 30.8000030518 0 rrcurveto
            30.8000030518 24.4499969482 25.4499969482 30.8000030518 30.8000030518 -24.4499969482 24.4499969482 -30.8000030518 -30.8000030518 -25.4499969482 -24.4499969482 -30.8000030518 hvcurveto
            return
          </CharString>
          <CharString index="45">
            -164.449996948 57.3499908447 -203.550003052 187.150009155 vhcurveto
            245.5 hlineto
            151 70.5 151.899993896 216.100006104 155.850006104 -23.0500030518 208.149993896 -198.449996948 hvcurveto
            -245.5 hlineto
            -204.950012207 -39.549987793 -189.800003052 -174.199996948 hvcurveto
            return
          </CharString>
          <CharString index="46">
            232.550003052 74 53.4499969482 89 vhcurveto
            245.5 hlineto
            131 9 -166 -120 hvcurveto
            0 -204 -61.3000030518 -85.3500061035 -82.1999969482 -0.649993896484 rrcurveto
            -242 hlineto
            -114 0.649993896484 -49 140.75 0 148.600006104 rrcurveto
            return
          </CharString>
          <CharString index="47">
            211 -208 66.3500061035 68.1000061035 -142.850006104 139.899993896 139.25 135.949996948 -67.75 67.0500030518 rlineto
            return
          </CharString>
          <CharString index="48">
            292 73.5 -292 hlineto
            return
          </CharString>
          <CharString index="49">
            1.52587890625e-05 -57 46 -45 56 0 rrcurveto
            56 45 45 57 57 -45 46 -56 -56 -46 -46 -57 hvcurveto
            return
          </CharString>
          <CharString index="50">
            83 0 126 136.5 -112.5 0 rlineto
            return
          </CharString>
          <CharString index="51">
            110.850006104 27.3000030518 0 -392.300003052 91.3999938965 0 0 479.850006104 -90.6999969482 0 -111.550003052 -55 rlineto
            return
          </CharString>
          <CharString index="52">
            316.800003052 65 -316.800003052 hlineto
            return
          </CharString>
          <CharString index="53">
            66.3500061035 -68.1000061035 211 208 -206 203 -67.75 -67.0500030518 139.25 -135.949996948 rlineto
            return
          </CharString>
          <CharString index="54">
            88.1000061035 0 389.300003052 745.300003052 -88.1000061035 0 rlineto
            return
          </CharString>
          <CharString index="55">
            22.3500061035 -38.6999969482 235.649993896 0 0 -105.300003052 91.3999938965 0 0 105.300003052 rlineto
            return
          </CharString>
          <CharString index="56">
            52.3500061035 16.1499938965 0 73 -52.3500061035 0 0 158.149993896 -65.8500061035 0 -25.5500030518 -49.0500030518 rlineto
            return
          </CharString>
          <CharString index="57">
            176.199996948 hlineto
            41.8500061035 -1.52587890625e-05 25.75 -11.6999969482 0 -35.6999969482 rrcurveto
            -16.0500030518 vlineto
            0 -33.6999969482 -21.5500030518 -14.3000030518 -46.0500030518 -1.64999389648 rrcurveto
            return
          </CharString>
          <CharString index="58">
            -131.5 -7.35000610352 0 -71.8500061035 rlineto
            return
          </CharString>
          <CharString index="59">
            131.5 -5 rlineto
            38.1500091553 -1 28.0999908447 -11.75 0 -40.5 rrcurveto
            -16.3500061035 vlineto
            -36.299987793 -16.5999908447 -11.0500030518 -53.6500091553 vhcurveto
            0 -146.399993896 -0.649993896484 -20.8000030518 vhcurveto
            -1 -66.4499969482 rlineto
            59.0999908447 -21.0500030518 63.75 2 76.4499969482 0 rrcurveto
            94.8000030518 35.75 46.9499969482 74.1499938965 hvcurveto
            24.8500061035 vlineto
            1.52587890625e-05 49.6999969482 -19.9000091553 31.8500061035 -34 15.5999908447 33 11.75 20.9000091553 31.700012207 0 47.6999969482 rrcurveto
            31.8500061035 vlineto
            1.52587890625e-05 66.6500091553 -41.6999969482 52.4499969482 -83.8500061035 0.350006103516 rrcurveto
            return
          </CharString>
          <CharString index="60">
            -78.4499969482 0.699996948242 -71.1000061035 1.30000305176 -58.75 -21.0500030518 rrcurveto
            return
          </CharString>
          <CharString index="61">
            128.799804688 0 57.6005859375 177.400390625 258.75 0 56 -177.400390625 126.849609375 0 -244.75 732 -128.25 0 rlineto
            return
          </CharString>
          <CharString index="62">
            86 0 68.2001953125 64 63.2998046875 -64 85 0 -99.4501953125 133.5 -92 0 rlineto
            return
          </CharString>
          <CharString index="63">
            23.099609375 -50.099609375 rlineto
            34.900390625 17.5 17.150390625 16.849609375 42.25 0.650390625 rrcurveto
            return
          </CharString>
          <CharString index="64">
            37.0498046875 0.650390625 21.6494140625 -33.05078125 51.4501953125 -1.94921875 45.150390625 -1.30078125 39.6494140625 39.650390625 29.150390625 27.7998046875 rrcurveto
            -23.400390625 53.2001953125 rlineto
            -28.5 -19.099609375 -33.599609375 -19.650390625 -29.599609375 1.349609375 rrcurveto
            return
          </CharString>
          <CharString index="65">
            -32.2001953125 0.650390625 -26.5498046875 32.400390625 -47.900390625 1.94921875 rrcurveto
            -46.25 0 -38.75 -33.44921875 -34.75 -34.05078125 rrcurveto
            return
          </CharString>
          <CharString index="66">
            -30.7998046875 25.4501953125 -25.4501953125 30.7998046875 30.7998046875 24.4501953125 25.4501953125 30.7998046875 30.7998046875 -24.4501953125 24.4501953125 -30.7998046875 -30.7998046875 -25.4501953125 -24.4501953125 -30.7998046875 vhcurveto
            return
          </CharString>
          <CharString index="67">
            -57 46 -45 56 56 45 45 57 57 -45 46 -56 -56 -46 -46 -57 vhcurveto
            return
          </CharString>
          <CharString index="68">
            26.150390625 21.5 21.5 26.150390625 26.150390625 20.5 -21.5 -26.150390625 -26.150390625 -20.5 -20.5 -26.150390625 -26.150390625 -21.5 20.5 26.150390625 vhcurveto
            return
          </CharString>
          <CharString index="69">
            0 -225.849609375 62.150390625 -147.100585938 185 -1.0498046875 85.599609375 -1.0498046875 98.2001953125 9 67.2001953125 17.5498046875 rrcurveto
            91.2001953125 vlineto
            0 -124.650390625 -7.7001953125 -105 -121.799804688 -30.7001953125 99 164 229.349609375 41.5 35.650390625 110.650390625 vhcurveto
            95.849609375 0 133.150390625 -12.4501953125 1 0 rrcurveto
            91.2001953125 vlineto
            -75.599609375 19.650390625 -91.2001953125 10.599609375 -84.2001953125 0 -199 0 -48.150390625 -138 0 -234 rrcurveto
            return
          </CharString>
          <CharString index="70">
            -51.69921875 54.5 vlineto
            84.2001953125 23.7998046875 37.5 102 hvcurveto
            -84.5 hlineto
            0 -38 -2.599609375 -22.80078125 -28 -12 rrcurveto
            return
          </CharString>
          <CharString index="71">
            0 -127 91.455078125 -15.599609375 65.544921875 3.2998046875 rrcurveto
            return
          </CharString>
          <CharString index="72">
            0 0 273.799804688 12.099609375 36.0498046875 4.900390625 rrcurveto
            93.75 vlineto
            return
          </CharString>
          <CharString index="73">
            -288.849609375 hlineto
            -29 0 -32.349609375 -1 -0.650390625 53 rrcurveto
            0 145.400390625 rlineto
            return
          </CharString>
          <CharString index="74">
            307.349609375 9.6494140625 0 94.7001953125 rlineto
            return
          </CharString>
          <CharString index="75">
            -307.349609375 10.349609375 0 145.400390625 rlineto
            27 0 29 52 vhcurveto
            return
          </CharString>
          <CharString index="76">
            298.849609375 94.75 hlineto
            return
          </CharString>
          <CharString index="77">
            -40.94921875 5.599609375 -278.900390625 10.400390625 0 0 -68.294921875 1.9501953125 -78.705078125 -29.4794921875 0 -116.470703125 rrcurveto
            return
          </CharString>
          <CharString index="78">
            117 513.5 hlineto
            327.650390625 -513.5 116 0 0 732 -116 0 0 -517 -326.650390625 517 -118 0 rlineto
            return
          </CharString>
          <CharString index="79">
            23.099609375 -50.099609375 rlineto
            34.900390625 17.5 17.1494140625 16.849609375 42.25 0.650390625 rrcurveto
            return
          </CharString>
          <CharString index="80">
            -333 110.649414062 -32 180 180 109.350585938 42 323 343 -116.350585938 33 -173 -168 -122.649414062 -33 -343 vhcurveto
            return
          </CharString>
          <CharString index="81">
            257 57.3994140625 10 117.25 120.25 53.1005859375 -13.150390625 -253.849609375 -216.099609375 -41.8505859375 -39.900390625 -131.5 -137 -37.6494140625 35.400390625 220.599609375 vhcurveto
            return
          </CharString>
          <CharString index="82">
            86 0 68.2001953125 64 63.2998046875 -64 85 0 -99.44921875 133.5 -92 0 rlineto
            return
          </CharString>
          <CharString index="83">
            23.1005859375 -50.099609375 rlineto
            34.8994140625 17.5 17.150390625 16.849609375 42.25 0.650390625 rrcurveto
            return
          </CharString>
          <CharString index="84">
            37.0498046875 0.650390625 21.650390625 -33.05078125 51.4501953125 -1.94921875 45.1494140625 -1.30078125 39.650390625 39.650390625 29.1494140625 27.7998046875 rrcurveto
            -23.3994140625 53.2001953125 rlineto
            -28.5 -19.099609375 -33.6005859375 -19.650390625 -29.599609375 1.349609375 rrcurveto
            return
          </CharString>
          <CharString index="85">
            -30.7998046875 25.4501953125 -25.4501953125 30.7998046875 30.80078125 24.44921875 25.4501953125 30.7998046875 30.7998046875 -24.44921875 24.4501953125 -30.80078125 -30.7998046875 -25.4501953125 -24.4501953125 -30.7998046875 vhcurveto
            return
          </CharString>
          <CharString index="86">
            -333 142 8 136 121 152 2 323 vhcurveto
            412 -117 -412 vlineto
            -193.349609375 -60.5 -22.650390625 -95.5 -109.299804688 -52.7001953125 16.0498046875 199.950195312 vhcurveto
            412 -116 vlineto
            return
          </CharString>
          <CharString index="87">
            226.700195312 -493 0 -239 116 0 0 239 245.299804688 493 -126.5 0 -175.400390625 -363 -159.599609375 363 rlineto
            return
          </CharString>
          <CharString index="88">
            0 -74.8505859375 52.2998046875 -61.349609375 91.5498046875 -1.75 84.7001953125 -1.0498046875 94.349609375 60.2001953125 4.4501953125 7.349609375 rrcurveto
            25.650390625 -60.5 90.349609375 0 0 376.5 rlineto
            0 123.650390625 -74.8994140625 41.5 -102.950195312 -0.650390625 -99 -0.650390625 -78.8505859375 -8.2998046875 -70.2998046875 -24.5498046875 rrcurveto
            -74.650390625 vlineto
            63.0498046875 4.55078125 116.400390625 7.099609375 55.5498046875 0 46.5 0 28.5 -13.2998046875 0 -58.2001953125 1 -1 -1 -45 0 0 rrcurveto
            -1 -180 1 0 -102.599609375 -44.75 -62.7998046875 -78.25 vhcurveto
            return
          </CharString>
          <CharString index="89">
            34.599609375 vlineto
            0 26.400390625 9.7001953125 27.94921875 39.1494140625 3.650390625 rrcurveto
            162.5 12.150390625 0 -113.950195312 rlineto
            0 -91.9501953125 -44.7001953125 -66.349609375 -28.75 -24.2998046875 8.349609375 45.55078125 vhcurveto
            return
          </CharString>
          <CharString index="90">
            -199.599609375 40 -73.400390625 135 vhcurveto
            83 0 103.850585938 1.849609375 77.1494140625 26.150390625 rrcurveto
            80.5 vlineto
            -75 -11 -55 0.650390625 -85 0 rrcurveto
            -76.599609375 -31.400390625 14.8994140625 106.450195312 hvcurveto
            189 hlineto
            96 48 40.7998046875 88.2001953125 176 -73.7998046875 15.5 -143.200195312 -166.799804688 -65.2001953125 -35.599609375 -231.400390625 hvcurveto
            return
          </CharString>
          <CharString index="91">
            -0.7001953125 131.900390625 34.1005859375 3.099609375 88.1494140625 0 rrcurveto
            82.1005859375 13.349609375 -11.099609375 -80.8505859375 -28.099609375 -16.5498046875 -14.9501953125 -34.5498046875 hvcurveto
            return
          </CharString>
          <CharString index="92">
            -30.7998046875 25.44921875 -25.4501953125 30.80078125 30.7998046875 24.4501953125 25.4501953125 30.7998046875 30.7998046875 -24.4501953125 24.4501953125 -30.7998046875 -30.80078125 -25.44921875 -24.4501953125 -30.7998046875 vhcurveto
            return
          </CharString>
          <CharString index="93">
            86 0 68.19921875 64 63.30078125 -64 85 0 -99.4501953125 133.5 -92 0 rlineto
            return
          </CharString>
          <CharString index="94">
            116 391.5 hlineto
            54.25 33.5 33.75 16.5 64.94921875 0 rrcurveto
            40.8505859375 29.2001953125 -23 -57.599609375 hvcurveto
            -360.900390625 116 359.5 vlineto
            96.400390625 -43.30078125 84.099609375 -117.19921875 vhcurveto
            -81 0 -46.30078125 -33.900390625 -51.19921875 -33.599609375 rrcurveto
            return
          </CharString>
          <CharString index="95">
            37.0498046875 0.650390625 21.650390625 -33.05078125 51.4501953125 -1.94921875 45.1494140625 -1.30078125 39.650390625 39.650390625 29.150390625 27.7998046875 rrcurveto
            -23.400390625 53.2001953125 rlineto
            -28.5 -19.099609375 -33.599609375 -19.650390625 -29.6005859375 1.349609375 rrcurveto
            return
          </CharString>
          <CharString index="96">
            -32.2001953125 0.650390625 -26.5498046875 32.400390625 -47.8994140625 1.94921875 rrcurveto
            -46.25 0 -38.75 -33.44921875 -34.75 -34.05078125 rrcurveto
            return
          </CharString>
          <CharString index="97">
            -190 57.4501953125 -73 181.799804688 183.200195312 56.0498046875 66 197 211 -57.7998046875 67 -181.450195312 -177.5 -61.75 -61 -217 vhcurveto
            return
          </CharString>
          <CharString index="98">
            164.049804688 29.7998046875 15.4501953125 93.4501953125 95.650390625 27.599609375 -15.75 -163.75 -152.599609375 -33.7998046875 -11.900390625 -89.4501953125 -84.7998046875 -38.4501953125 12.7001953125 151.799804688 vhcurveto
            return
          </CharString>
          <CharString index="99">
            -96.400390625 43.2998046875 -84.099609375 117.200195312 vhcurveto
            81 0 41.75 34.599609375 55.75 32.900390625 rrcurveto
            return
          </CharString>
          <CharString index="100">
            -54.25 -33.5 -33.75 -16.5 -64.9501953125 0 rrcurveto
            -40.849609375 -29.2001953125 23 57.599609375 hvcurveto
            360.900390625 -116 vlineto
            return
          </CharString>
          <CharString index="101">
            113.55078125 -404.900390625 rlineto
            28.44921875 -101.69921875 61.1005859375 -24.400390625 54.599609375 0 rrcurveto
            -81.75 -270 80.2998046875 0 73.6005859375 102 202.149414062 699 -122.899414062 0 -122.950195312 -426.349609375 rlineto
            -4.9501953125 0.349609375 -39.2001953125 -9.25 -13.7998046875 47.900390625 rrcurveto
            -105.200195312 387.349609375 rlineto
            return
          </CharString>
          <CharString index="102">
            1.52587890625e-05 -18.299987793 11.6499938965 -8.64999389648 14.6500091553 0 rrcurveto
            return
          </CharString>
          <CharString index="103">
            120.350006104 vlineto
            1.52587890625e-05 15.6500091553 -6.65000915527 13.3000030518 -19.299987793 0 rrcurveto
            -75.25 hlineto
            -17.3000030518 -9 -9.64999389648 -19.3000030518 hvcurveto
            return
          </CharString>
          <CharString index="104">
            -1.52587890625e-05 -18.299987793 12.3000030518 -8.64999389648 14.6499938965 0 rrcurveto
            return
          </CharString>
          <CharString index="105">
            120.350006104 vlineto
            -1.52587890625e-05 15.6500091553 -6 13.3000030518 -19.3000030518 0 rrcurveto
            -75.25 hlineto
            -17.299987793 -9.65000915527 -9.64999389648 -19.3000030518 hvcurveto
            return
          </CharString>
          <CharString index="106">
            -92.9999847412 53.450012207 -23.3000030518 71.5999908447 vhcurveto
            118.050003052 hlineto
            72.0500030518 48.6499938965 26.25 90.0500030518 hvcurveto
            246.600006104 vlineto
            -1.52587890625e-05 67.700012207 -30 48.5999908447 -90.6999969482 0 rrcurveto
            -117.699996948 hlineto
            -77.9999847412 -1.52587890625e-05 -47.4000091553 -33.6999969482 0 -84.6999969482 rrcurveto
            return
          </CharString>
          <CharString index="107">
            215.149993896 vlineto
            -1.52587890625e-05 22.9499969482 2.44999694824 22.75 46.8000030518 0 rrcurveto
            84.1499938965 hlineto
            37.5 1.52587890625e-05 10.0999908447 -13.5 0 -32.1999969482 rrcurveto
            -215.5 vlineto
            -1.52587890625e-05 -33.950012207 -8.5 -11.75 -40.8499908447 0 rrcurveto
            -80.6499938965 hlineto
            -36.7500152588 -14.25 8.5 37.5500030518 hvcurveto
            return
          </CharString>
          <CharString index="108">
            -1.30000305176 -211.949996948 59.9000091553 -40.1500091553 77.9499969482 0 rrcurveto
            104.899993896 hlineto
            69.3999938965 47.5 33 77.950012207 hvcurveto
            69.1499938965 vlineto
            59.0500030518 -20.1500091553 51.75 -95.6999969482 vhcurveto
            return
          </CharString>
          <CharString index="109">
            136.25 hlineto
            28.25 -1.52587890625e-05 11.0500030518 -6.64999389648 0 -30.75 rrcurveto
            -43.1499938965 vlineto
            -1.52587890625e-05 -29.6999969482 -11.5500030518 -11.1499938965 -29.1499938965 0 rrcurveto
            -72.75 hlineto
            -57.3000030518 1.52587890625e-05 -4.80000305176 81.75 0 39.6499938965 rrcurveto
            return
          </CharString>
          <CharString index="110">
            241.699996948 0 -164.699996948 -393.699996948 100.800003052 0 182.699996948 439.050003052 -23.6499938965 40.8000030518 -336.850006104 0 rlineto
            return
          </CharString>
          <CharString index="111">
            39.8500061035 vlineto
            30.8999938965 13.3999938965 11.3000030518 29.3000030518 vhcurveto
            87.3500061035 hlineto
            27.950012207 1.52587890625e-05 12.4499969482 -13.25 0 -28.9499969482 rrcurveto
            -39.8500061035 vlineto
            -1.52587890625e-05 -27 -13.0500030518 -10.6499938965 -28.3499908447 0 rrcurveto
            -85.0500030518 hlineto
            -34.6999969482 -9.30000305176 10.549987793 27.1000061035 hvcurveto
            return
          </CharString>
          <CharString index="112">
            26.0500030518 vlineto
            37.9499969482 12.3000030518 8.80000305176 36.25 vhcurveto
            75.3000030518 hlineto
            30.299987793 16.3000030518 -7.14999389648 -39.6000061035 hvcurveto
            -26.0500030518 vlineto
            -1.52587890625e-05 -20.200012207 -2.64999389648 -23.25 -40.6999969482 0 rrcurveto
            -84.3999938965 hlineto
            -22.3500061035 -20.3500061035 8.19999694824 35.25 hvcurveto
            return
          </CharString>
          <CharString index="113">
            -59.75 20.5 -52.0999908447 95.6999969482 vhcurveto
            return
          </CharString>
          <CharString index="114">
            43.1499938965 vlineto
            30.3999938965 11.5500030518 11.5 29.1500091553 vhcurveto
            74.6999969482 hlineto
            57.3000183105 2.84999084473 -82.1000061035 -41.3999938965 hvcurveto
            return
          </CharString>
          <CharString index="115">
            -135.899993896 hlineto
            -28.2499847412 -11.4000091553 7 31.4499969482 hvcurveto
            return
          </CharString>
          <CharString index="116">
            -82.5 0 -48.5 -7.70001220703 -63.1999969482 -9.75 rrcurveto
            -0.649993896484 0.650009155273 -0.650009155273 -69.3500061035 1.30000305176 0 rrcurveto
            return
          </CharString>
          <CharString index="117">
            176.199996948 hlineto
            41.8500061035 25.75 -11.700012207 -35.6999969482 hvcurveto
            -15.6999969482 vlineto
            0 -33.6999969482 -21.5500030518 -14.3000030518 -46.0500030518 -1.64999389648 rrcurveto
            return
          </CharString>
          <CharString index="118">
            131.5 -5 rlineto
            38.1500091553 -1 28.0999908447 -11.75 0 -40.5 rrcurveto
            -16.3500061035 vlineto
            -36.299987793 -16.5999908447 -11.0500030518 -53.6500091553 vhcurveto
            0 -146.399993896 -0.649993896484 -20.8000030518 vhcurveto
            -1 -66.4499969482 rlineto
            59.0999908447 -21.0500030518 63.75 2 76.4499969482 0 rrcurveto
            94.8000030518 35.75 46.9499969482 74.1499938965 hvcurveto
            24.8500061035 vlineto
            1.52587890625e-05 49.6999969482 -19.9000091553 31.8500061035 -34 15.5999908447 33 11.75 20.9000091553 31.700012207 0 47.6999969482 rrcurveto
            31.8500061035 vlineto
            1.52587890625e-05 67 -41.6999969482 52.1000061035 -83.8500061035 0.350006103516 rrcurveto
            return
          </CharString>
          <CharString index="119">
            -78.4499969482 0.699996948242 -71.1000061035 0.949996948242 -58.75 -21.0500030518 rrcurveto
            return
          </CharString>
          <CharString index="120">
            22.3500061035 -38.3500061035 235.649993896 0 0 -105.300003052 91.3999938965 0 0 111.600006104 rlineto
            return
          </CharString>
          <CharString index="121">
            -51.1499938965 0 -55.450012207 -5.90000915527 -44.5 -8.79998779297 0.650009155273 49.049987793 2.59999084473 73.8500061035 61.1000061035 0 rrcurveto
            return
          </CharString>
          <CharString index="122">
            185.899993896 71.3500061035 hlineto
            return
          </CharString>
          <CharString index="123">
            -145.100585938 -68.900390625 91.7001953125 -137.899414062 109.400390625 22.2998046875 rrcurveto
            70.5 vlineto
            -63.9501953125 -0.7998046875 -23.4501953125 52.0498046875 80.900390625 62.75 rrcurveto
            return
          </CharString>
          <CharString index="124">
            11 -134 67 0 10 134 0 67 -88 0 rlineto
            return
          </CharString>
          <CharString index="125">
            -71.0498046875 14.5 -114.950195312 170.5 vhcurveto
            122.5 hlineto
            57.6494140625 14.2001953125 -31.900390625 -47.19921875 hvcurveto
            -49.80078125 vlineto
            -67.69921875 -62.1494140625 -5.150390625 -41.7001953125 vhcurveto
            -93 0 -120.150390625 7 -40 4 rrcurveto
            -91.849609375 vlineto
            64.900390625 -17.1005859375 108.450195312 -11.0498046875 97.2998046875 0 rrcurveto
            99 103.349609375 27.599609375 157.400390625 hvcurveto
            55.75 vlineto
            81.2998046875 -27.2001953125 104.700195312 -139.649414062 vhcurveto
            -125.200195312 hlineto
            -57.900390625 -29.3994140625 10.5 70 hvcurveto
            46.75 vlineto
            0 79.7001953125 42.099609375 5.25 64.400390625 -1.9501953125 23.099609375 0 159.400390625 -4.9501953125 64 -5.0498046875 rrcurveto
            91.849609375 vlineto
            -50.6005859375 12.7001953125 -134.149414062 15.8505859375 -86.25 -1.400390625 -112 -1.0498046875 -86 -38.9501953125 0 -145 rrcurveto
            return
          </CharString>
          <CharString index="126">
            107.900390625 -133.5 92 0 102.599609375 133.5 -85.349609375 0 -62.349609375 -64 -69.150390625 64 rlineto
            return
          </CharString>
          <CharString index="127">
            -51.7001953125 54.5 vlineto
            84.2001953125 23.7998046875 37.5 102 hvcurveto
            -84.5 hlineto
            0 -38 -2.599609375 -22.7998046875 -28 -12 rrcurveto
            return
          </CharString>
          <CharString index="128">
            107.900390625 -133.5 92 0 102.599609375 133.5 -85.349609375 0 -62.3505859375 -64 -69.1494140625 64 rlineto
            return
          </CharString>
          <CharString index="129">
            -14 10 -9 14 vhcurveto
            64 hlineto
            14 9 8 15 hvcurveto
            68 vlineto
            14 -8 11 -15 vhcurveto
            -64 hlineto
            -16 -8 -10 -15 hvcurveto
            return
          </CharString>
          <CharString index="130">
            -145.099609375 -68.900390625 91.7001953125 -137.899414062 109.399414062 22.2998046875 rrcurveto
            70.5 vlineto
            -63.9501953125 -0.7998046875 -23.44921875 52.0498046875 80.8994140625 62.75 rrcurveto
            return
          </CharString>
          <CharString index="131">
            -103 51 -35.349609375 94 vhcurveto
            136.299804688 hlineto
            34.2001953125 8.5 -15.1005859375 -26.9501953125 hvcurveto
            -33.599609375 vlineto
            -42.5 -36.75 1.4501953125 -5.9501953125 vhcurveto
            return
          </CharString>
          <CharString index="132">
            -259.299804688 -75.650390625 hlineto
            return
          </CharString>
          <CharString index="133">
            37.2998046875 -16.9501953125 168.799804688 -8.349609375 81.900390625 0 rrcurveto
            64 66 26 109 hvcurveto
            52.5 vlineto
            76.400390625 -40.900390625 57.849609375 -96.099609375 vhcurveto
            -137.700195312 hlineto
            -28.25 -21.0498046875 1.2998046875 41.3505859375 hvcurveto
            32 vlineto
            28.3994140625 3.1494140625 16.25 46.150390625 vhcurveto
            return
          </CharString>
          <CharString index="134">
            248.049804688 76.9501953125 hlineto
            return
          </CharString>
          <CharString index="135">
            -45 16.900390625 -146.5 6.099609375 -83.849609375 0 rrcurveto
            -103 -35 -57 -82 hvcurveto
            return
          </CharString>
          <CharString index="136">
            107.899414062 -133.5 92 0 102.600585938 133.5 -85.3505859375 0 -62.349609375 -64 -69.150390625 64 rlineto
            return
          </CharString>
          <CharString index="137">
            -51.7001953125 54.5 vlineto
            84.19921875 23.80078125 37.5 102 hvcurveto
            -84.5 hlineto
            0 -38 -2.6005859375 -22.7998046875 -28 -12 rrcurveto
            return
          </CharString>
          <CharString index="138">
            271.799804688 0 -256.799804688 -326.700195312 0 -101.299804688 402 0 rlineto
            0 0 1 101 -1 1 rrcurveto
            -247.950195312 0 247.950195312 326 0 102 -417 0 rlineto
            return
          </CharString>
          <CharString index="139">
            116 299 hlineto
            151 -14 133 -285 129.349609375 0 -144.200195312 293.25 rlineto
            36.0498046875 9.599609375 84.30078125 19.5 0 184.400390625 rrcurveto
            171.599609375 -81 53.650390625 -107.25 vhcurveto
            -317.25 hlineto
            return
          </CharString>
          <CharString index="140">
            232.5 192.150390625 vlineto
            44 36 -18.2001953125 -100.549804688 -104.650390625 -32.25 -9.099609375 -47.75 hvcurveto
            return
          </CharString>
          <CharString index="141">
            -70.599609375 54.099609375 -43.400390625 59.900390625 60.599609375 55.400390625 40.7998046875 73.2001953125 vhcurveto
            -54 hlineto
            -37.099609375 -24 -22.900390625 -38 -32.650390625 -27.349609375 24.150390625 35.849609375 vhcurveto
            return
          </CharString>
          <CharString index="142">
            296.849609375 hlineto
            183.900390625 72.25 165.5 197.5 169.950195312 -40.25 199.049804688 -215.900390625 hvcurveto
            -296.849609375 hlineto
            return
          </CharString>
          <CharString index="143">
            519.049804688 173.849609375 vlineto
            91.8505859375 55.2998046875 -60.0498046875 -202.450195312 -149.450195312 -41.400390625 -107.099609375 -105.75 hvcurveto
            return
          </CharString>
          <CharString index="144">
            116 362.349609375 hlineto
            50.0498046875 45.05078125 41.7001953125 13.6494140625 66 0 29.69921875 0 32.650390625 -1.9501953125 13.400390625 -1.94921875 rrcurveto
            112.549804688 vlineto
            -13.400390625 5.6494140625 -26 1.30078125 -25.150390625 0 -71.849609375 0 -51.5 -37.30078125 -45.599609375 -35.349609375 rrcurveto
            -22 67 -94 0 rlineto
            return
          </CharString>
          <CharString index="145">
            -141 52.19921875 -48 83.30078125 vhcurveto
            105.5 74 hlineto
            -7 -68 21 0 hvcurveto
            -29.80078125 9.400390625 -20.19921875 17.8994140625 0 80.7001953125 rrcurveto
            580 -116 vlineto
            return
          </CharString>
          <CharString index="146">
            -224.25 76 -46.75 99 vhcurveto
            83 1 83.6005859375 -2.349609375 78.8994140625 33.5 rrcurveto
            76.2998046875 vlineto
            0 -115.349609375 -9.9501953125 -92 -72 -25.150390625 27.0498046875 142.150390625 168.349609375 34.3505859375 6.4501953125 62.7998046875 89 111.349609375 -6 0 vhcurveto
            75 vlineto
            -81.2001953125 22.7998046875 -105.299804688 6.7001953125 -52 0 rrcurveto
            -102 -73 -46.400390625 -223.599609375 hvcurveto
            return
          </CharString>
          <CharString index="147">
            26.150390625 21.5 21.5 26.1494140625 26.150390625 20.5 -21.5 -26.150390625 -26.150390625 -20.5 -20.5 -26.150390625 -26.1494140625 -21.5 20.5 26.150390625 vhcurveto
            return
          </CharString>
          <CharString index="148">
            90.6005859375 -247 hlineto
            -141 52.8994140625 -48.7001953125 78.05078125 vhcurveto
            109.69921875 74 hlineto
            -7 -68 21 0 hvcurveto
            -29.7998046875 9.400390625 -19.849609375 17.8994140625 0 81.400390625 rrcurveto
            return
          </CharString>
          <CharString index="149">
            -131.899414062 148 -94.5 hlineto
            return
          </CharString>
          <CharString index="150">
            1.52587890625e-05 -169.900009155 37.6499938965 -108.099990845 153 0 45 0 61.1999969482 11.9499969482 49.3000030518 26.6999969482 rrcurveto
            -110.25 vlineto
            -1.52587890625e-05 -64 -32 -31 -53 0 rrcurveto
            -237 -77 hlineto
            247.5 -24 rlineto
            106.049987793 -10.8500061035 84.4499969482 75.1500091553 0 131.699996948 rrcurveto
            587.550003052 vlineto
            -49.450012207 10.3000183105 -116.050003052 17.25 -106 0 rrcurveto
            -125 -65.6499938965 -90.1500091553 -175.349990845 hvcurveto
            return
          </CharString>
          <CharString index="151">
            1.52587890625e-05 61.950012207 2.30000305176 106.100006104 89.8499908447 0 rrcurveto
            138 -328.5 hlineto
            -58.1500091553 -18.9000091553 -25.4499969482 -4 -55.1000061035 0 rrcurveto
            -92.3000030518 0.850006103516 87.6000061035 95.75 hvcurveto
            return
          </CharString>
          <CharString index="152">
            86 0 68.1999969482 64 63.3000030518 -64 85 0 -99.4499969482 133.5 -92 0 rlineto
            return
          </CharString>
          <CharString index="153">
            23.1000061035 -50.1000061035 rlineto
            34.9000091553 17.5 17.1499938965 16.8500061035 42.25 0.649993896484 rrcurveto
            return
          </CharString>
          <CharString index="154">
            37.0500030518 0.649993896484 21.6499938965 -33.049987793 51.450012207 -1.95001220703 45.1499938965 -1.29998779297 39.6499938965 39.6499938965 29.1500091553 27.8000030518 rrcurveto
            -23.3999938965 53.1999969482 rlineto
            -28.5 -19.1000061035 -33.5999908447 -19.6499938965 -29.6000061035 1.35000610352 rrcurveto
            return
          </CharString>
          <CharString index="155">
            -32.1999969482 0.649993896484 -26.5500030518 32.3999938965 -47.8999938965 1.95001220703 rrcurveto
            -46.25 0 -38.75 -33.450012207 -34.75 -34.049987793 rrcurveto
            return
          </CharString>
          <CharString index="156">
            -14 10 -9 14 vhcurveto
            74 hlineto
            14 11 5 18 hvcurveto
            78 vlineto
            16 -7 9 -18 vhcurveto
            -74 hlineto
            -16 -8 -10 -15 hvcurveto
            return
          </CharString>
          <CharString index="157">
            88.25 -436 116 436 hlineto
            return
          </CharString>
          <CharString index="158">
            -89.5500030518 -17 rlineto
            return
          </CharString>
          <CharString index="159">
            34 -54.5 351.649993896 0 0 -167.5 116 0 0 167.5 79.5 22.5 0 90.5 -79.5 0 0 257.5 -83.1499938965 0 -32.8500061035 -76.0500030518 0 -181.449996948 -218.550003052 0 246.050003052 449.5 -130 0 rlineto
            return
          </CharString>
          <CharString index="160">
            1.52587890625e-05 -315 78.3000030518 -69.3500061035 113.549987793 -0.649993896484 rrcurveto
            145.149993896 hlineto
            101.700012207 69.8000030518 41.1999969482 118.300003052 hvcurveto
            117 vlineto
            1.52587890625e-05 88.8500061035 -28.5 74.1499938965 -139.5 0 rrcurveto
            return
          </CharString>
          <CharString index="161">
            -77.5 0 -78.8000030518 -7.85000610352 -68.1999969482 -13.1499938965 1.30000305176 80.1499938965 11.6999969482 131.350006104 91 0 rrcurveto
            264.5 87.5500030518 hlineto
            -96.8999938965 15.450012207 -114.949996948 9.85000610352 -100.649993896 -5.60000610352 rrcurveto
            -85.1000061035 -4.89999389648 -86.8999938965 -82.3500061035 0 -265 rrcurveto
            return
          </CharString>
          <CharString index="162">
            206.649993896 hlineto
            42.8499908447 27.6499938965 -13.3000030518 -54.6999969482 hvcurveto
            -88.25 vlineto
            -1.52587890625e-05 -59.1000061035 -27.5500030518 -9.64999389648 -44.6999969482 0 rrcurveto
            -102.800003052 hlineto
            -94.25 -7.84999084473 126.800003052 98.1999969482 hvcurveto
            return
          </CharString>
          <CharString index="163">
            -49.0500030518 4.69999694824 -113.699996948 178.300003052 vhcurveto
            148.5 hlineto
            75.5500030518 94.4499969482 23.3000030518 141.550003052 hvcurveto
            90.3000030518 vlineto
            0.649993896484 43 -16.3999938965 80.8000030518 -59.25 11.0500030518 69.5500030518 12.8999938965 6.09999084473 79.3500061035 -0.649993896484 23.75 rrcurveto
            57.6499938965 vlineto
            124.75 -58.1499938965 48.6000061035 -110.850006104 vhcurveto
            -149.5 hlineto
            -103 -80 -36.8999938965 -136.100006104 hvcurveto
            -65 vlineto
            0 -55.8000030518 13.6499938965 -60.4499969482 67.5 -27.25 -45.5999908447 -11.6000061035 -35.5500030518 -33.299987793 0 -65.6000061035 rrcurveto
            return
          </CharString>
          <CharString index="164">
            82.25 vlineto
            49.75 31 19.3500061035 44.6000061035 vhcurveto
            122.25 hlineto
            42.25 29.3999938965 -22.9499969482 -46.1500091553 hvcurveto
            -82.25 vlineto
            -44.25 -30.9499969482 -21.8999938965 -43.3500061035 vhcurveto
            -112.449996948 hlineto
            -59.6999969482 -23.0500030518 22.0500030518 44.0999908447 hvcurveto
            return
          </CharString>
          <CharString index="165">
            54.6999969482 vlineto
            74.5999908447 30.6499938965 8.19999694824 52.1000061035 vhcurveto
            113.100006104 hlineto
            46.75 26.8999938965 -17.8999938965 -64.9000091553 hvcurveto
            -54.6999969482 vlineto
            -33.8999938965 -9.5 -36.1000061035 -62.8500061035 vhcurveto
            -121.550003052 hlineto
            -34 -41.6000061035 12.8000030518 57.1999969482 hvcurveto
            return
          </CharString>
          <CharString index="166">
            1.52587890625e-05 -88.8500061035 28.5 -74.1499938965 139.5 0 rrcurveto
            return
          </CharString>
          <CharString index="167">
            0 -209.900390625 31 -170.94921875 207 5.849609375 86.5 1.75 48.5 25.650390625 34.5 26.599609375 rrcurveto
            29.650390625 -49 84.349609375 0 0 403.5 rlineto
            -24 2 -23 1 -21 0 rrcurveto
            return
          </CharString>
          <CharString index="168">
            -75.75 0 -56.849609375 -9.4501953125 -41.75 -15.5498046875 rrcurveto
            -74.5 vlineto
            return
          </CharString>
          <CharString index="169">
            126.349609375 -156.25 hlineto
            0 0 -78.8994140625 -46.650390625 -71.1005859375 0.650390625 -110.75 1.2998046875 -28.75 60.25 0 201.700195312 0 188.349609375 23.80078125 78.150390625 118.349609375 0 108.799804688 0 135.700195312 -15.5 6 0 rrcurveto
            90.5 vlineto
            -92.75 21.400390625 -89.2998046875 9.099609375 -89.4501953125 0 rrcurveto
            -199 -38.150390625 -161.950195312 -208.049804688 hvcurveto
            return
          </CharString>
          <CharString index="170">
            -70.599609375 54.1005859375 -43.400390625 59.8994140625 60.6005859375 55.3994140625 40.7998046875 73.2001953125 vhcurveto
            -54 hlineto
            -37.099609375 -24 -22.900390625 -38 -32.6494140625 -27.3505859375 24.150390625 35.849609375 vhcurveto
            return
          </CharString>
          <CharString index="171">
            0 -42.0498046875 18.099609375 -35.400390625 28 -17.2001953125 rrcurveto
            -44.2001953125 -54.5 0 -73.7998046875 rlineto
            -104.700195312 69.5 -49.2998046875 94 vhcurveto
            150 hlineto
            131 29.5 83.5 70.5 hvcurveto
            59.5 vlineto
            98.400390625 -55.7099609375 51.849609375 -91.1396484375 vhcurveto
            -181.150390625 hlineto
            -22.1640625 -18.4853515625 5.2001953125 24.25 24.25 24.6494140625 1.5498046875 16 hvcurveto
            135 hlineto
            return
          </CharString>
          <CharString index="172">
            146.900390625 28.599609375 114 70.5 hvcurveto
            0 67.0498046875 -14.0498046875 19.25 -9.9501953125 21.7001953125 rrcurveto
            67 18 0 73.5 rlineto
            return
          </CharString>
          <CharString index="173">
            -319 hlineto
            -115.049804688 -64.9501953125 -62 -127 hvcurveto
            0 -53 14.3505859375 -65.7001953125 44 -28 rrcurveto
            -42.400390625 -11.5 -18.349609375 -40.25 0 -38.599609375 rrcurveto
            return
          </CharString>
          <CharString index="174">
            105.25 vlineto
            0 19.5830078125 -5.19921875 23.6669921875 vhcurveto
            140.899414062 hlineto
            return
          </CharString>
          <CharString index="175">
            46.21484375 -0.2666015625 11.6357421875 -19.6337890625 0 -36.150390625 rrcurveto
            -45.75 vlineto
            -36.849609375 -10 -27.75 -53.400390625 vhcurveto
            -107.299804688 hlineto
            -35 -36.2998046875 6.2998046875 60.0498046875 hvcurveto
            return
          </CharString>
          <CharString index="176">
            45.2001953125 12.1005859375 45.2998046875 65.8994140625 vhcurveto
            66.900390625 hlineto
            60.099609375 0 17.05078125 -29.93359375 1.94921875 -60.56640625 1.30078125 -47.7001953125 -16.55078125 -48.7998046875 -62.849609375 0 rrcurveto
            -71.400390625 hlineto
            -59.5 -15 47.5 49 hvcurveto
            return
          </CharString>
          <CharString index="177">
            -169.899414062 37.650390625 -108.100585938 153 vhcurveto
            45 0 61.2001953125 11.9501953125 49.2998046875 26.7001953125 rrcurveto
            -110.25 vlineto
            -64 -32 -31 -53 vhcurveto
            -237 -77 hlineto
            247.5 -24 rlineto
            106.049804688 -10.849609375 84.4501953125 75.1494140625 0 131.700195312 rrcurveto
            587.549804688 vlineto
            -49.4501953125 10.2998046875 -116.049804688 17.25 -106 0 rrcurveto
            -125 -65.650390625 -90.1494140625 -175.350585938 hvcurveto
            return
          </CharString>
          <CharString index="178">
            61.9501953125 2.2998046875 106.099609375 89.8505859375 vhcurveto
            138 -328.5 hlineto
            -58.150390625 -18.8994140625 -25.4501953125 -4 -55.099609375 0 rrcurveto
            -92.2998046875 0.849609375 87.599609375 95.75 hvcurveto
            return
          </CharString>
          <CharString index="179">
            148 -94.5 vlineto
            return
          </CharString>
          <CharString index="180">
            -15.30078125 9.900390625 -7.19921875 12.599609375 vhcurveto
            return
          </CharString>
          <CharString index="181">
            9.900390625 -16.2001953125 hlineto
            0 -9.5849609375 -0.900390625 -16.0654296875 -27 0.900390625 rrcurveto
            -38.25 vlineto
            0 104.400390625 -25.3349609375 94.634765625 hvcurveto
            return
          </CharString>
          <CharString index="182">
            -15.2998046875 9.900390625 -7.2001953125 12.599609375 vhcurveto
            return
          </CharString>
          <CharString index="183">
            99.900390625 vlineto
            13.5 -5.400390625 10.7998046875 -16.19921875 vhcurveto
            -64.80078125 hlineto
            -14.3994140625 -8.1005859375 -8.099609375 -16.2001953125 hvcurveto
            return
          </CharString>
          <CharString index="184">
            -15.2998046875 9.8994140625 -7.2001953125 12.6005859375 vhcurveto
            return
          </CharString>
          <CharString index="185">
            9.8994140625 -16.2001953125 hlineto
            0 -9.5849609375 -0.8994140625 -16.0654296875 -27 0.900390625 rrcurveto
            -38.25 vlineto
            0 104.399414062 -25.3349609375 94.634765625 hvcurveto
            return
          </CharString>
          <CharString index="186">
            99.900390625 vlineto
            13.5 -5.3994140625 10.7998046875 -16.2001953125 vhcurveto
            -64.7998046875 hlineto
            -14.400390625 -8.099609375 -8.099609375 -16.2001953125 hvcurveto
            return
          </CharString>
          <CharString index="187">
            99.900390625 vlineto
            13.5 -5.400390625 10.7998046875 -16.2001953125 vhcurveto
            -64.7998046875 hlineto
            -14.3994140625 -8.1005859375 -8.099609375 -16.2001953125 hvcurveto
            return
          </CharString>
          <CharString index="188">
            -145.099609375 -68.8994140625 91.69921875 -137.900390625 109.400390625 22.2998046875 rrcurveto
            70.5 vlineto
            -63.9501953125 -0.7998046875 -23.4501953125 52.0498046875 80.900390625 62.75 rrcurveto
            return
          </CharString>
          <CharString index="189">
            99.900390625 vlineto
            13.5 -5.400390625 10.7998046875 -16.2001953125 vhcurveto
            -64.7998046875 hlineto
            -14.400390625 -8.099609375 -8.099609375 -16.2001953125 hvcurveto
            return
          </CharString>
          <CharString index="190">
            37.0498046875 0.650390625 21.650390625 -33.05078125 51.44921875 -1.94921875 45.150390625 -1.30078125 39.650390625 39.650390625 29.1494140625 27.7998046875 rrcurveto
            -23.3994140625 53.2001953125 rlineto
            -28.5 -19.099609375 -33.6005859375 -19.650390625 -29.599609375 1.349609375 rrcurveto
            return
          </CharString>
          <CharString index="191">
            -145.100585938 -68.8994140625 91.7001953125 -137.900390625 109.400390625 22.2998046875 rrcurveto
            70.5 vlineto
            -63.9501953125 -0.7998046875 -23.4501953125 52.0498046875 80.900390625 62.75 rrcurveto
            return
          </CharString>
          <CharString index="192">
            -1.52587890625e-05 -85 32.5 -43.5 98 0 rrcurveto
            64.6000061035 hlineto
            101.000015259 31.5 43.5 85 hvcurveto
            79.8500061035 vlineto
            1.52587890625e-05 85 -32.5 43.5 -98 0 rrcurveto
            -64.6000061035 hlineto
            -101.000015259 -31.5 -43.5 -85 hvcurveto
            return
          </CharString>
          <CharString index="193">
            58.8500061035 vlineto
            -1.52587890625e-05 41.1499938965 9.85000610352 11.8500061035 45.3999938965 0 rrcurveto
            47.1000061035 hlineto
            39.3000183105 13.9499969482 -9.60000610352 -43.3999938965 hvcurveto
            -58.8500061035 vlineto
            1.52587890625e-05 -36.9499969482 -5.65000915527 -16.0500030518 -49.5999908447 0 rrcurveto
            -47.1000061035 hlineto
            -42.1000061035 -11.1500091553 13.450012207 39.549987793 hvcurveto
            return
          </CharString>
          <CharString index="194">
            92 0 313.100006104 570 -89.8999938965 0 rlineto
            return
          </CharString>
          <CharString index="195">
            258 7 0 89 rlineto
            return
          </CharString>
          <CharString index="196">
            260.5 90.75 hlineto
            return
          </CharString>
          <CharString index="197">
            25.5 -44 87.5 0 0 320.25 rlineto
            -24 2 -22 1 -21 0 rrcurveto
            return
          </CharString>
          <CharString index="198">
            -81 0 -57 -10.5 -40 -11 rrcurveto
            -66.5 vlineto
            return
          </CharString>
          <CharString index="199">
            116 221.5 241 -221.5 116 571 -116 -240.5 -241 240.5 -116 hlineto
            return
          </CharString>
          <CharString index="200">
            116 570 -116 hlineto
            return
          </CharString>
          <CharString index="201">
            112.5 229 60.5 hlineto
            166.5 -229 135 0 -197.75 281 197.75 290 -135 0 -164.5 -240 -62.5 0 0 240 -112.5 0 rlineto
            return
          </CharString>
          <CharString index="202">
            -249 93.25 -36 161 168 87.25 47 245 256 -92.25 32 -163 -166 -88.25 -51 -244 vhcurveto
            return
          </CharString>
          <CharString index="203">
            179 56.549987793 2 81.700012207 95.549987793 43.700012207 -4.60000610352 -174.399993896 -173.949996948 -56.1000061035 -9.05000305176 -83.1499938965 -100.800003052 -37.4499969482 20.1000061035 160.899993896 vhcurveto
            return
          </CharString>
          <CharString index="204">
            172 -461 116 461 172 109 -460 hlineto
            return
          </CharString>
          <CharString index="205">
            205 -376.5 0 -194.5 116 0 0 194.5 203 376.5 -126.5 0 -133.5 -253 -137.5 253 rlineto
            return
          </CharString>
          <CharString index="206">
            440 109 -282 hlineto
            282 352 0 109 -440 0 0 -109 289.5 0 -289.5 -352 rlineto
            return
          </CharString>
          <CharString index="207">
            123 0 50 129.25 199.299804688 0 46.7001953125 -129.25 123 0 -196.5 570 -133.5 0 rlineto
            return
          </CharString>
          <CharString index="208">
            71.9501953125 194.25 65.7001953125 -194.25 rlineto
            return
          </CharString>
          <CharString index="209">
            116 221.099609375 hlineto
            0.6494140625 -1.2998046875 99.1005859375 -9.2001953125 19.5 -1.2998046875 rrcurveto
            105.94921875 -209.299804688 126 0 -120.599609375 220.400390625 rlineto
            66.5498046875 12.25 27.3505859375 68.6494140625 0 97.150390625 rrcurveto
            141 -90.2001953125 30.849609375 -79.9501953125 vhcurveto
            -270.349609375 hlineto
            return
          </CharString>
          <CharString index="210">
            167.149414062 145.94921875 vlineto
            15.400390625 47.150390625 -5.099609375 -71.7001953125 -77 -31.75 -13.349609375 -30.80078125 hvcurveto
            return
          </CharString>
          <CharString index="211">
            -72.150390625 44.900390625 -34.849609375 62.099609375 vhcurveto
            296 109 -235 hlineto
            -32.0498046875 0 -20.6005859375 0.2998046875 0.650390625 40.7001953125 rrcurveto
            420 -116 vlineto
            return
          </CharString>
          <CharString index="212">
            1.52587890625e-05 -30.8000030518 25.4499969482 -25.4499969482 30.8000030518 0 rrcurveto
            30.8000030518 24.4499969482 25.4499969482 30.8000030518 30.799987793 -24.4499969482 25.1000061035 -30.8000030518 -30.8000030518 -25.4499969482 -25.1000061035 -30.799987793 hvcurveto
            return
          </CharString>
          <CharString index="213">
            -96 40.150390625 -47.25 104.849609375 vhcurveto
            145.5 hlineto
            34.2001953125 11.2998046875 -14.0498046875 -28.7001953125 hvcurveto
            -50.400390625 vlineto
            0 -10.099609375 -42.099609375 -35.400390625 -98.7998046875 -169.700195312 4.400390625 0 vhcurveto
            -83 vlineto
            38.75 -17.6005859375 206.650390625 -5.7998046875 47.599609375 0 rrcurveto
            67.9501953125 69.0498046875 26.7001953125 115.299804688 hvcurveto
            56 vlineto
            80.25 -35.6494140625 64.5 -101.350585938 vhcurveto
            -149 hlineto
            -30.69921875 -19.30078125 0.849609375 43.900390625 hvcurveto
            42.5498046875 vlineto
            27 10.6005859375 24.9501953125 39.3994140625 103.600585938 155.399414062 -5.75 0 vhcurveto
            85 vlineto
            -74.69921875 13.5498046875 -149.80078125 8.2001953125 -52 0 rrcurveto
            -114.549804688 -33.9501953125 -66.75 -84.4501953125 hvcurveto
            return
          </CharString>
          <CharString index="214">
            0 -64.25 39.25 -34.0498046875 58.75 -0.7001953125 rrcurveto
            return
          </CharString>
          <CharString index="215">
            0 0 270.599609375 6.2998046875 39.900390625 9.1005859375 rrcurveto
            90.099609375 vlineto
            return
          </CharString>
          <CharString index="216">
            -256.5 hlineto
            -21 -15 3 29 hvcurveto
            0 97.150390625 rlineto
            return
          </CharString>
          <CharString index="217">
            -258 8 0 96.849609375 rlineto
            24 2 9 30 vhcurveto
            return
          </CharString>
          <CharString index="218">
            -32.5498046875 5.9501953125 -257.950195312 7.7998046875 0 0 -69.25 -0.7001953125 -48.75 -31.6494140625 0 -71.650390625 rrcurveto
            return
          </CharString>
          <CharString index="219">
            1.52587890625e-05 -57 45.3499908447 -45.6499938965 56 0 rrcurveto
            56 45 45.6499938965 57 57 -45 46 -56 -56 -45.3499908447 -46 -57 hvcurveto
            return
          </CharString>
          <CharString index="220">
            26.1499938965 20.8500061035 20.8500061035 26.1499938965 26.1500091553 20.5 -20.8500061035 -26.1499938965 -26.1499938965 -20.5 -20.5 -26.1500091553 -26.1499938965 -20.8500061035 20.5 26.1499938965 vhcurveto
            return
          </CharString>
          <CharString index="221">
            -151.299804688 24.05078125 -147.700195312 190.44921875 vhcurveto
            90.650390625 0 72.4501953125 10.0498046875 62.8994140625 20.1005859375 rrcurveto
            81.5 vlineto
            0 0 -128.149414062 -11.8505859375 -76.8505859375 -1.2998046875 -115 2 -4.5 96.349609375 0 102.150390625 0 117.5 17.5 67 102 0 65 0 125 -10.5 15 -3 rrcurveto
            83.5 vlineto
            -59.0498046875 19 -103.299804688 9.5 -63.650390625 0 rrcurveto
            -174.899414062 -39.6005859375 -124.349609375 -158.650390625 hvcurveto
            return
          </CharString>
          <CharString index="222">
            -30.80078125 25.4501953125 -25.44921875 30.7998046875 30.80078125 24.44921875 25.44921875 30.80078125 30.7998046875 -24.44921875 24.4501953125 -30.80078125 -30.7998046875 -25.4501953125 -24.4501953125 -30.7998046875 vhcurveto
            return
          </CharString>
          <CharString index="223">
            62.8000030518 -259.5 251.899993896 hlineto
            62.1500091553 152.949996948 -3.5 286.5 hvcurveto
            0 134.550003052 -38.8999938965 153.099990845 -172.949996948 0.700012207031 -16.25 0 -231.100006104 1.29998779297 -7.80000305176 -0.649993896484 rrcurveto
            -251.5 -62.8000030518 vlineto
            return
          </CharString>
          <CharString index="224">
            153.350006104 87.1000061035 61 -87.1000061035 143.399993896 117.649993896 vlineto
            67.200012207 43 -47.8999938965 -133 -96.4499969482 -20.5500030518 -80.4000091553 -93.5500030518 hvcurveto
            return
          </CharString>
          <CharString index="225">
            116 363.450195312 hlineto
            256 -363.450195312 112 0 0 571 -115 0 0 -359.099609375 -256 359.099609375 -113 0 rlineto
            return
          </CharString>
          <CharString index="226">
            179 56.55078125 2 81.69921875 95.55078125 43.69921875 -4.599609375 -174.400390625 -173.950195312 -56.099609375 -9.0498046875 -83.150390625 -100.799804688 -37.4501953125 20.099609375 160.900390625 vhcurveto
            return
          </CharString>
          <CharString index="227">
            -1 -239 111 -26 136 0 rrcurveto
            121 120 32 233 hvcurveto
            310 -117 -310 vlineto
            -131.900390625 -45.650390625 -24.099609375 -78.349609375 vhcurveto
            -88.650390625 0 -41 22.7001953125 0.650390625 133.299804688 rrcurveto
            310 -117 vlineto
            return
          </CharString>
          <CharString index="228">
            -19.6000061035 12.9499969482 -8.65000915527 15.3000030518 vhcurveto
            return
          </CharString>
          <CharString index="229">
            126.850006104 vlineto
            1.52587890625e-05 17.6000061035 -6.65000915527 13.299987793 -20.5999908447 0 rrcurveto
            -79.8000030518 hlineto
            -18.6000061035 -9.64999389648 -10.299987793 -20.6000061035 hvcurveto
            return
          </CharString>
          <CharString index="230">
            1.52587890625e-05 -19.6000061035 12.6499938965 -8.65000915527 15.3000030518 0 rrcurveto
            return
          </CharString>
          <CharString index="231">
            -18.6000061035 -9.34999084473 -10.299987793 -20.6000061035 hvcurveto
            return
          </CharString>
          <CharString index="232">
            -19.6000061035 13.25 -8.65000915527 15.3000030518 vhcurveto
            return
          </CharString>
          <CharString index="233">
            126.850006104 vlineto
            1.52587890625e-05 17.6000061035 -6.65000915527 13.299987793 -20.5999908447 0 rrcurveto
            -79.5 hlineto
            -18.5999908447 -9.94999694824 -10.299987793 -20.6000061035 hvcurveto
            return
          </CharString>
          <CharString index="234">
            0 -50 -1 -243.650390625 203.5 0.650390625 66.650390625 0 54.5498046875 16.2998046875 41.7998046875 34.7001953125 rrcurveto
            return
          </CharString>
          <CharString index="235">
            129 -85.75 hlineto
            -14.2998046875 -20.849609375 -57.7001953125 -27.650390625 -63.5 0 -101.25 0.349609375 -9.75 117.700195312 0 68.9501953125 0 165.5 32.05078125 27 92.94921875 0 80.7001953125 0 70.650390625 -4.900390625 72.1494140625 -8.099609375 rrcurveto
            86.5 vlineto
            -61.1494140625 16.25 -134.75 10.849609375 -62.6005859375 -2.099609375 rrcurveto
            -164.299804688 -3.150390625 -41.7001953125 -105.849609375 0 -184 rrcurveto
            return
          </CharString>
          <CharString index="236">
            239.5 -732 130 0 99.2998046875 326.75 112.5 -326.75 130 0 211.5 732 -124.049804688 0 -153.400390625 -568.75 -122.149414062 363.450195312 57.1494140625 205.299804688 -126 0 -149.5 -564.849609375 -180.799804688 564.849609375 rlineto
            return
          </CharString>
          <CharString index="237">
            180.450195312 -531 130.400390625 0 69.849609375 216.950195312 93.5 -216.950195312 126.5 0 183.049804688 531 -125.099609375 0 -125.599609375 -387 -98.150390625 234.150390625 43.150390625 152.849609375 -117.80078125 0 -110.69921875 -387 -124.80078125 387 rlineto
            return
          </CharString>
          <CharString index="238">
            190.450195312 -570 136.099609375 0 71.1005859375 214.049804688 79.5498046875 -214.049804688 133.5 0 180.799804688 570 -119.099609375 0 -128.150390625 -420.049804688 -93.900390625 247.75 54.400390625 172.299804688 -122.349609375 0 -125.55078125 -420.049804688 -133.849609375 420.049804688 rlineto
            return
          </CharString>
          <CharString index="239">
            -30.80078125 25.44921875 -25.44921875 30.80078125 30.7998046875 24.4501953125 25.44921875 30.80078125 30.7998046875 -24.4501953125 24.4501953125 -30.7998046875 -30.80078125 -25.44921875 -24.4501953125 -30.7998046875 vhcurveto
            return
          </CharString>
          <CharString index="240">
            117 615.950195312 hlineto
            0 17 19.75 5.349609375 5.25 -15.349609375 rrcurveto
            194.450195312 -537.549804688 rlineto
            34.0498046875 -140.200195312 213.25 32.5 0 131.399414062 rrcurveto
            622.900390625 -116 -611.349609375 vlineto
            0 -15 -18.099609375 -6.7001953125 -5.900390625 18.7001953125 rrcurveto
            -192.5 531.899414062 rlineto
            -32.7001953125 126.25 -218.549804688 -7.099609375 0 -145.75 rrcurveto
            return
          </CharString>
          <CharString index="241">
            116 404.5 hlineto
            63.44921875 30.2001953125 34.25 3.2998046875 54.55078125 0 rrcurveto
            44.69921875 26.05078125 -25.099609375 -56.900390625 hvcurveto
            -356 116 370 vlineto
            90.7998046875 -61.5 79.2001953125 -106 vhcurveto
            -128.30078125 0 -55.5498046875 -11.599609375 -103.649414062 -52.400390625 rrcurveto
            return
          </CharString>
          <CharString index="242">
            116 408 hlineto
            76.599609375 30 73.650390625 3.900390625 85.599609375 -10.400390625 rrcurveto
            106.5 vlineto
            -163 14 -88.0498046875 -17.150390625 -100.799804688 -55.349609375 rrcurveto
            return
          </CharString>
          <CharString index="243">
            -113 73.900390625 -25 77.099609375 vhcurveto
            144 hlineto
            106 49 51.650390625 111.349609375 hvcurveto
            99 vlineto
            0 191.200195312 -31.4501953125 83.1494140625 -151.549804688 0.650390625 -107.049804688 0.650390625 -62 -11.6005859375 -86.9501953125 -22.2001953125 rrcurveto
            -75.25 vlineto
            92.4501953125 7.1005859375 63.7001953125 4.8994140625 61.849609375 0 81.2001953125 0.650390625 23.7998046875 -15 0 -105.75 rrcurveto
            -183 hlineto
            -121.899414062 -29.1005859375 -55.5 -77 hvcurveto
            return
          </CharString>
          <CharString index="244">
            43 vlineto
            0 30.2001953125 13.400390625 12.6494140625 39.099609375 2.650390625 rrcurveto
            165.5 11.7998046875 0 -85.099609375 rlineto
            -41.1005859375 -8.1494140625 -24.099609375 -56.05078125 vhcurveto
            -100.94921875 hlineto
            -46.8505859375 -6 19 31 hvcurveto
            return
          </CharString>
          <CharString index="245">
            -90.7998046875 55.900390625 -79.2001953125 118.599609375 vhcurveto
            128.299804688 0 71.30078125 6.25 80.8994140625 38.25 rrcurveto
            495.5 -116 -420.75 vlineto
            -36.1494140625 -13.2998046875 -61.55078125 -3.9501953125 -54.5498046875 0 rrcurveto
            -44.7001953125 -26.0498046875 25.1005859375 56.8994140625 hvcurveto
            356 -116 vlineto
            return
          </CharString>
          <CharString index="246">
            1.52587890625e-05 -179.199996948 65.6499938965 -89.8000030518 125 0 101.449996948 0 119.900009155 10.9499969482 50.1499938965 16.6000061035 rrcurveto
            767 -116 -286.550003052 vlineto
            -49.3000183105 27.0500030518 -61.1999969482 11.9499969482 -45 0 rrcurveto
            -153 -37.6499938965 -108.100006104 -169.899993896 hvcurveto
            return
          </CharString>
          <CharString index="247">
            1.52587890625e-05 95.7500152588 -0.850006103516 87.5999908447 92.3000030518 0 55.1000061035 0 25.4499969482 -4 58.1499938965 -18.8999938965 rrcurveto
            -332 -138 vlineto
            -89.8500061035 -2.30000305176 109.600006104 61.9499969482 hvcurveto
            return
          </CharString>
          <CharString index="248">
            -144.5 55 -45.1999969482 75.950012207 vhcurveto
            109.699996948 74 hlineto
            -6.99998474121 1.52587890625e-05 -68 21 0 0 -29.8000030518 9.39999389648 -19.8500061035 17.9000091553 0 81.3999938965 rrcurveto
            233 130.5 95 -130.5 148 -116 vlineto
            return
          </CharString>
        <CharString name=".notdef">
          218 0 13 505 13 hstem
          84.6000061035 14 530 14 vstem
          628.600006104 506 rmoveto
          0 -481 -252 241 rlineto
          -265 -253 rmoveto
          254 243 253 -243 rlineto
          -520 9 rmoveto
          0 485 256 -241 rlineto
          265 252 rmoveto
          -254 -242 -257 242 rlineto
          -24 -518 rmoveto
          558 531 -558 hlineto
          endchar
        </CharString>
        <CharString name="A">
          175 21 -21 21 -21 177.399993896 105.850006104 448.75 -20 hstemhm
          hintmask 10110000
          38 hmoveto
          128.800003052 0 57.6000061035 177.399993896 258.75 0 56 -177.399993896 126.850006104 0 -244.75 732 -128.25 0 rlineto
          -35.6499938965 -448.75 rmoveto
          -82 callsubr
          endchar
        </CharString>
        <CharString name="AE">
          433 -4.30000305176 114 -97 96.3500061035 96.9499969482 105.5 -9.60000610352 114.699996948 -105.049987793 94.6999969482 214.350006104 111.399993896 -111.399993896 95.3999938965 hstemhm
          442.850006104 116 hintmask 10100001
          25.4499969482 hmoveto
          127.899993896 0 101.550003052 206 187.949996948 0 0 -85 rlineto
          0 -113 89.5999908447 -16.3000030518 67.4000091553 4 rrcurveto
          hintmask 01000001
          0 0 267.449996948 12.1000061035 36.0500030518 4.89999389648 rrcurveto
          0 96.3500061035 rlineto
          hintmask 10010001
          -282.5 0.649993896484 rlineto
          -29 -1.52587890625e-05 -33 -4.25 0 53 rrcurveto
          0 143.449996948 rlineto
          hintmask 00001001
          301.649993896 9.64999389648 0 94.6999969482 rlineto
          hintmask 00010101
          -301.649993896 10.3500061035 0 149.949996948 rlineto
          1.29998779297 27.0000152588 0 27.0500030518 49.4000091553 0 rrcurveto
          hintmask 00000011
          294.449996948 95.3999938965 hlineto
          hintmask 10100101
          -40.9499969482 5.60000610352 -274.5 10.3999938965 0 0 -102.600006104 2.44999694824 -96.8000030518 2.69999694824 -75.1499938965 -151.349990845 rrcurveto
          -7.75 -274.300003052 rmoveto
          136.600006104 281 0 -281 rlineto
          endchar
        </CharString>
        <CharString name="Aacute">
          175 0 21 156.399993896 105.850006104 428.75 20 65 136.5 hstem
          315.625 209 vstem
          38 hmoveto
          -46 callsubr
          -35.650390625 -448.75 rmoveto
          -82 callsubr
          -136.974609375 513.75 rmoveto
          -57 callsubr
          endchar
        </CharString>
        <CharString name="Abreve">
          175 0 21 156.399993896 105.850006104 428.75 20 65 54 hstem
          242.125 54 122 54 vstem
          38 hmoveto
          -46 callsubr
          -35.650390625 -448.75 rmoveto
          -82 callsubr
          -210.474609375 627.75 rmoveto
          34 callsubr
          endchar
        </CharString>
        <CharString name="Acircumflex">
          175 0 21 156.399993896 105.850006104 428.75 20 65 133.5 hstem
          205.875 302.5 vstem
          38 hmoveto
          -46 callsubr
          -35.650390625 -448.75 rmoveto
          -82 callsubr
          -246.724609375 513.75 rmoveto
          -45 callsubr
          0 vmoveto
          92 hmoveto
          endchar
        </CharString>
        <CharString name="Adieresis">
          175 0 21 156.399993896 105.850006104 428.75 20 65 111.5 hstem
          173.875 111.5 143.5 111.5 vstem
          38 hmoveto
          -46 callsubr
          -35.650390625 -448.75 rmoveto
          -82 callsubr
          -278.724609375 570 rmoveto
          -41 callsubr
          255 hmoveto
          -41 callsubr
          endchar
        </CharString>
        <CharString name="Agrave">
          175 0 21 156.399993896 105.850006104 428.75 20 65 136.5 hstem
          189.625 209 vstem
          38 hmoveto
          -46 callsubr
          -35.650390625 -448.75 rmoveto
          -82 callsubr
          -262.974609375 650.25 rmoveto
          -73 callsubr
          endchar
        </CharString>
        <CharString name="Amacron">
          175 0 21 156.399993896 105.850006104 428.75 20 65 73.5 hstem
          211.125 292 vstem
          38 hmoveto
          -46 callsubr
          -35.650390625 -448.75 rmoveto
          -82 callsubr
          -241.474609375 513.75 rmoveto
          -59 callsubr
          endchar
        </CharString>
        <CharString name="Aogonek">
          175 -183.963088989 70.5 94 20 -0.536911010742 21 156.399993896 105.850006104 428.75 20 hstemhm
          hintmask 00111000
          38 hmoveto
          -46 callsubr
          -35.650390625 -448.75 rmoveto
          -82 callsubr
          hintmask 11000000
          128.466796875 -282.712890625 rmoveto
          16 callsubr
          endchar
        </CharString>
        <CharString name="Aring">
          175 0 21 156.399993896 105.850006104 428.75 20 -1.83299255371 55.3500061035 94.299987793 55.3500061035 hstemhm
          255.625 54.3500061035 94.299987793 54.3500061035 hintmask 11100000
          38 hmoveto
          -46 callsubr
          -35.650390625 -448.75 rmoveto
          -82 callsubr
          hintmask 00011110
          -196.974609375 548.916992188 rmoveto
          -40 callsubr
          54.349609375 hmoveto
          -39 callsubr
          endchar
        </CharString>
        <CharString name="Atilde">
          175 0 21 156.399993896 105.850006104 428.75 20 65.6499938965 81.9499969482 -47.5999908447 82.6000061035 hstemhm
          hintmask 11100000
          38 hmoveto
          -46 callsubr
          -35.650390625 -448.75 rmoveto
          -82 callsubr
          hintmask 00001000
          -266.224609375 563.849609375 rmoveto
          -44 callsubr
          hintmask 00010000
          -43 callsubr
          hintmask 00001000
          -42 callsubr
          endchar
        </CharString>
        <CharString name="B">
          92 0 105.5 226.5 102 192.5 105.5 hstemhm
          67.75 116.649993896 263.850006104 114.600006104 -107.100006104 116 hintmask 11110100
          67.75 hmoveto
          296.350006104 hlineto
          154 53.6499938965 87.3000030518 123.699996948 hvcurveto
          0 100.699996948 -51.3000030518 57.6000061035 -54.8499908447 10.6999969482 rrcurveto
          hintmask 11111000
          71.3499908447 16.3999938965 25.9000091553 72.3000030518 0 69.8000030518 rrcurveto
          96.6999969482 -51 96.8000030518 -149.5 vhcurveto
          -294.600006104 hlineto
          116.649993896 -626.5 rmoveto
          226.5 176.199996948 vlineto
          hintmask 11110100
          68.25 26.8999938965 -55.1499938965 -61.0500030518 -92.75 -50.6499938965 -17.5500030518 -44.5 hvcurveto
          -176.200012207 328.5 rmoveto
          192.5 172.699996948 vlineto
          hintmask 11111000
          41.5 49.6499938965 -16.8999938965 -78.450012207 -63.0999908447 -31.8999938965 -34.0500030518 -59.25 hvcurveto
          endchar
        </CharString>
        <CharString name="C">
          65 -6 109 528 109 hstem
          46.6000061035 116 vstem
          46.6000061035 368 rmoveto
          0 -225.850006104 62.1499938965 -147.099990845 185 -1.05000305176 85.6000061035 -1.05000305176 98.1999969482 9 67.1999969482 17.5500030518 rrcurveto
          91.1999969482 vlineto
          -1.52587890625e-05 -124.649993896 -7.69999694824 -105 -121.800003052 -30.6999969482 99 164 229.350006104 41.5 35.6499938965 110.649993896 vhcurveto
          95.8500061035 0 133.149993896 -12.4499969482 1 0 rrcurveto
          91.1999969482 vlineto
          -75.6000061035 19.6499938965 -91.1999969482 10.6000061035 -84.1999969482 0 -199 0 -48.1499938965 -138 0 -234 rrcurveto
          endchar
        </CharString>
        <CharString name="Cacute">
          65 -6 109 528 109 60 136.5 hstem
          46.6000061035 116 126.649993896 209 vstem
          46.599609375 368 rmoveto
          -38 callsubr
          242.650390625 432 rmoveto
          -57 callsubr
          endchar
        </CharString>
        <CharString name="Ccaron">
          65 -6 109 528 109 60 133.5 hstem
          46.6000061035 116 22.9499969482 302.5 vstem
          46.599609375 368 rmoveto
          -38 callsubr
          138.950195312 565.5 rmoveto
          21 callsubr
          22.25 -133.5 rmoveto
          92 hmoveto
          endchar
        </CharString>
        <CharString name="Ccedilla">
          65 -175.850006104 51.6999969482 118.150009155 109 528 109 hstem
          46.6000061035 116 66.8999938965 84.5 vstem
          46.599609375 368 rmoveto
          -38 callsubr
          104.900390625 -492.150390625 rmoveto
          -37 callsubr
          endchar
        </CharString>
        <CharString name="Ccircumflex">
          65 -6 109 528 109 60 133.5 hstem
          46.6000061035 116 16.1999969482 302.5 vstem
          46.599609375 368 rmoveto
          -38 callsubr
          132.200195312 432 rmoveto
          -45 callsubr
          0 vmoveto
          92 hmoveto
          endchar
        </CharString>
        <CharString name="Cdotaccent">
          65 -6 109 528 109 61.3000030518 116 hstem
          46.6000061035 116 115.5 111 vstem
          46.599609375 368 rmoveto
          -38 callsubr
          231.5 456.299804688 rmoveto
          22 callsubr
          endchar
        </CharString>
        <CharString name="D">
          151 0 107.449996948 519.050003052 105.5 hstem
          67.75 116 321 116 vstem
          67.75 hmoveto
          296.850006104 hlineto
          183.899993896 72.25 165.5 197.5 169.949996948 -40.25 199.050003052 -215.899993896 hvcurveto
          -296.850006104 hlineto
          116 -624.550003052 rmoveto
          519.050003052 173.850006104 vlineto
          91.8499908447 55.3000030518 -60.0500030518 -202.449996948 -149.449996948 -41.3999938965 -107.100006104 -105.75 hvcurveto
          endchar
        </CharString>
        <CharString name="Dcaron">
          151 0 107.449996948 519.050003052 105.5 61.75 133.5 hstemhm
          67.75 116 -17 302.5 35.5 116 hintmask 11010100
          67.75 hmoveto
          35 callsubr
          116 -624.549804688 rmoveto
          36 callsubr
          hintmask 00101000
          -190.849609375 819.799804688 rmoveto
          21 callsubr
          22.25 -133.5 rmoveto
          92 hmoveto
          endchar
        </CharString>
        <CharString name="Dcroat">
          151 0 107.449996948 235.050003052 61 219.100006104 109.399993896 hstem
          67.75 116 319.050003052 117.949996948 vstem
          2.75 342.5 rmoveto
          65 -342.5 297.5 hlineto
          183.900390625 71.599609375 165.5 197.5 169.950195312 -39.599609375 199.049804688 -215.900390625 -39 -258.5 0 -0.650390625 hvcurveto
          -327.849609375 -65 vlineto
          181 -296.049804688 rmoveto
          235.049804688 121.5 61 -121.5 219.099609375 vlineto
          174.5 0.650390625 rlineto
          86.650390625 57.8994140625 -59.400390625 -199.849609375 -149.450195312 -38.7998046875 -107.099609375 -105.75 hvcurveto
          endchar
        </CharString>
        <CharString name="E">
          58 -3 110.75 -93.75 93.75 197.399993896 114.699996948 -105.049987793 94.6999969482 211.75 110.75 -110.75 94.75 hstemhm
          66 116 hintmask 10000010
          66 136.300003052 rmoveto
          0 -126.999984741 91.4550018311 -15.6000061035 65.5449981689 3.30000305176 rrcurveto
          hintmask 01000010
          0 0 273.800003052 12.1000061035 36.0500030518 4.89999389648 rrcurveto
          93.75 vlineto
          hintmask 10100010
          -288.850006104 hlineto
          -29 0 -32.3500061035 -1 -0.649993896484 53 rrcurveto
          0 145.399993896 rlineto
          hintmask 00010010
          -81 callsubr
          hintmask 00101010
          -80 callsubr
          hintmask 00000110
          -79 callsubr
          hintmask 10001010
          -40.950012207 5.60000610352 -278.899993896 10.3999938965 0 0 -68.2949981689 1.94999694824 -78.7050018311 -29.4790039062 0 -116.470993042 rrcurveto
          endchar
        </CharString>
        <CharString name="Eacute">
          58 -3 110.75 -93.75 93.75 197.399993896 114.699996948 -105.049987793 94.6999969482 211.75 94.75 -94.75 110.75 61.75 136.5 hstemhm
          66 116 97.6499938965 209 hintmask 1000000100000000
          66 136.299804688 rmoveto
          -36 callsubr
          hintmask 0100000100000000
          -35 callsubr
          hintmask 1010000100000000
          -34 callsubr
          hintmask 0001000100000000
          -33 callsubr
          hintmask 0010010100000000
          -32 callsubr
          hintmask 0000100100000000
          -31 callsubr
          hintmask 1000010100000000
          -30 callsubr
          hintmask 0000001010000000
          213.650390625 205.75 rmoveto
          -57 callsubr
          endchar
        </CharString>
        <CharString name="Ecaron">
          58 -3 110.75 -93.75 93.75 197.399993896 114.699996948 -105.049987793 94.6999969482 211.75 94.75 -94.75 110.75 61.75 133.5 hstemhm
          66 116 -15.4499969482 302.5 hintmask 1000000100000000
          66 136.299804688 rmoveto
          -36 callsubr
          hintmask 0100000100000000
          -35 callsubr
          hintmask 1010000100000000
          -34 callsubr
          hintmask 0001000100000000
          -33 callsubr
          hintmask 0010010100000000
          -32 callsubr
          hintmask 0000100100000000
          -31 callsubr
          hintmask 1000010100000000
          -30 callsubr
          hintmask 0000001010000000
          100.549804688 339.25 rmoveto
          21 callsubr
          22.25 -133.5 rmoveto
          92 hmoveto
          endchar
        </CharString>
        <CharString name="Ecircumflex">
          58 -3 110.75 -93.75 93.75 197.399993896 114.699996948 -105.049987793 94.6999969482 211.75 94.75 -94.75 110.75 65 133.5 hstemhm
          66 116 -16.1999969482 302.5 hintmask 1000000100000000
          66 136.299804688 rmoveto
          -36 callsubr
          hintmask 0100000100000000
          -35 callsubr
          hintmask 1010000100000000
          -34 callsubr
          hintmask 0001000100000000
          -33 callsubr
          hintmask 0010010100000000
          -32 callsubr
          hintmask 0000100100000000
          -31 callsubr
          hintmask 1000010100000000
          -30 callsubr
          hintmask 0000001010000000
          99.7998046875 209 rmoveto
          -45 callsubr
          0 vmoveto
          92 hmoveto
          endchar
        </CharString>
        <CharString name="Edieresis">
          58 -3 110.75 -93.75 93.75 197.399993896 114.699996948 -105.049987793 94.6999969482 211.75 94.75 -94.75 110.75 61.75 111.5 hstemhm
          66 116 -51.0500030518 111.5 143.5 111.5 hintmask 1000000100000000
          66 136.299804688 rmoveto
          -36 callsubr
          hintmask 0100000100000000
          -35 callsubr
          hintmask 1010000100000000
          -34 callsubr
          hintmask 0001000100000000
          -33 callsubr
          hintmask 0010010100000000
          -32 callsubr
          hintmask 0000100100000000
          -31 callsubr
          hintmask 1000010100000000
          -30 callsubr
          hintmask 0000001011000000
          64.9501953125 262 rmoveto
          -41 callsubr
          255 hmoveto
          -41 callsubr
          endchar
        </CharString>
        <CharString name="Edotaccent">
          58 -3 110.75 -93.75 93.75 197.399993896 114.699996948 -105.049987793 94.6999969482 211.75 94.75 -94.75 110.75 63.0500030518 116 hstemhm
          66 116 85.8000030518 111 hintmask 1000000100000000
          66 136.299804688 rmoveto
          -36 callsubr
          hintmask 0100000100000000
          -35 callsubr
          hintmask 1010000100000000
          -34 callsubr
          hintmask 0001000100000000
          -33 callsubr
          hintmask 0010010100000000
          -32 callsubr
          hintmask 0000100100000000
          -31 callsubr
          hintmask 1000010100000000
          -30 callsubr
          hintmask 0000001010000000
          201.799804688 230.049804688 rmoveto
          22 callsubr
          endchar
        </CharString>
        <CharString name="Egrave">
          58 -3 110.75 -93.75 93.75 197.399993896 114.699996948 -105.049987793 94.6999969482 211.75 94.75 -94.75 110.75 62.1000061035 136.5 hstemhm
          66 116 -13.3500061035 209 hintmask 1000000100000000
          66 136.299804688 rmoveto
          -36 callsubr
          hintmask 0100000100000000
          -35 callsubr
          hintmask 1010000100000000
          -34 callsubr
          hintmask 0001000100000000
          -33 callsubr
          hintmask 0010010100000000
          -32 callsubr
          hintmask 0000100100000000
          -31 callsubr
          hintmask 1000010100000000
          -30 callsubr
          hintmask 0000001010000000
          102.650390625 342.599609375 rmoveto
          -73 callsubr
          endchar
        </CharString>
        <CharString name="Emacron">
          58 -3 110.75 -93.75 93.75 197.399993896 114.699996948 -105.049987793 94.6999969482 211.75 94.75 -94.75 110.75 63.6999969482 73.5 hstemhm
          66 116 -13.5500030518 292 hintmask 1000000100000000
          66 136.299804688 rmoveto
          -36 callsubr
          hintmask 0100000100000000
          -35 callsubr
          hintmask 1010000100000000
          -34 callsubr
          hintmask 0001000100000000
          -33 callsubr
          hintmask 0010010100000000
          -32 callsubr
          hintmask 0000100100000000
          -31 callsubr
          hintmask 1000010100000000
          -30 callsubr
          hintmask 0000001010000000
          102.450195312 207.700195312 rmoveto
          -59 callsubr
          endchar
        </CharString>
        <CharString name="Eng">
          168 -257 85 193 -21 21 -21 732 -20 hstemhm
          67.75 116.350006104 327 116 hintmask 11011100
          67.75 hmoveto
          116.350006104 0 1.30000305176 513.5 rlineto
          hintmask 10111100
          325.699996948 -513.5 0 -66.5 rlineto
          0 -98.3000030518 -66.950012207 3.55000305176 -55.549987793 -10.75 rrcurveto
          -85 vlineto
          118.699996948 -4.55000305176 119.800003052 18.1999969482 0 166.350006104 rrcurveto
          0 77 0 732 -116 0 0 -510.5 -325.350006104 510.5 -118 0 rlineto
          endchar
        </CharString>
        <CharString name="Eogonek">
          58 -170.384994507 70.5 94 20 -17.1150054932 110.75 -93.75 93.75 197.399993896 114.699996948 -105.049987793 94.6999969482 211.75 94.75 -94.75 110.75 hstemhm
          66 116 hintmask 0010000010000000
          66 136.299804688 rmoveto
          -36 callsubr
          hintmask 0001000010000000
          -35 callsubr
          hintmask 0010100010000000
          -34 callsubr
          hintmask 0000010010000000
          -33 callsubr
          hintmask 0000100110000000
          -32 callsubr
          hintmask 0000001010000000
          -31 callsubr
          hintmask 0010000110000000
          -30 callsubr
          hintmask 1100000000000000
          417.241210938 -573.884765625 rmoveto
          16 callsubr
          endchar
        </CharString>
        <CharString name="Eth">
          151 0 107.449996948 235.050003052 61 219.100006104 109.399993896 hstem
          67.75 116 319.050003052 117.949996948 vstem
          2.75 342.5 rmoveto
          65 -342.5 297.5 hlineto
          183.899993896 71.6000061035 165.5 197.5 169.949996948 -39.6000061035 199.050003052 -215.899993896 -39 -258.5 0 -0.649993896484 hvcurveto
          -327.850006104 -65 vlineto
          181 -296.050003052 rmoveto
          235.050003052 121.5 61 -121.5 219.100006104 vlineto
          174.5 0.649993896484 rlineto
          86.6499938965 57.9000091553 -59.3999938965 -199.850006104 -149.449996948 -38.8000030518 -107.100006104 -105.75 hvcurveto
          endchar
        </CharString>
        <CharString name="Euro">
          106 -6 102 148.5 75 -68 61 87 74 -66 57 170 105.5 hstemhm
          97.8500061035 116 hintmask 10100110
          16.8500061035 251.5 rmoveto
          hintmask 11000110
          81 -7 rlineto
          -226 164 -24.5 77 vhcurveto
          97 0 86.049987793 9.89999389648 76.450012207 28.6000061035 rrcurveto
          84 vlineto
          0 -145.350006104 -20.5 -93.1499938965 -81.4000091553 -64.5999908447 29.5500030518 118.949996948 vhcurveto
          hintmask 10100110
          -3 2 237 5 0 0 rrcurveto
          0 61 rlineto
          hintmask 11010110
          -234 7 0 80 234 7 0 60 -234 7 rlineto
          99.5 6.79998779297 61.5 139.200012207 82 152.5 -15 0 vhcurveto
          87 vlineto
          -75.6000061035 19.6499938965 -127.899993896 13.8500061035 -52 0 rrcurveto
          -244 3 -194.5 -72 hvcurveto
          hintmask 10001110
          -81 -9 0 -57 rlineto
          hintmask 11010110
          81 -8 0 -80 rlineto
          hintmask 10100110
          -81 -7 rlineto
          endchar
        </CharString>
        <CharString name="Euro.smcp">
          8 -5 105 97.25 57.5 56 54.5 109.75 102 hstem
          74.5500030518 117 vstem
          13.5500030518 197.25 rmoveto
          61 -6 rlineto
          1.52587890625e-05 -176 134.199996948 -20.25 65.8000030518 0 65 0 92.4499969482 8.25 57.0500030518 19.75 rrcurveto
          90 vlineto
          1.52587890625e-05 0 -119.800003052 -13 -77.1999969482 0 -53.4000091553 0 -47.0999908447 15.8000030518 0 75.4499969482 -2 2 180 4 0 0 rrcurveto
          0 57.5 -178 5 0 45 178 5 0 56.5 -178 6 rlineto
          1.52587890625e-05 54.6999969482 11.0999908447 48.0500030518 89.4000091553 0 rrcurveto
          64 130 -11 0 hvcurveto
          90 vlineto
          -66.549987793 12.1000061035 -103.949996948 10.8999938965 -41 0 rrcurveto
          -194.199996948 -5.80000305176 -148.75 -56 hvcurveto
          -61 -7 0 -54.5 61 -6 0 -45 -61 -5 rlineto
          endchar
        </CharString>
        <CharString name="F">
          58 21 -21 21 -21 305.149993896 114.699996948 -105.049987793 94.6999969482 211.75 110.75 -110.75 94.75 hstemhm
          66 116 hintmask 10100010
          66 hmoveto
          116 305.149993896 hlineto
          hintmask 00010010
          -81 callsubr
          hintmask 00101010
          -80 callsubr
          hintmask 00000110
          -79 callsubr
          hintmask 10101010
          -40.950012207 5.60000610352 -278.899993896 10.3999938965 0 0 -73.1950073242 2.30000305176 -73.8049926758 -36.0500030518 0 -111.649993896 rrcurveto
          endchar
        </CharString>
        <CharString name="G">
          105 -5 109.75 202.25 99.5 -99.5 74.5 253 105.5 hstemhm
          46.6000061035 116 289.5 116 hintmask 11011100
          46.6000061035 370 rmoveto
          0 -209.899993896 31 -170.950012207 207 5.85000610352 86.5 1.75 48.5 25.6499938965 34.5 26.6000061035 rrcurveto
          29.6499938965 -49 84.3500061035 0 0 403.5 rlineto
          -24 2 -23 1 -21 0 rrcurveto
          hintmask 10111100
          -75.75 0 -56.8500061035 -9.44999694824 -41.75 -15.5500030518 rrcurveto
          -74.5 vlineto
          hintmask 11011100
          126.350006104 -156.25 hlineto
          0 0 -78.9000091553 -46.6499938965 -71.0999908447 0.649993896484 -110.75 1.30000305176 -28.75 60.25 0 201.699996948 0 188.350006104 23.799987793 78.1499938965 118.350006104 0 108.800003052 0 135.699996948 -15.5 6 0 rrcurveto
          90.5 vlineto
          -92.75 21.3999938965 -89.3000030518 9.10000610352 -89.4499969482 0 rrcurveto
          -199 -38.1499938965 -161.949996948 -208.050003052 hvcurveto
          endchar
        </CharString>
        <CharString name="Gbreve">
          105 -5 109.75 202.25 74.5 -74.5 99.5 228 105.5 60 54 hstemhm
          46.6000061035 116 52.4499969482 54 122 54 7.05000305176 116 hintmask 1011010010000000
          46.599609375 370 rmoveto
          60 callsubr
          hintmask 1101010010000000
          61 callsubr
          hintmask 1011010010000000
          62 callsubr
          hintmask 0000101100000000
          168.450195312 544 rmoveto
          63 callsubr
          endchar
        </CharString>
        <CharString name="Gcircumflex">
          105 -5 109.75 202.25 74.5 -74.5 99.5 228 105.5 60 133.5 hstemhm
          46.6000061035 116 20.75 302.5 -33.75 116 hintmask 10110101
          46.599609375 370 rmoveto
          60 callsubr
          hintmask 11010101
          61 callsubr
          hintmask 10110101
          62 callsubr
          hintmask 00001010
          136.75 430 rmoveto
          -25 callsubr
          0 vmoveto
          92 hmoveto
          endchar
        </CharString>
        <CharString name="Gcommaaccent">
          105 -269.5 38.25 226.25 109.75 202.25 74.5 -74.5 99.5 228 105.5 hstemhm
          46.6000061035 116 99.0950012207 108.899993896 -76.5 76.5 81.5050048828 116 hintmask 0101110010000000
          46.599609375 370 rmoveto
          60 callsubr
          hintmask 0110110010000000
          61 callsubr
          hintmask 0101110010000000
          62 callsubr
          hintmask 1000001000000000
          215.095703125 -537.799804688 rmoveto
          77 callsubr
          hintmask 1000000100000000
          78 callsubr
          hintmask 1000001000000000
          79 callsubr
          endchar
        </CharString>
        <CharString name="Gdotaccent">
          105 -5 109.75 202.25 74.5 -74.5 99.5 228 105.5 60 116 hstemhm
          46.6000061035 116 108.349990845 111 70.1500091553 116 hintmask 10110101
          46.599609375 370 rmoveto
          60 callsubr
          hintmask 11010101
          61 callsubr
          hintmask 10110101
          62 callsubr
          hintmask 00001010
          224.350585938 453 rmoveto
          22 callsubr
          endchar
        </CharString>
        <CharString name="H">
          128 21 -21 21 -21 299.5 109 323.5 -20 hstemhm
          67.75 116 287 116 hintmask 10111100
          67.75 hmoveto
          -78 callsubr
          endchar
        </CharString>
        <CharString name="Hbar">
          167 21 -21 21 -21 299.5 109 107.5 61 155 -20 hstemhm
          78.6000061035 116 287 116 hintmask 01111110
          16.1999969482 516 rmoveto
          62.3999938965 -516 hlineto
          hintmask 10111110
          116 299.5 287 -299.5 116 516 61.1000061035 61 -61.1000061035 155 -116 -155 -287 155 -116 hlineto
          -155 -62.3999938965 vlineto
          178.399993896 -168.5 rmoveto
          107.5 287 -107.5 vlineto
          endchar
        </CharString>
        <CharString name="Hcircumflex">
          128 0 21 278.5 109 303.5 20 65 133.5 hstemhm
          67.75 116 -7.75 302.5 -7.75 116 hintmask 11101010
          67.75 hmoveto
          -78 callsubr
          hintmask 00010100
          108.25 65 rmoveto
          -45 callsubr
          0 vmoveto
          92 hmoveto
          endchar
        </CharString>
        <CharString name="I">
          -275 21 -21 21 -21 732 -20 hstemhm
          67.75 116 hintmask 10110000
          67.75 hmoveto
          -77 callsubr
          endchar
        </CharString>
        <CharString name="Iacute">
          -275 0 21 691 20 65 136.5 hstemhm
          67.75 116 -99.5 209 hintmask 11010000
          67.75 hmoveto
          -77 callsubr
          hintmask 00101000
          16.5 65 rmoveto
          -57 callsubr
          endchar
        </CharString>
        <CharString name="Icircumflex">
          -275 0 21 691 20 65 133.5 hstemhm
          -25.5 302.5 -209.25 116 hintmask 11001000
          67.75 hmoveto
          -77 callsubr
          hintmask 00110000
          -93.25 65 rmoveto
          -45 callsubr
          0 vmoveto
          92 hmoveto
          endchar
        </CharString>
        <CharString name="Idieresis">
          -275 0 21 691 20 65 111.5 hstem
          -57.5 111.5 13.75 116 13.75 111.5 vstem
          67.75 hmoveto
          -77 callsubr
          -125.25 121.25 rmoveto
          -41 callsubr
          255 hmoveto
          -41 callsubr
          endchar
        </CharString>
        <CharString name="Idotaccent">
          -275 0 21 691 20 65 116 hstemhm
          67.75 116 -113.5 111 hintmask 11010000
          67.75 hmoveto
          -77 callsubr
          hintmask 00101000
          2.5 88 rmoveto
          22 callsubr
          endchar
        </CharString>
        <CharString name="Idotaccent.smcp">
          -292 21 -21 21 -21 636.199996948 116 hstemhm
          49.1499938965 116 -111.349990845 111 hintmask 10110000
          49.1499938965 hmoveto
          93 callsubr
          hintmask 00101000
          4.64981079102 89.2001953125 rmoveto
          22 callsubr
          endchar
        </CharString>
        <CharString name="Igrave">
          -275 0 21 691 20 65 136.5 hstemhm
          -41.75 209 -99.5 116 hintmask 11001000
          67.75 hmoveto
          -77 callsubr
          hintmask 00110000
          -109.5 201.5 rmoveto
          -73 callsubr
          endchar
        </CharString>
        <CharString name="Imacron">
          -275 0 21 691 20 65 73.5 hstemhm
          -20.25 292 -204 116 hintmask 11001000
          67.75 hmoveto
          -77 callsubr
          hintmask 00110000
          -88 65 rmoveto
          -59 callsubr
          endchar
        </CharString>
        <CharString name="Iogonek">
          -275 -184.313095093 70.5 94 20 -0.186904907227 21 691 20 hstemhm
          67.75 116 hintmask 00111000
          67.75 hmoveto
          -77 callsubr
          hintmask 11000000
          38.375 -731.813476562 rmoveto
          81 callsubr
          endchar
        </CharString>
        <CharString name="Itilde">
          -275 0 21 691 20 65.6499938965 81.9499969482 -47.5999908447 82.6000061035 hstemhm
          67.75 116 hintmask 11001000
          67.75 hmoveto
          -77 callsubr
          hintmask 00010000
          -112.75 115.099609375 rmoveto
          -44 callsubr
          hintmask 00100000
          -43 callsubr
          hintmask 00010000
          -42 callsubr
          endchar
        </CharString>
        <CharString name="J">
          -152 732 -20 hstem
          191.050003052 116 vstem
          29.75 22.3999938965 rmoveto
          52 -34 119.600006104 -4.39999389648 53 34 50 32 2.69999694824 68 0 47 rrcurveto
          567 -116 -528.149993896 vlineto
          -0.649993896484 -117.300003052 -73.1999969482 13.1499938965 -84.8499908447 11.6999969482 rrcurveto
          endchar
        </CharString>
        <CharString name="Jcircumflex">
          -152 712 20 65 133.5 hstemhm
          97.8000030518 302.5 -209.25 116 hintmask 10010000
          29.75 22.400390625 rmoveto
          52 -34 119.599609375 -4.400390625 53 34 50 32 2.7001953125 68 0 47 rrcurveto
          567 -116 -528.150390625 vlineto
          -0.6494140625 -117.299804688 -73.2001953125 13.150390625 -84.8505859375 11.7001953125 rrcurveto
          hintmask 01100000
          65.4501953125 685.599609375 rmoveto
          -45 callsubr
          0 vmoveto
          92 hmoveto
          endchar
        </CharString>
        <CharString name="K">
          106 21 -21 21 -21 312.5 105.5 314 -20 hstemhm
          67.75 112.5 hintmask 10111000
          67.75 hmoveto
          113.5 312.5 66.3000030518 hlineto
          201.649993896 -312.5 136.550003052 0 -234.149993896 365.949996948 234.149993896 366.050003052 -136.550003052 0 -201.649993896 -314 -67.3000030518 0 0 314 -112.5 0 rlineto
          endchar
        </CharString>
        <CharString name="Kcommaaccent">
          106 -264.5 38.25 226.25 21 291.5 105.5 294 20 hstemhm
          67.75 112.5 75.5449981689 108.899993896 -76.4999847412 76.5 hintmask 01111000
          67.75 hmoveto
          113.5 312.5 66.2998046875 hlineto
          201.650390625 -312.5 136.549804688 0 -234.150390625 365.950195312 234.150390625 366.049804688 -136.549804688 0 -201.650390625 -314 -67.2998046875 0 0 314 -112.5 0 rlineto
          hintmask 10000100
          188.044921875 -894.799804688 rmoveto
          75 callsubr
          hintmask 10000010
          74 callsubr
          hintmask 10000100
          82 callsubr
          endchar
        </CharString>
        <CharString name="L">
          37 0 109 623 -20 hstem
          67.75 116 vstem
          67.75 136.5 rmoveto
          -76 callsubr
          endchar
        </CharString>
        <CharString name="Lacute">
          37 0 109 603 20 65 136.5 hstemhm
          67.75 116 -99.5 209 hintmask 11010000
          67.75 136.5 rmoveto
          -76 callsubr
          hintmask 00101000
          16.5 65 rmoveto
          -57 callsubr
          endchar
        </CharString>
        <CharString name="Lcaron">
          37 0 109 623 -20 hstem
          67.75 116 67.5500030518 88 vstem
          67.75 136.5 rmoveto
          -113 71.7449951172 -23.5 74.7550048828 vhcurveto
          302.5 109 -271 hlineto
          -29 -33 -1 53 hvcurveto
          571 -116 vlineto
          183.550003052 -27 rmoveto
          17 callsubr
          endchar
        </CharString>
        <CharString name="Lcommaaccent">
          37 -262.75 38.25 224.5 109 603 20 hstemhm
          67.75 116 61.3950042725 108.899993896 -76.5 76.5 hintmask 01110000
          67.75 136.5 rmoveto
          -76 callsubr
          hintmask 10001000
          177.39453125 -893.049804688 rmoveto
          75 callsubr
          hintmask 10000100
          74 callsubr
          hintmask 10001000
          76 callsubr
          endchar
        </CharString>
        <CharString name="Lslash">
          56 0 109 623 -20 hstem
          87.6999969482 116 vstem
          7.85000610352 310.550003052 rmoveto
          79.8500061035 34.25 0 -208.300003052 rlineto
          -1.52587890625e-05 -113 71.745010376 -23.5 74.754989624 0 rrcurveto
          302.5 109 -271 hlineto
          -29.0000152588 -33 -1 53 hvcurveto
          0 233.649993896 121.850006104 52.9499969482 0.649993896484 67.3500061035 -122.5 -52.3000030518 0 269.350006104 -116 0 0 -319.199996948 -79.8500061035 -34.25 rlineto
          endchar
        </CharString>
        <CharString name="M">
          321 21 -21 21 -21 732 -20 hstemhm
          hintmask 10100000
          46.6000061035 hmoveto
          114.949996948 0 42.1000061035 528.350006104 148.5 -528.350006104 127.100006104 0 143.550003052 528.350006104 46.75 -528.350006104 114.949996948 0 -64.0500030518 732 -160.149993896 0 -145.949996948 -539.699996948 -148.449996948 539.699996948 -160.800003052 0 rlineto
          endchar
        </CharString>
        <CharString name="M.salt">
          328 21 -21 21 -21 hstemhm
          hintmask 10000000
          46.6000061035 hmoveto
          115 0 32.1999969482 592.850006104 rlineto
          1.00001525879 17 21.75 6.34999084473 3.25 -16.3499908447 rrcurveto
          82.6499938965 -346.350006104 rlineto
          19.4499816895 -107.75 195.400009155 3.44999694824 17.8499908447 103.25 rrcurveto
          73.1999969482 344.199996948 rlineto
          2.59999084473 16 23.6999969482 -1.44999694824 0.350006103516 -17 rrcurveto
          39.8000030518 -594.199996948 116.699996948 0 -44.1000061035 638 rlineto
          -3.5 125.449996948 -223.399993896 11.4000091553 -17.5500030518 -128.5 rrcurveto
          -72.8000030518 -351.850006104 rlineto
          -2.59999084473 -15.3500061035 -19.9499969482 -4 -3.90000915527 19.3500061035 rrcurveto
          -80.6000061035 349.800003052 rlineto
          -17.5500030518 129.900009155 -219.650009155 -10.3999938965 -3.14999389648 -130 rrcurveto
          endchar
        </CharString>
        <CharString name="N">
          169 21 -21 21 -21 732 -20 hstemhm
          67.75 117 327.649993896 116 hintmask 10111000
          67.75 hmoveto
          117 513.5 hlineto
          327.649993896 -513.5 116 0 0 732 -116 0 0 -517 -326.649993896 517 -118 0 rlineto
          endchar
        </CharString>
        <CharString name="N.salt">
          193 21 -21 21 -21 732 -20 hstemhm
          67.75 117 350.75 116 hintmask 10111000
          67.75 hmoveto
          117 615.949996948 hlineto
          0 16.9999847412 19.75 5.35000610352 5.25 -15.3500061035 rrcurveto
          194.449996948 -537.550003052 rlineto
          34.049987793 -140.199996948 213.25 32.5 0 131.400009155 rrcurveto
          622.899993896 -116 -611.350006104 vlineto
          0 -15 -18.1000061035 -6.69999694824 -5.89999389648 18.6999969482 rrcurveto
          -192.5 531.899993896 rlineto
          -32.6999969482 126.250015259 -218.550003052 -7.10000610352 0 -145.75 rrcurveto
          endchar
        </CharString>
        <CharString name="Nacute">
          169 0 21 691 20 65 136.5 hstemhm
          67.75 117 128.324996948 209 -9.67500305176 116 hintmask 11010100
          67.75 hmoveto
          -29 callsubr
          hintmask 00101000
          245.325195312 65 rmoveto
          -57 callsubr
          endchar
        </CharString>
        <CharString name="Nacute.salt">
          193 0 21 691 20 66.3999938965 136.5 hstem
          67.75 117 139.600006104 209 2.14999389648 116 vstem
          67.75 hmoveto
          133 callsubr
          256.599609375 175.450195312 rmoveto
          -57 callsubr
          endchar
        </CharString>
        <CharString name="Ncaron">
          169 0 21 691 20 65 133.5 hstem
          67.75 117 18.5749969482 302.5 6.57499694824 116 vstem
          67.75 hmoveto
          -29 callsubr
          135.575195312 198.5 rmoveto
          29 callsubr
          22.25 -133.5 rmoveto
          92 hmoveto
          endchar
        </CharString>
        <CharString name="Ncaron.salt">
          193 0 21 691 20 66.3999938965 133.5 hstem
          67.75 117 35.8500061035 302.5 12.3999938965 116 vstem
          67.75 hmoveto
          133 callsubr
          152.849609375 308.950195312 rmoveto
          19 callsubr
          22.25 -133.5 rmoveto
          92 hmoveto
          endchar
        </CharString>
        <CharString name="Ncommaaccent">
          169 -264.5 38.25 226.25 21 691 20 hstemhm
          67.75 117 106.345001221 108.899993896 -76.5 76.5 112.404998779 116 hintmask 01110010
          67.75 hmoveto
          -29 callsubr
          hintmask 10001000
          223.344726562 -894.799804688 rmoveto
          75 callsubr
          hintmask 10000100
          74 callsubr
          hintmask 10001000
          80 callsubr
          endchar
        </CharString>
        <CharString name="Ncommaaccent.salt">
          193 -270.800003052 38.25 232.550003052 21 691 20 hstemhm
          67.75 117 109.145004272 108.899993896 -76.5 76.5 132.705001831 116 hintmask 01110010
          67.75 hmoveto
          133 callsubr
          hintmask 10001000
          226.14453125 -792.049804688 rmoveto
          73 callsubr
          hintmask 10000100
          74 callsubr
          hintmask 10001000
          99.900390625 vlineto
          13.5 -5.400390625 10.7998046875 -16.19921875 vhcurveto
          -64.80078125 hlineto
          -14.3994140625 -8.1005859375 -8.1005859375 -16.19921875 hvcurveto
          endchar
        </CharString>
        <CharString name="Ntilde">
          169 0 21 691 20 65.6499938965 81.9499969482 -47.5999908447 82.6000061035 hstemhm
          67.75 117 327.649993896 116 hintmask 11001100
          67.75 hmoveto
          -29 callsubr
          hintmask 00010000
          109.575195312 115.099609375 rmoveto
          -28 callsubr
          hintmask 00100000
          37.05078125 0.650390625 21.6494140625 -33.05078125 51.4501953125 -1.94921875 45.150390625 -1.30078125 39.6494140625 39.650390625 29.150390625 27.7998046875 rrcurveto
          -23.400390625 53.2001953125 rlineto
          -28.5 -19.099609375 -33.599609375 -19.650390625 -29.6005859375 1.349609375 rrcurveto
          hintmask 00010000
          -32.19921875 0.650390625 -26.55078125 32.400390625 -47.8994140625 1.94921875 rrcurveto
          -46.25 0 -38.75 -33.44921875 -34.75 -34.05078125 rrcurveto
          endchar
        </CharString>
        <CharString name="Ntilde.salt">
          193 0 21 691 20 67.0500030518 81.9499969482 -47.6000061035 82.6000061035 hstemhm
          67.75 117 350.75 116 hintmask 11001100
          67.75 hmoveto
          133 callsubr
          hintmask 00010000
          131.599609375 225.549804688 rmoveto
          -24 callsubr
          hintmask 00100000
          37.0498046875 0.6494140625 21.650390625 -33.0498046875 51.4501953125 -1.9501953125 45.1494140625 -1.2998046875 39.650390625 39.650390625 29.1494140625 27.7998046875 rrcurveto
          -23.3994140625 53.2001953125 rlineto
          -28.5 -19.1005859375 -33.6005859375 -19.6494140625 -29.599609375 1.349609375 rrcurveto
          hintmask 00010000
          -32.2001953125 0.650390625 -26.5498046875 32.3994140625 -47.900390625 1.9501953125 rrcurveto
          -46.25 0 -38.75 -33.4501953125 -34.75 -34.0498046875 rrcurveto
          endchar
        </CharString>
        <CharString name="O">
          163 -4 109 523 109 hstem
          55.1999969482 116 348 116 vstem
          55.1999969482 361 rmoveto
          -1.52587890625e-05 -333 110.650009155 -32 180 0 rrcurveto
          180 109.349990845 42 323 343 -116.349990845 33 -173 -168 -122.650009155 -33 -343 hvcurveto
          116 hmoveto
          -1.52587890625e-05 257 57.4000091553 10 117.25 0 rrcurveto
          120.25 53.0999908447 -13.1499938965 -253.850006104 -216.100006104 -41.8499908447 -39.8999938965 -131.5 -137 -37.6500091553 35.3999938965 220.600006104 hvcurveto
          endchar
        </CharString>
        <CharString name="OE">
          516 -4 109 -91 93.75 197.399993896 114.699996948 -105.049987793 94.6999969482 211.75 94.75 -88 109 hstemhm
          55.1999969482 116 347.650009155 116 hintmask 10000111
          171.199996948 361 rmoveto
          -1.52587890625e-05 257 56.75 10 117.25 0 rrcurveto
          120.25 53.4000091553 -13.1499938965 -253.850006104 -216.100006104 -42.1500091553 -39.8999938965 -131.5 hvcurveto
          -137 -37 35.3999938965 220.600006104 hvcurveto
          -116 hmoveto
          -1.52587890625e-05 -333 110 -32 180 0 84.5 0 67.6999969482 9.55000305176 47.6500091553 45.3999938965 28.0500030518 -49.75 55.6999969482 -6.84999084473 47.0500030518 2.64999389648 rrcurveto
          hintmask 01100011
          0 0 267.449996948 12.1000061035 36.0500030518 4.89999389648 rrcurveto
          93.75 -282.5 vlineto
          -29 0 -32.3500061035 -1 -0.649993896484 53 rrcurveto
          0 145.399993896 rlineto
          hintmask 00010011
          301 9.64999389648 0 94.6999969482 rlineto
          hintmask 00101011
          -301 10.3500061035 0 145.399993896 rlineto
          27 0 29 52 vhcurveto
          292.5 94.75 hlineto
          -40.950012207 5.60000610352 -272.549987793 10.3999938965 0 0 -47.8500061035 2.64999389648 -45.3000030518 -15.0999908447 -24.25 -41.1500091553 rrcurveto
          hintmask 10000111
          -49 50.3500061035 -70.0500030518 8.25 -84.1999969482 0 rrcurveto
          -168 -122 -33 -343 hvcurveto
          endchar
        </CharString>
        <CharString name="Oacute">
          163 -4 109 523 109 60 136.5 hstem
          55.1999969482 116 133.150009155 209 5.84999084473 116 vstem
          55.2001953125 361 rmoveto
          -27 callsubr
          116 hmoveto
          -26 callsubr
          133.149414062 436 rmoveto
          -57 callsubr
          endchar
        </CharString>
        <CharString name="Ocircumflex">
          163 -4 109 523 109 60 133.5 hstem
          55.1999969482 116 23.4000091553 302.5 22.0999908447 116 vstem
          55.2001953125 361 rmoveto
          -27 callsubr
          116 hmoveto
          -26 callsubr
          23.3994140625 436 rmoveto
          -25 callsubr
          0 vmoveto
          92 hmoveto
          endchar
        </CharString>
        <CharString name="Odieresis">
          163 -4 109 523 109 60 111.5 hstemhm
          55.1999969482 116 -8.59999084473 111.5 143.5 111.5 -9.90000915527 116 hintmask 11010010
          55.2001953125 361 rmoveto
          -27 callsubr
          116 hmoveto
          -26 callsubr
          hintmask 00101100
          -8.6005859375 492.25 rmoveto
          -22 callsubr
          255 hmoveto
          -22 callsubr
          endchar
        </CharString>
        <CharString name="Ograve">
          163 -4 109 523 109 60 136.5 hstem
          55.1999969482 116 7.15000915527 209 131.849990845 116 vstem
          55.2001953125 361 rmoveto
          -27 callsubr
          116 hmoveto
          -26 callsubr
          7.1494140625 572.5 rmoveto
          -73 callsubr
          endchar
        </CharString>
        <CharString name="Ohungarumlaut">
          163 -4 109 523 109 60 136.5 hstem
          55.1999969482 116 348 116 vstem
          55.2001953125 361 rmoveto
          -27 callsubr
          116 hmoveto
          -26 callsubr
          59 436 rmoveto
          -57 callsubr
          51.7998046875 -136.5 rmoveto
          -57 callsubr
          endchar
        </CharString>
        <CharString name="Omacron">
          163 -4 109 523 109 60 73.5 hstem
          55.1999969482 116 28.6500091553 292 27.3499908447 116 vstem
          55.2001953125 361 rmoveto
          -27 callsubr
          116 hmoveto
          -26 callsubr
          28.6494140625 436 rmoveto
          -59 callsubr
          endchar
        </CharString>
        <CharString name="Omega">
          260 0 98.5 531.5 109 hstem
          54.8500061035 116 422.5 116 vstem
          54.8500061035 391.5 rmoveto
          0 -112 8.34999084473 -94.1499938965 116.650009155 -75.8500061035 rrcurveto
          -119 -10 0 -99.5 234 0 0 109.5 rlineto
          -117.900009155 97.1000061035 -6.09999084473 57.1499938965 0 116.25 rrcurveto
          120.699996948 38.75 129.300003052 175.5 172 36.25 -128 -117 vhcurveto
          0 -117.600006104 -9.10000610352 -77.1999969482 -111.899993896 -80.6999969482 rrcurveto
          -109.5 242 98.5 vlineto
          -114 10 rlineto
          93.5 74.6000061035 15.5 86.3999938965 0 117 rrcurveto
          182 -76.25 170.5 -248 -262 -68.25 -193.5 -154 vhcurveto
          endchar
        </CharString>
        <CharString name="Oslash">
          169 -4 109 523 109 hstem
          58.3500061035 116 348 116 vstem
          58.3500061035 361 rmoveto
          0 -142.350006104 19.6499938965 -86.5999908447 36.8999938965 -53.3500061035 rrcurveto
          -52.6999969482 -78.6999969482 69.75 0 24.4499969482 36.1000061035 rlineto
          48.75 -34.1000061035 64.8000030518 -6 78.4000091553 0 180 0 110 42 0 323 0 153.850006104 -23.700012207 91.299987793 -41.6499938965 54.3500061035 rrcurveto
          48.1999969482 71.5 -69.75 0 -21.3500061035 -31.6499938965 rlineto
          -48.0500030518 31.299987793 -62.0500030518 5.35000610352 -71.6499938965 0 -170.600006104 0 -119.399993896 -33 0 -343 rrcurveto
          116 hmoveto
          257 56.75 10 117.25 vhcurveto
          49.8999938965 0 38.9499969482 -1.39999389648 27.6999969482 -21.1500091553 rrcurveto
          -270.050003052 -410.600006104 rlineto
          -14.6500091553 34.9499969482 -5.84999084473 51.8999938965 0 79.3000030518 rrcurveto
          49.9499969482 -225.300003052 rmoveto
          274.199996948 415.850006104 rlineto
          16.3500061035 -38.3999938965 7.5 -59.049987793 0 -93.1000061035 0 -216.100006104 -42.5 -39.8999938965 -131.5 0 -58 0 -39 6.69999694824 -27.0500030518 24 rrcurveto
          endchar
        </CharString>
        <CharString name="Otilde">
          163 -4 109 523 109 60.6499938965 81.9499969482 -47.5999908447 82.6000061035 hstemhm
          55.1999969482 116 348 116 hintmask 11001100
          55.2001953125 361 rmoveto
          -27 callsubr
          116 hmoveto
          -26 callsubr
          hintmask 00010000
          3.8994140625 486.099609375 rmoveto
          -24 callsubr
          hintmask 00100000
          -23 callsubr
          hintmask 00010000
          -42 callsubr
          endchar
        </CharString>
        <CharString name="P">
          85 21 -21 21 -21 280.5 105.5 -85.5 85.5 239.5 106.5 hstemhm
          54.3999938965 116 269.600006104 117 hintmask 10011110
          54.3999938965 hmoveto
          116 300.5 hlineto
          hintmask 10101110
          5 -3 148.75 -15.9499969482 40 -1.05000305176 80.3000030518 -2.44999694824 112.550003052 15.0999908447 0 218.100006104 rrcurveto
          190.550003052 -105.800003052 30.1999969482 -87.0500030518 vhcurveto
          -309.75 hlineto
          hintmask 00011110
          116 -346 rmoveto
          239.5 186.75 vlineto
          35 0 46.5500030518 -12.6499938965 1.30000305176 -102.650009155 rrcurveto
          hintmask 00101110
          -104.300003052 -35.75 -19.8999938965 -47.1000061035 vhcurveto
          endchar
        </CharString>
        <CharString name="Q">
          163 -159.25 101 54.25 109 523 109 hstem
          55.1999969482 116 348 116 vstem
          55.1999969482 361 rmoveto
          -1.52587890625e-05 -333 109.350006104 -32 180 0 180 0.699996948242 110.649993896 41.3000030518 0 323 rrcurveto
          343 -117.649993896 33 -173 -170.600006104 -118.75 -33 -343 vhcurveto
          116 hmoveto
          -1.52587890625e-05 257 56.1000061035 10 117.25 0 rrcurveto
          120.25 54.3999938965 -13.1499938965 -253.850006104 -216.100006104 -43.1499938965 -39.8999938965 -131.5 -137 -36.3500061035 35.3999938965 220.600006104 hvcurveto
          134.949996948 -394 rmoveto
          10.75 -117.850006104 133.050003052 -32.25 90.1999969482 23.8500061035 rrcurveto
          101 vlineto
          -58.6999969482 -17.8500061035 -63.3999938965 -6.84999084473 -42.4000091553 49.9499969482 rrcurveto
          endchar
        </CharString>
        <CharString name="R">
          93 21 -21 21 -21 299 94 232.5 106.5 hstemhm
          54.3999938965 116 272.5 117 hintmask 10111100
          54.3999938965 hmoveto
          116 299 hlineto
          151 -14 133 -285 129.350006104 0 -144.199996948 293.25 rlineto
          36.0500183105 9.60000610352 84.299987793 19.5 0 184.399993896 rrcurveto
          171.600006104 -81 53.6499938965 -107.25 vhcurveto
          -317.25 hlineto
          116.350006104 -339 rmoveto
          232.5 192.149993896 vlineto
          44 36 -18.1999969482 -100.550003052 -104.649993896 -32.25 -9.10000610352 -47.75 hvcurveto
          endchar
        </CharString>
        <CharString name="Racute">
          93 0 21 278 94 232.5 106.5 61.75 136.5 hstemhm
          54.3999938965 116 87.3500061035 209 -23.8500061035 117 hintmask 11101010
          54.400390625 hmoveto
          32 callsubr
          116.349609375 -339 rmoveto
          33 callsubr
          hintmask 00010100
          -105.150390625 400.75 rmoveto
          -57 callsubr
          endchar
        </CharString>
        <CharString name="Rcaron">
          93 0 21 278 94 232.5 106.5 65 133.5 hstemhm
          54.3999938965 116 -23.0999908447 302.5 -6.90000915527 117 hintmask 11101010
          54.400390625 hmoveto
          32 callsubr
          116.349609375 -339 rmoveto
          33 callsubr
          hintmask 00010100
          -215.600585938 537.5 rmoveto
          21 callsubr
          22.25 -133.5 rmoveto
          92 hmoveto
          endchar
        </CharString>
        <CharString name="Rcommaaccent">
          93 -262.050003052 38.25 223.800003052 21 278 94 232.5 106.5 hstemhm
          54.3999938965 116 74.1950073242 108.899993896 -76.5 76.5 89.4049987793 117 hintmask 01111001
          54.400390625 hmoveto
          32 callsubr
          116.349609375 -339 rmoveto
          33 callsubr
          hintmask 10000100
          -118.305664062 -553.349609375 rmoveto
          73 callsubr
          hintmask 10000010
          74 callsubr
          hintmask 10000100
          99.900390625 vlineto
          13.5 -5.400390625 10.7998046875 -16.2001953125 vhcurveto
          -64.7998046875 hlineto
          -14.3994140625 -8.1005859375 -8.1005859375 -16.19921875 hvcurveto
          endchar
        </CharString>
        <CharString name="S">
          79 -8 109 201.75 116 210.25 109 hstem
          55.1999969482 116 263.350006104 116 vstem
          55.1999969482 488.75 rmoveto
          -1.52587890625e-05 -71.0500030518 14.5 -114.949996948 170.5 0 rrcurveto
          122.5 hlineto
          57.6499938965 14.1999969482 -31.8999938965 -47.200012207 hvcurveto
          -49.8000030518 vlineto
          1.52587890625e-05 -67.700012207 -62.1500091553 -5.14999389648 -41.6999969482 0 -93 0 -120.149993896 7 -40 4 rrcurveto
          -91.8500061035 vlineto
          64.9000091553 -17.0999908447 108.449996948 -11.0500030518 97.3000030518 0 rrcurveto
          99 103.350006104 27.6000061035 157.399993896 hvcurveto
          55.75 vlineto
          1.52587890625e-05 81.3000030518 -27.1999969482 104.699996948 -139.650009155 0 rrcurveto
          -125.199996948 hlineto
          -57.8999938965 -29.4000091553 10.5 70 hvcurveto
          46.75 vlineto
          -1.52587890625e-05 79.6999969482 42.1000061035 5.25 64.3999938965 -1.94999694824 23.1000061035 0 159.399993896 -4.94999694824 64 -5.05000305176 rrcurveto
          91.8500061035 vlineto
          -50.6000061035 12.6999969482 -134.150009155 15.8499908447 -86.25 -1.39999389648 -112 -1.05000305176 -86 -38.9499969482 0 -145 rrcurveto
          endchar
        </CharString>
        <CharString name="Sacute">
          79 -8 109 201.75 116 210.25 109 60.2969970703 136.5 hstemhm
          55.1999969482 116 93.8040008545 209 -39.453994751 116 hintmask 11101010
          55.2001953125 488.75 rmoveto
          18 callsubr
          hintmask 00010100
          209.803710938 245.296875 rmoveto
          -57 callsubr
          endchar
        </CharString>
        <CharString name="Scaron">
          79 -8 109 201.75 116 210.25 109 60.2969970703 133.5 hstemhm
          55.1999969482 116 -14.470993042 302.5 -24.6790008545 116 hintmask 11101010
          55.2001953125 488.75 rmoveto
          18 callsubr
          hintmask 00010100
          101.528320312 378.796875 rmoveto
          19 callsubr
          22.25 -133.5 rmoveto
          92 hmoveto
          endchar
        </CharString>
        <CharString name="Scedilla">
          79 -183.800003052 51.6999969482 124.100006104 109 201.75 116 210.25 109 hstem
          55.1999969482 116 102.800003052 84.5 76.0500030518 116 vstem
          55.2001953125 488.75 rmoveto
          18 callsubr
          140.799804688 -685.099609375 rmoveto
          20 callsubr
          endchar
        </CharString>
        <CharString name="Scircumflex">
          79 -8 109 201.75 116 210.25 109 60.2969970703 133.5 hstemhm
          55.1999969482 116 -11.720993042 302.5 -27.4290008545 116 hintmask 11101010
          55.2001953125 488.75 rmoveto
          18 callsubr
          hintmask 00010100
          104.278320312 245.296875 rmoveto
          -25 callsubr
          0 vmoveto
          92 hmoveto
          endchar
        </CharString>
        <CharString name="T">
          79 21 -21 21 -21 623 109 hstemhm
          239.75 116 hintmask 10110000
          36.25 623 rmoveto
          -75 callsubr
          endchar
        </CharString>
        <CharString name="Tbar">
          73 21 -21 21 -21 376 61 186 109 hstemhm
          230.100006104 116 hintmask 10111000
          26.6000061035 623 rmoveto
          203.5 -186 -106 -61 106 -376 116 376 106 61 -106 186 209.5 109 -529 hlineto
          endchar
        </CharString>
        <CharString name="Tcaron">
          79 0 21 602 109 65 133.5 hstemhm
          143 302.5 -205.75 116 hintmask 11001000
          36.25 623 rmoveto
          -75 callsubr
          hintmask 00110000
          106.75 198.5 rmoveto
          21 callsubr
          22.25 -133.5 rmoveto
          92 hmoveto
          endchar
        </CharString>
        <CharString name="Tcommaaccent">
          79 -184.300003052 51.6999969482 132.600006104 21 602 109 hstemhm
          202.199996948 84.5 -46.9499969482 116 hintmask 01101000
          36.25 623 rmoveto
          -75 callsubr
          hintmask 10010000
          87.9501953125 -864.599609375 rmoveto
          -51.7001953125 54.5 vlineto
          84.2001953125 23.7998046875 37.5 102 hvcurveto
          -84.5 hlineto
          0 -38 -2.6005859375 -22.7998046875 -28 -12 rrcurveto
          endchar
        </CharString>
        <CharString name="Thorn">
          41 21 -21 21 -21 149 105.5 227.350006104 106.149993896 hstemhm
          50.8999938965 116 224.5 117 hintmask 10111100
          50.8999938965 hmoveto
          116 168 hlineto
          98.25 -22.9499969482 16.700012207 3.25 50.549987793 0.699996948242 74 1.05000305176 102 20.9499969482 0 204 0 179 -97 33.3500061035 -79 0.649993896484 rrcurveto
          -165.5 141 -116 hlineto
          116 -474.5 rmoveto
          227.350006104 137.5 vlineto
          36.75 0 48.950012207 -3.60000610352 1.29998779297 -103 0 -105.699996948 -35 -15.6999969482 -52 0.649993896484 rrcurveto
          endchar
        </CharString>
        <CharString name="U">
          160 -5 109 628 -20 hstem
          67.75 116 318 117 vstem
          67.75 320 rmoveto
          -333 142 8 136 121 152 2 323 vhcurveto
          412 -117 -412 vlineto
          -193.350006104 -60.5 -22.6499938965 -95.5 -109.300003052 -52.6999969482 16.0500030518 199.949996948 vhcurveto
          412 -116 vlineto
          endchar
        </CharString>
        <CharString name="Uacute">
          160 -5 109 608 20 65 136.5 hstemhm
          67.75 116 118 209 -9 117 hintmask 11010100
          67.75 320 rmoveto
          -21 callsubr
          hintmask 00101000
          234 65 rmoveto
          -57 callsubr
          endchar
        </CharString>
        <CharString name="Ubreve">
          160 -5 109 608 20 65 54 hstem
          67.75 116 44.5 54 122 54 43.5 117 vstem
          67.75 320 rmoveto
          -21 callsubr
          160.5 179 rmoveto
          34 callsubr
          endchar
        </CharString>
        <CharString name="Ucircumflex">
          160 -5 109 608 20 65 133.5 hstem
          67.75 116 8.25 302.5 7.25 117 vstem
          67.75 320 rmoveto
          -21 callsubr
          124.25 65 rmoveto
          -45 callsubr
          0 vmoveto
          92 hmoveto
          endchar
        </CharString>
        <CharString name="Udieresis">
          160 -5 109 608 20 65 111.5 hstemhm
          67.75 116 -23.75 111.5 143.5 111.5 -24.75 117 hintmask 11010010
          67.75 320 rmoveto
          -21 callsubr
          hintmask 00101100
          92.25 121.25 rmoveto
          -41 callsubr
          255 hmoveto
          -41 callsubr
          endchar
        </CharString>
        <CharString name="Ugrave">
          160 -5 109 608 20 65 136.5 hstemhm
          67.75 116 -8 209 117 117 hintmask 11010100
          67.75 320 rmoveto
          -21 callsubr
          hintmask 00101000
          108 201.5 rmoveto
          -73 callsubr
          endchar
        </CharString>
        <CharString name="Uhungarumlaut">
          160 -5 109 608 20 65 136.5 hstem
          67.75 116 318 117 vstem
          67.75 320 rmoveto
          -21 callsubr
          159.849609375 65 rmoveto
          -57 callsubr
          51.80078125 -136.5 rmoveto
          -57 callsubr
          endchar
        </CharString>
        <CharString name="Umacron">
          160 -5 109 608 20 65 73.5 hstem
          67.75 116 13.5 292 12.5 117 vstem
          67.75 320 rmoveto
          -21 callsubr
          129.5 65 rmoveto
          -59 callsubr
          endchar
        </CharString>
        <CharString name="Uogonek">
          160 -187.100006104 70.5 94 20 -2.39999389648 109 608 20 hstemhm
          67.75 116 318 117 hintmask 00111100
          67.75 320 rmoveto
          -21 callsubr
          hintmask 11000000
          250.549804688 -734.599609375 rmoveto
          -145.099609375 -68.900390625 91.7001953125 -137.900390625 109.399414062 22.30078125 rrcurveto
          70.5 vlineto
          -63.9501953125 -0.80078125 -23.44921875 52.05078125 80.8994140625 62.75 rrcurveto
          endchar
        </CharString>
        <CharString name="Uring">
          160 -5 109 608 20 65 55.3500061035 94.299987793 55.3500061035 hstem
          67.75 116 58 54.3500061035 94.299987793 54.3500061035 57 117 vstem
          67.75 320 rmoveto
          -21 callsubr
          174 167 rmoveto
          -40 callsubr
          54.349609375 hmoveto
          -39 callsubr
          endchar
        </CharString>
        <CharString name="Utilde">
          160 -5 109 608 20 62.3999938965 81.9499969482 -47.5999908447 82.6000061035 hstemhm
          67.75 116 318 117 hintmask 11001100
          67.75 320 rmoveto
          -21 callsubr
          hintmask 00010000
          104.424804688 111.849609375 rmoveto
          -24 callsubr
          hintmask 00100000
          83 callsubr
          hintmask 00010000
          -42 callsubr
          endchar
        </CharString>
        <CharString name="V">
          171 21 -21 21 -21 732 -20 hstemhm
          hintmask 10100000
          38 732 rmoveto
          239.5 -732 130 0 251.5 732 -124.050003052 0 -191.449996948 -572 -181.449996948 572 rlineto
          endchar
        </CharString>
        <CharString name="W">
          472 21 -21 21 -21 732 -20 hstemhm
          hintmask 10100000
          38 732 rmoveto
          239.5 -732 130 0 99.3000030518 326.75 112.5 -326.75 130 0 211.5 732 -124.050003052 0 -153.399993896 -568.75 -122.149993896 363.449996948 57.1499938965 205.300003052 -126 0 -149.5 -564.850006104 -180.800003052 564.850006104 rlineto
          endchar
        </CharString>
        <CharString name="Wacute">
          472 0 21 691 20 61.75 136.5 hstem
          464.725006104 209 vstem
          38 732 rmoveto
          129 callsubr
          302.674804688 61.75 rmoveto
          -57 callsubr
          endchar
        </CharString>
        <CharString name="Wcircumflex">
          472 0 21 691 20 61.75 133.5 hstem
          357.449996948 302.5 vstem
          38 732 rmoveto
          129 callsubr
          195.400390625 61.75 rmoveto
          -45 callsubr
          0 vmoveto
          92 hmoveto
          endchar
        </CharString>
        <CharString name="Wdieresis">
          472 0 21 691 20 61.75 111.5 hstem
          320.199996948 111.5 143.5 111.5 vstem
          38 732 rmoveto
          129 callsubr
          158.150390625 118 rmoveto
          -41 callsubr
          255 hmoveto
          -41 callsubr
          endchar
        </CharString>
        <CharString name="Wgrave">
          472 0 21 691 20 61.75 136.5 hstem
          338.074996948 209 vstem
          38 732 rmoveto
          129 callsubr
          176.025390625 198.25 rmoveto
          -73 callsubr
          endchar
        </CharString>
        <CharString name="X">
          116 21 -21 21 -21 732 -20 hstemhm
          hintmask 10100000
          38 732 rmoveto
          215.5 -363.800003052 -212.5 -368.199996948 127.899993896 0 150.75 268.800003052 151.350006104 -268.800003052 127.899993896 0 -213.449996948 368.199996948 218.449996948 363.800003052 -127.899993896 0 -156.350006104 -270.600006104 -153.75 270.600006104 rlineto
          endchar
        </CharString>
        <CharString name="X.salt">
          131 21 -21 21 -21 732 -20 hstemhm
          hintmask 10100000
          16.8500061035 hmoveto
          128.100006104 0 149 275.949996948 rlineto
          25.9999847412 43.549987793 -12.9499969482 124.5 -26.0500030518 43 rrcurveto
          -139.5 245 -124.600006104 0 150.5 -275 rlineto
          33.8999938965 -63.5 8.60000610352 -26.8000030518 -32.5 -61.6999969482 rrcurveto
          168.699996948 -29.0500030518 rmoveto
          149.350006104 -275.949996948 128.100006104 0 -160.5 305 rlineto
          -32.5 61.6999969482 8.60000610352 26.8000030518 33.8999938965 63.5 rrcurveto
          150.5 275 -124.600006104 0 -139.850006104 -245 rlineto
          -25.6999816895 -42.3000030518 -13.3000030518 -125.199996948 26 -43.5500030518 rrcurveto
          endchar
        </CharString>
        <CharString name="Y">
          138 21 -21 21 -21 732 -20 hstemhm
          264.699996948 116 hintmask 10110000
          38 732 rmoveto
          226.699996948 -493 0 -239 116 0 0 239 245.300003052 493 -126.5 0 -175.399993896 -363 -159.600006104 363 rlineto
          endchar
        </CharString>
        <CharString name="Yacute">
          138 0 21 691 20 65 136.5 hstemhm
          264.699996948 116 -90.1999969482 209 hintmask 11010000
          38 732 rmoveto
          -20 callsubr
          hintmask 00101000
          126 65 rmoveto
          -57 callsubr
          endchar
        </CharString>
        <CharString name="Ycircumflex">
          138 0 21 691 20 61.75 133.5 hstemhm
          174.25 302.5 -212.050003052 116 hintmask 11001000
          38 732 rmoveto
          -20 callsubr
          hintmask 00110000
          9.75 61.75 rmoveto
          -45 callsubr
          0 vmoveto
          92 hmoveto
          endchar
        </CharString>
        <CharString name="Ydieresis">
          138 0 21 691 20 65 111.5 hstem
          148.75 111.5 4.44999694824 116 23.0500030518 111.5 vstem
          38 732 rmoveto
          -20 callsubr
          -15.75 121.25 rmoveto
          -41 callsubr
          255 hmoveto
          -41 callsubr
          endchar
        </CharString>
        <CharString name="Ygrave">
          138 0 21 691 20 65 136.5 hstemhm
          164.5 209 -108.800003052 116 hintmask 11001000
          38 732 rmoveto
          -20 callsubr
          hintmask 00110000
          201.5 vmoveto
          -73 callsubr
          endchar
        </CharString>
        <CharString name="Z">
          50 0 109 514 109 hstem
          29.75 hmoveto
          -74 callsubr
          endchar
        </CharString>
        <CharString name="Zacute">
          50 0 109 514 109 65 136.5 hstem
          238.25 209 vstem
          29.75 hmoveto
          -74 callsubr
          208.5 688 rmoveto
          -57 callsubr
          endchar
        </CharString>
        <CharString name="Zcaron">
          50 0 109 514 109 65 133.5 hstem
          128.5 302.5 vstem
          29.75 hmoveto
          -74 callsubr
          98.75 821.5 rmoveto
          21 callsubr
          22.25 -133.5 rmoveto
          92 hmoveto
          endchar
        </CharString>
        <CharString name="Zdotaccent">
          50 0 109 514 109 65 116 hstem
          224.25 111 vstem
          29.75 hmoveto
          -74 callsubr
          194.5 711 rmoveto
          22 callsubr
          endchar
        </CharString>
        <CharString name="a">
          10 -6 98.5 352 96.5 hstem
          33.6999969482 116 211.350006104 116 vstem
          33.6999969482 131.949996948 rmoveto
          -1.52587890625e-05 -74.8500061035 52.3000030518 -61.3500061035 91.5500030518 -1.75 84.6999969482 -1.05000305176 94.3500061035 60.1999969482 4.44999694824 7.35000610352 rrcurveto
          25.6499938965 -60.5 90.3500061035 0 0 376.5 rlineto
          1.52587890625e-05 123.649993896 -74.9000091553 41.5 -102.949996948 -0.649993896484 -99 -0.649993896484 -78.8499908447 -8.30000305176 -70.3000030518 -24.5500030518 rrcurveto
          -74.6499938965 vlineto
          63.0500183105 4.54998779297 116.399993896 7.10000610352 55.5500030518 0 46.5 0 28.5 -13.3000030518 0 -58.1999969482 1 -1 -1 -45 0 0 rrcurveto
          -1 -180 1 0 -102.600006104 -44.75 -62.8000030518 -78.25 vhcurveto
          116 -39.5500030518 rmoveto
          34.6000061035 vlineto
          -1.52587890625e-05 26.3999938965 9.69999694824 27.950012207 39.1500091553 3.64999389648 rrcurveto
          162.5 12.1499938965 0 -113.949996948 rlineto
          1.52587890625e-05 -1.52587890625e-05 -91.9499969482 -44.6999969482 -66.3500061035 0 rrcurveto
          -28.75 -24.3000030518 8.35000610352 45.549987793 hvcurveto
          endchar
        </CharString>
        <CharString name="a.salt">
          25 0 95 150.300003052 75.1999969482 120.100006104 96.3999938965 hstem
          42.3000030518 116 218 116 vstem
          42.3000030518 138 rmoveto
          1.52587890625e-05 -113 73.8999938965 -25 77.1000061035 0 rrcurveto
          144 hlineto
          106.000015259 49 51.6499938965 111.350006104 hvcurveto
          99 vlineto
          1.52587890625e-05 191.199996948 -31.4499969482 83.1500091553 -151.550003052 0.649993896484 -107.050003052 0.649993896484 -62 -11.5999908447 -86.9499969482 -22.1999969482 rrcurveto
          -75.25 vlineto
          92.450012207 7.09999084473 63.6999969482 4.90000915527 61.8500061035 0 81.1999969482 0.649993896484 23.8000030518 -15 0 -105.75 rrcurveto
          -183 hlineto
          -121.899993896 -29.0999908447 -55.5 -77 hvcurveto
          116 -43 rmoveto
          43 vlineto
          1.52587890625e-05 30.1999969482 13.3999938965 12.6500091553 39.1000061035 2.64999389648 rrcurveto
          165.5 11.8000030518 0 -85.1000061035 rlineto
          1.52587890625e-05 -41.1000061035 -8.15000915527 -24.1000061035 -56.049987793 0 rrcurveto
          -100.949996948 hlineto
          -46.8499908447 -6 19 31 hvcurveto
          endchar
        </CharString>
        <CharString name="a.smcp">
          92 21 -21 21 -21 129.25 98.5 hstemhm
          hintmask 10100000
          29.75 hmoveto
          123 0 50 129.25 199.300003052 0 46.6999969482 -129.25 123 0 -196.5 570 -133.5 0 rlineto
          -6.19999694824 -342.25 rmoveto
          71.9499969482 194.25 65.6999969482 -194.25 rlineto
          endchar
        </CharString>
        <CharString name="a.superior">
          -137 374 73.8999938965 215.600006104 75.1499938965 hstem
          26.1000061035 87.1999969482 134.949996948 91.3999938965 vstem
          26.1000061035 465.100006104 rmoveto
          0 -50.3000030518 40.299987793 -39.75 64.25 -1.05000305176 55.5 -0.699996948242 59.3500061035 45.3000030518 3.39999389648 5.59999084473 rrcurveto
          24.1499938965 -46.1999969482 66.6000061035 0 0 251 rlineto
          0 82.1000061035 -56.1499938965 28.1999969482 -77.0500030518 -0.650009155273 -71.5500030518 -1.94999694824 -42 -4.34999084473 -54.799987793 -19.1500091553 rrcurveto
          -57.3999938965 vlineto
          48.75 3.25001525879 57.25 4.44999694824 49.4499969482 0 34.5 0 20.1999969482 -7.75 0 -36.3000030518 1 -1 -1 -20.5500030518 0 0 rrcurveto
          -1 -115.149993896 0.350006103516 0 -73.9000091553 -33.0999908447 -41.25 -51.8999938965 vhcurveto
          87.1999969482 -22.5 rmoveto
          18.9499969482 vlineto
          1.52587890625e-05 16.5000152588 7.09999084473 16.9499969482 28.1500091553 2.64999389648 rrcurveto
          99.6999969482 9.5 0 -68.5 rlineto
          0 -47.3999938965 -29.75 -49.5 -21.450012207 -16.5999908447 6.5 27.200012207 vhcurveto
          endchar
        </CharString>
        <CharString name="aacute">
          10 -6 98.5 352 96.5 60 136.5 hstemhm
          33.6999969482 116 72.5749969482 209 -70.2249908447 116 hintmask 11010100
          33.7001953125 131.950195312 rmoveto
          -19 callsubr
          116 -39.5498046875 rmoveto
          -18 callsubr
          hintmask 00101000
          72.5751953125 454.599609375 rmoveto
          -57 callsubr
          endchar
        </CharString>
        <CharString name="aacute.salt">
          25 0 95 150.300003052 75.1999969482 120.100006104 96.3999938965 60.0343933105 136.5 hstemhm
          42.3000030518 116 71.5299987793 209 -62.5299987793 116 hintmask 11101010
          42.2998046875 138 rmoveto
          136 callsubr
          116 -43 rmoveto
          137 callsubr
          hintmask 00010100
          71.5302734375 452.034179688 rmoveto
          -57 callsubr
          endchar
        </CharString>
        <CharString name="aacute.smcp">
          92 0 21 108.25 98.5 402.25 136.5 hstem
          267 209 vstem
          29.75 hmoveto
          100 callsubr
          -6.2001953125 -342.25 rmoveto
          101 callsubr
          -106.200195312 402.25 rmoveto
          -57 callsubr
          endchar
        </CharString>
        <CharString name="abreve">
          10 -6 98.5 352 96.5 60 54 hstemhm
          33.6999969482 116 6.55000305176 54 122 54 -25.1999969482 116 hintmask 11010010
          33.7001953125 131.950195312 rmoveto
          -19 callsubr
          116 -39.5498046875 rmoveto
          -18 callsubr
          hintmask 00101100
          6.5498046875 568.599609375 rmoveto
          34 callsubr
          endchar
        </CharString>
        <CharString name="abreve.salt">
          25 0 95 150.300003052 75.1999969482 120.100006104 96.3999938965 60.0343933105 54 hstemhm
          42.3000030518 116 0.304992675781 54 122 54 -12.3049926758 116 hintmask 11101001
          42.2998046875 138 rmoveto
          136 callsubr
          116 -43 rmoveto
          137 callsubr
          hintmask 00010110
          0.3056640625 566.034179688 rmoveto
          34 callsubr
          endchar
        </CharString>
        <CharString name="abreve.smcp">
          92 0 21 108.25 98.5 402.25 54 hstem
          193.5 54 122 54 vstem
          29.75 hmoveto
          100 callsubr
          -6.2001953125 -342.25 rmoveto
          101 callsubr
          -179.700195312 516.25 rmoveto
          34 callsubr
          endchar
        </CharString>
        <CharString name="acircumflex">
          10 -6 98.5 352 96.5 60 133.5 hstemhm
          33.6999969482 116 -36.1999969482 302.5 -54.9499969482 116 hintmask 11010100
          33.7001953125 131.950195312 rmoveto
          -19 callsubr
          116 -39.5498046875 rmoveto
          -18 callsubr
          hintmask 00101000
          -36.2001953125 454.599609375 rmoveto
          -45 callsubr
          0 vmoveto
          92 hmoveto
          endchar
        </CharString>
        <CharString name="acircumflex.salt">
          25 0 95 150.300003052 75.1999969482 120.100006104 96.3999938965 60.0343933105 133.5 hstemhm
          42.3000030518 116 -37.8948059082 302.5 -46.6051940918 116 hintmask 11101010
          42.2998046875 138 rmoveto
          136 callsubr
          116 -43 rmoveto
          137 callsubr
          hintmask 00010100
          -37.89453125 452.034179688 rmoveto
          -45 callsubr
          0 vmoveto
          92 hmoveto
          endchar
        </CharString>
        <CharString name="acircumflex.smcp">
          92 0 21 108.25 98.5 402.25 133.5 hstem
          157.25 302.5 vstem
          29.75 hmoveto
          100 callsubr
          -6.2001953125 -342.25 rmoveto
          101 callsubr
          -215.950195312 402.25 rmoveto
          -45 callsubr
          0 vmoveto
          92 hmoveto
          endchar
        </CharString>
        <CharString name="acute">
          -267 531 136.5 hstem
          16.8500061035 209 vstem
          16.8500061035 531 rmoveto
          -57 callsubr
          endchar
        </CharString>
        <CharString name="acute.smcp">
          -267 531 136.5 hstem
          16.8500061035 209 vstem
          16.8500061035 531 rmoveto
          -57 callsubr
          endchar
        </CharString>
        <CharString name="adieresis">
          10 -6 98.5 352 96.5 60.0106048584 111.5 hstemhm
          33.6999969482 116 -69.2738952637 111.5 143.5 111.5 -85.8760986328 116 hintmask 11010010
          33.7001953125 131.950195312 rmoveto
          -19 callsubr
          116 -39.5498046875 rmoveto
          -18 callsubr
          hintmask 00101100
          -69.2744140625 510.860351562 rmoveto
          -22 callsubr
          255 hmoveto
          -22 callsubr
          endchar
        </CharString>
        <CharString name="adieresis.salt">
          25 0 95 150.300003052 75.1999969482 120.100006104 96.3999938965 60.0343933105 111.5 hstemhm
          42.3000030518 116 -63.3948059082 111.5 143.5 111.5 -85.1051940918 116 hintmask 11101001
          42.2998046875 138 rmoveto
          136 callsubr
          116 -43 rmoveto
          137 callsubr
          hintmask 00010110
          -63.39453125 508.284179688 rmoveto
          -41 callsubr
          255 hmoveto
          -41 callsubr
          endchar
        </CharString>
        <CharString name="adieresis.smcp">
          92 0 21 108.25 98.5 402.25 111.5 hstem
          125.25 111.5 143.5 111.5 vstem
          29.75 hmoveto
          100 callsubr
          -6.2001953125 -342.25 rmoveto
          101 callsubr
          -247.950195312 458.5 rmoveto
          -41 callsubr
          255 hmoveto
          -41 callsubr
          endchar
        </CharString>
        <CharString name="ae">
          344 -1.10000610352 98.1499938965 129.050018311 87 135.299987793 96.5 hstem
          33.6999969482 116 211.350006104 125.399993896 217 116 vstem
          33.6999969482 135.850006104 rmoveto
          -1.52587890625e-05 -74.8500061035 52.3000030518 -61.3500061035 91.5500030518 -1.75 81.5500030518 -0.699996948242 130.349990845 56.6500091553 7.60000610352 14.3499908447 32.8499908447 -43.0500030518 35.200012207 -26.25 80.3499908447 0 83 0 103.850006104 1.85000610352 77.1499938965 26.1499938965 rrcurveto
          80.5 vlineto
          -75.0000152588 -11 -55 0.650009155273 -85 0 rrcurveto
          -76.5999908447 -31.4000091553 22.5999908447 106.450012207 hvcurveto
          188.649993896 hlineto
          96 48.3499908447 37.299987793 88.200012207 169.699996948 -74.1499938965 17.5999908447 -143.199996948 hvcurveto
          -74.75 0 -53.6500091553 -6.59999084473 -39.4499969482 -35.6000061035 -29.0500030518 33.6500091553 -51.9499969482 14.5 -54.0500030518 0.0499877929688 -99 -0.649993896484 -82.0999908447 -7 -67.0500030518 -25.8500061035 rrcurveto
          -75 vlineto
          65.0000152588 4.55000305176 109.199996948 7.44999694824 60.8000030518 0 46.5 0 28.5 -13.299987793 0 -58.200012207 1 -1 -1 -62.1499938965 0 0 rrcurveto
          -1 -180 1 0 -102.600006104 -44.75 -62.8000030518 -78.25 vhcurveto
          116 -24.1499938965 rmoveto
          23.1000061035 vlineto
          -1.52587890625e-05 26.4000091553 9.69999694824 27.9499969482 39.1500091553 3.64999389648 rrcurveto
          162.5 12.1499938965 0 -100.699996948 rlineto
          1.52587890625e-05 0 -91.9499969482 -44.700012207 -66.3500061035 0 rrcurveto
          -28.75 -24.3000030518 6.60000610352 45.5500030518 hvcurveto
          336.75 164.550003052 rmoveto
          -0.700012207031 131.899993896 33.75 -1.10000610352 88.1499938965 0 rrcurveto
          82.1000061035 13.6999969482 -6.89999389648 -80.8500061035 -28.0999908447 -16.8999938965 -14.9499969482 -34.5500030518 hvcurveto
          endchar
        </CharString>
        <CharString name="ae.smcp">
          284 -2.35000610352 105.5 -90.75 90.1000061035 41.5 91.5 -6.44999694824 104 -96.3500061035 89 139.800003052 104.5 -104.5 90.75 hstemhm
          354.5 116.649993896 hintmask 10100001
          19.5 hmoveto
          126.75 0 68.3999938965 144 139.850006104 0 0 -52.5 rlineto
          0 -65 44.6000061035 -30.5 58.5999908447 1.64999389648 rrcurveto
          hintmask 01000001
          0 0 261.5 5.65000915527 39.9000091553 9.09999084473 rrcurveto
          0 90.1000061035 rlineto
          hintmask 10010001
          -250.649993896 0.649993896484 rlineto
          -21.6500091553 -15.6500091553 1.70001220703 29.6499938965 hvcurveto
          0 94.5500030518 rlineto
          hintmask 00001001
          253.449996948 7.64999389648 0 89 rlineto
          hintmask 00010101
          -253.449996948 7.35000610352 0 100.100006104 rlineto
          1.30000305176 22.0500030518 1.35000610352 10.3000030518 30.6499938965 0 rrcurveto
          hintmask 00000011
          254.649993896 90.75 hlineto
          hintmask 10100101
          -32.5500030518 5.94999694824 -252.100006104 7.80000305176 0 0 -94 -1 -99.9499969482 -2.60000610352 -42.8999938965 -97.3499908447 rrcurveto
          17.25 -233.550003052 rmoveto
          99.6499938965 209.800003052 0 -209.800003052 rlineto
          endchar
        </CharString>
        <CharString name="afii61289">
          -75 0.350006103516 74 -53 -21 hstemhm
          82.4499969482 116 hintmask 01100000
          25.4499969482 251.5 rmoveto
          24.9499969482 -53.3500061035 rlineto
          11 6 11.0500030518 6.35000610352 10 7 rrcurveto
          -32.6999969482 vlineto
          -1.52587890625e-05 -134.999984741 45.5 -48.8000030518 97 -0.649993896484 rrcurveto
          hintmask 10100000
          0 0 130.650009155 -0.650009155273 -0.650009155273 0.650009155273 rrcurveto
          74 vlineto
          -3.10000610352 -0.650009155273 -75.75 17.5 0 0.650009155273 -68.1500091553 12.799987793 -8.84999084473 22.450012207 -0.650009155273 83.25 rrcurveto
          69.6499938965 vlineto
          90.1999816895 72.5 93.450012207 114.600006104 -0.650009155273 113.399993896 -0.649993896484 99.1499938965 -61.6000061035 59.3500061035 -81.75 0 -94.5999908447 0 -59.75 -48.75 -0.650009155273 -86.25 rrcurveto
          -296.5 vlineto
          -19.0000152588 -20 -19 -19 -19 -17 rrcurveto
          173 158.5 rmoveto
          192.550003052 vlineto
          -1.52587890625e-05 57.0000152588 70.0500030518 -14.1500091553 3.94999694824 -36.8999938965 13.4499969482 -55.3999938965 -33.1499938965 -72.4000091553 -54.3000030518 -70.6999969482 rrcurveto
          endchar
        </CharString>
        <CharString name="afii61352">
          580 21 -21 21 -21 381 86.5 178 89.1499938965 hstemhm
          60.8000030518 116.350006104 347.849990845 116 77.6499938965 90 157 90 hintmask 10111111
          60.8000030518 hmoveto
          116.350006104 615.949996948 hlineto
          0 16.9999847412 19.75 5.35000610352 5.25 -15.3500061035 rrcurveto
          191.550003052 -537.550003052 rlineto
          34.049987793 -140.199996948 213.25 32.5 0 131.400009155 rrcurveto
          447.25 vlineto
          69.6499938965 36.8999938965 19.5 65.6000061035 66.75 92 -1 0 vhcurveto
          46.8500061035 -1.30000305176 16.549987793 -6 0 -84.1999969482 rrcurveto
          -80.3000030518 -21.5 -5.19999694824 -37 vhcurveto
          -40 hlineto
          -37 -21.5 5.30000305176 128.199996948 hvcurveto
          -90 hlineto
          0 -176 34.6000061035 -42.25 107.899993896 -1.75 rrcurveto
          52 hlineto
          109.300003052 1.75 33.1999969482 56.6000061035 0 113.649993896 0 127.300003052 -33.5 51.75 -102 1.94999694824 rrcurveto
          0 -179.049987793 0.649993896484 -48.1000061035 -92.3500061035 -75.6499938965 -44.6499938965 -123.050003052 vhcurveto
          -446.300003052 vlineto
          0 -15 -18.1000061035 -6.69999694824 -5.89999389648 18.6999969482 rrcurveto
          -189.25 531.899993896 rlineto
          -32.0500030518 126.250015259 -218.899993896 -7.10000610352 0 -145.75 rrcurveto
          endchar
        </CharString>
        <CharString name="agrave">
          10 -6 98.5 352 96.5 60 136.5 hstemhm
          33.6999969482 116 -50.1750030518 209 52.5250091553 116 hintmask 11010100
          33.7001953125 131.950195312 rmoveto
          -19 callsubr
          116 -39.5498046875 rmoveto
          -18 callsubr
          hintmask 00101000
          -50.1748046875 591.099609375 rmoveto
          -73 callsubr
          endchar
        </CharString>
        <CharString name="agrave.salt">
          25 0 95 150.300003052 75.1999969482 120.100006104 96.3999938965 60.0343933105 136.5 hstemhm
          42.3000030518 116 -40.1699981689 209 49.1699981689 116 hintmask 11101010
          42.2998046875 138 rmoveto
          136 callsubr
          116 -43 rmoveto
          137 callsubr
          hintmask 00010100
          -40.169921875 588.534179688 rmoveto
          -73 callsubr
          endchar
        </CharString>
        <CharString name="agrave.smcp">
          92 0 21 108.25 98.5 402.25 136.5 hstem
          130.925003052 209 vstem
          29.75 hmoveto
          100 callsubr
          -6.2001953125 -342.25 rmoveto
          101 callsubr
          -242.275390625 538.75 rmoveto
          -73 callsubr
          endchar
        </CharString>
        <CharString name="amacron">
          10 -6 98.5 352 96.5 60 73.5 hstemhm
          33.6999969482 116 -24.4499969482 292 -56.1999969482 116 hintmask 11010100
          33.7001953125 131.950195312 rmoveto
          -19 callsubr
          116 -39.5498046875 rmoveto
          -18 callsubr
          hintmask 00101000
          -24.4501953125 454.599609375 rmoveto
          -59 callsubr
          endchar
        </CharString>
        <CharString name="amacron.salt">
          25 0 95 150.300003052 75.1999969482 120.100006104 96.3999938965 60.0343933105 73.5 hstemhm
          42.3000030518 116 -29.3946990967 292 -44.6053009033 116 hintmask 11101010
          42.2998046875 138 rmoveto
          136 callsubr
          116 -43 rmoveto
          137 callsubr
          hintmask 00010100
          -29.39453125 452.034179688 rmoveto
          -59 callsubr
          endchar
        </CharString>
        <CharString name="amacron.smcp">
          92 0 21 108.25 98.5 402.25 73.5 hstem
          162.5 292 vstem
          29.75 hmoveto
          100 callsubr
          -6.2001953125 -342.25 rmoveto
          101 callsubr
          -210.700195312 402.25 rmoveto
          -59 callsubr
          endchar
        </CharString>
        <CharString name="ampersand">
          155 21 -21 21 -21 627.100006104 82.8999938965 hstemhm
          hintmask 10100000
          69.9499969482 82 rmoveto
          73.0999908447 -106.600006104 149.050003052 -1.14999389648 72.9499969482 65.8999938965 rrcurveto
          67.8000030518 61.3999938965 74.6499938965 -101.550003052 137 0 -129.600006104 175.600006104 38.8999938965 44.3000030518 56.6000061035 107.350006104 -39.4499969482 46.3999938965 -118.899993896 -115.850006104 -192.649993896 262.699996948 rlineto
          -56.75 77.25 19.1500091553 29.3500061035 79.6999969482 0 rrcurveto
          178.5 82.8999938965 hlineto
          -72 17 -82.8999938965 17.8500061035 -118.100006104 -14.8500061035 -75.9499969482 -9.80000305176 -79 -102.149993896 79 -107 rrcurveto
          55.6499938965 -78 -75.5 -64.9499969482 rlineto
          -86.3000183105 -74.700012207 -27.5 -113.599990845 72.5500030518 -97.8000030518 rrcurveto
          95.9000091553 65.1999969482 rmoveto
          -34.1000061035 43.5999908447 -9.94999694824 50.5999908447 63.1999969482 53.4000091553 rrcurveto
          61.1999969482 52.3999938965 121 -160.75 -61.1000061035 -58.1999969482 rlineto
          -46.6500091553 -45.0500030518 -62 24.1999969482 -31.5999908447 39.8000030518 rrcurveto
          endchar
        </CharString>
        <CharString name="ampersand.salt">
          458 -0.699996948242 100.949996948 60.8000030518 92.9499969482 72.3999938965 93.6000061035 56.1999969482 100.949996948 -80.9499969482 78.9499969482 hstemhm
          37.3500061035 116 56.5 116 205.5 116 59.5 116 -98 98 hintmask 1110111110000000
          37.3500061035 307.350006104 rmoveto
          -113.900009155 88 -34.1999969482 84.5 vhcurveto
          0 -128.050003052 89.5999908447 -31.5500030518 108.900009155 -0.349990844727 rrcurveto
          164 hlineto
          120.5 1.52587890625e-05 130 41.1499938965 0 166.5 rrcurveto
          hintmask 1110111101000000
          0 269.600006104 127 19.6499938965 0 78.9499969482 -127 0 0 134.949996948 -98 0 rlineto
          hintmask 1111011110000000
          -18 -132.949996948 -434 0 rlineto
          -153.25 -0.699996948242 -82.25 -27.3499908447 0 -154.850006104 rrcurveto
          116 -83.75 rmoveto
          83.75 vlineto
          71.5500030518 26 10.3999938965 97 vhcurveto
          430.5 -268.199996948 hlineto
          -72.9499969482 -51.5 -34.8000030518 -83 vhcurveto
          -162.25 hlineto
          -43.9000091553 1.94999694824 -39.6999969482 -1.25 -0.649993896484 60.1000061035 rrcurveto
          158.949996948 hlineto
          102.100006104 1.52587890625e-05 60.450012207 12.5500030518 0 108.949996948 rrcurveto
          120.25 -81.6000061035 17.1999969482 -79.8999938965 vhcurveto
          -94 hlineto
          -116.25 -65.75 -43.8999938965 -121.400009155 hvcurveto
          -31 -25.5 14.9499969482 40.8500061035 hvcurveto
          172.5 -56.5 rmoveto
          70.4499969482 25.549987793 1.94999694824 43.950012207 vhcurveto
          88.75 hlineto
          40.1999969482 7.05000305176 -5.25 -30.8999938965 -36.1499938965 -11.8500061035 -0.100006103516 -35.3999938965 hvcurveto
          endchar
        </CharString>
        <CharString name="ampersand.smcp">
          75 21 -21 21 -21 470.899993896 81 hstemhm
          hintmask 10100000
          63.0500030518 64.8000030518 rmoveto
          66.200012207 -95.3999938965 122.449996948 12.5500030518 56.6999969482 51.3500061035 rrcurveto
          57.3500061035 55.3000030518 71.0500030518 -88.6000061035 127.899993896 0 -121.149993896 157.949996948 24.3999938965 24.0500030518 48.1000061035 85.8000030518 -41.5 46.3000030518 -92.1000061035 -76.1000061035 -141.850006104 176.399993896 rlineto
          -28.9000091553 35.5 2.80000305176 21 51.3000030518 0 rrcurveto
          150.199996948 81 hlineto
          -70.75 17.9000091553 -90.8999938965 11.5999908447 -75.3000030518 -11.6999969482 -62.4000091553 -9.69999694824 -56.6499938965 -81.6499938965 65.5 -83.9000091553 rrcurveto
          35.6000061035 -44.8999938965 -62.1499938965 -51.9499969482 rlineto
          -74.9000091553 -63.3500061035 -22.1500091553 -83.75 61.1500091553 -85.6999969482 rrcurveto
          87.5999908447 60.8999938965 rmoveto
          -16.8499908447 20.8499908447 -11.8500061035 39 44.1999969482 34.6999969482 rrcurveto
          58.3000030518 46.4499969482 77.75 -96.8999938965 -55.3500061035 -52.9499969482 rlineto
          -37.1500091553 -36.4000091553 -40.5500030518 22.1000061035 -18.5 23.1499938965 rrcurveto
          endchar
        </CharString>
        <CharString name="aogonek">
          10 -184.366485596 70.5 94 20 -6.1335144043 98.5 352 96.5 hstemhm
          33.6999969482 116 211.350006104 116 hintmask 00111100
          33.7001953125 131.950195312 rmoveto
          -19 callsubr
          116 -39.5498046875 rmoveto
          -18 callsubr
          hintmask 11000000
          259.51953125 -146.266601562 rmoveto
          23 callsubr
          endchar
        </CharString>
        <CharString name="aogonek.salt">
          37 -164.113098145 70.5 93.6130981445 95 -94.6130981445 20 224.913101196 75.1999969482 120.100006104 96.3999938965 hstemhm
          42.3000030518 116 218 116 hintmask 01011110
          42.2998046875 138 rmoveto
          136 callsubr
          116 -43 rmoveto
          137 callsubr
          hintmask 10100000
          220.549804688 -124.61328125 rmoveto
          -145.099609375 -68.8994140625 91.7001953125 -137.900390625 109.399414062 22.2998046875 rrcurveto
          70.5 vlineto
          -63.94921875 -0.7998046875 -23.4501953125 52.0498046875 80.8994140625 62.75 rrcurveto
          endchar
        </CharString>
        <CharString name="aogonek.smcp">
          100 -183.963088989 70.5 94 20 -0.536911010742 21 108.25 98.5 hstemhm
          hintmask 00110000
          29.75 hmoveto
          100 callsubr
          -6.2001953125 -342.25 rmoveto
          101 callsubr
          hintmask 11000000
          115.649414062 -227.212890625 rmoveto
          -145.099609375 -68.900390625 91.7001953125 -137.899414062 109.399414062 22.2998046875 rrcurveto
          70.5 vlineto
          -63.94921875 -0.7998046875 -23.4501953125 52.0498046875 80.8994140625 62.75 rrcurveto
          endchar
        </CharString>
        <CharString name="approxequal">
          8 201.300003052 89 -51 88 53.4499969482 89 -51 88 hstemhm
          hintmask 10000000
          42.3000030518 256.300003052 rmoveto
          21 -55 rlineto
          hintmask 01000000
          48.0000152588 15.0000152588 25 23 51 0 rrcurveto
          hintmask 10000000
          60 0 34.25 -38 54.75 0 60.6999969482 0 40.4499969482 41.8499908447 37.6000061035 31.200012207 rrcurveto
          -23.75 54.9499969482 rlineto
          -44.549987793 -21.1499938965 -21.4499969482 -17.8499908447 -47 0 rrcurveto
          hintmask 01000000
          -60 0 -29 37 -60 0 rrcurveto
          -64 0 -45.4499969482 -38.3500061035 -37.5500030518 -32.6499938965 rrcurveto
          0 179.449996948 rmoveto
          hintmask 00100000
          21 -55 rlineto
          hintmask 00010000
          48.0000152588 15 25 23 51 0 rrcurveto
          hintmask 00100000
          60 0 34.25 -38 54.75 0 60.6999969482 0 40.4499969482 41.8500061035 37.6000061035 31.1999969482 rrcurveto
          -23.75 54.9499969482 rlineto
          -44.549987793 -21.1499938965 -21.4499969482 -17.8500061035 -47 0 rrcurveto
          hintmask 00010000
          -60 0 -29 37 -60 0 -64 0 -45.4499969482 -38.3500061035 -37.5500030518 -32.6499938965 rrcurveto
          endchar
        </CharString>
        <CharString name="aring">
          10 -6 98.5 352 96.5 40.5 55.3500061035 94.299987793 55.3500061035 hstemhm
          33.6999969482 116 13.9250030518 54.3500061035 94.299987793 54.3500061035 -5.57499694824 116 hintmask 11001001
          33.7001953125 131.950195312 rmoveto
          -19 callsubr
          116 -39.5498046875 rmoveto
          -18 callsubr
          hintmask 00110110
          13.9248046875 537.099609375 rmoveto
          -40 callsubr
          54.349609375 hmoveto
          -39 callsubr
          endchar
        </CharString>
        <CharString name="aring.salt">
          25 0 95 150.300003052 75.1999969482 120.100006104 96.3999938965 60.0579071045 55.3500061035 94.299987793 55.3500061035 hstem
          42.3000030518 116 12.129989624 54.3500061035 94.3000030518 54.3500061035 2.86999511719 116 vstem
          42.2998046875 138 rmoveto
          136 callsubr
          116 -43 rmoveto
          137 callsubr
          12.1298828125 554.057617188 rmoveto
          -40 callsubr
          54.3505859375 hmoveto
          26.150390625 21.5 21.5 26.1494140625 26.150390625 20.5 -21.5 -26.150390625 -26.1494140625 -20.5 -20.5 -26.150390625 -26.1494140625 -21.5 20.5 26.1494140625 vhcurveto
          endchar
        </CharString>
        <CharString name="aring.smcp">
          92 0 21 108.25 98.5 338 55.3500061035 94.299987793 55.3500061035 hstem
          207.975006104 54.3500061035 94.299987793 54.3500061035 vstem
          29.75 hmoveto
          100 callsubr
          -6.2001953125 -342.25 rmoveto
          101 callsubr
          -165.225585938 440 rmoveto
          -40 callsubr
          54.3505859375 hmoveto
          40 callsubr
          endchar
        </CharString>
        <CharString name="asciicircum">
          -122 531 133.5 hstem
          42.3000030518 302.5 vstem
          42.3000030518 531 rmoveto
          86 0 68.8500061035 64 62.6499938965 -64 85 0 -99.4499969482 133.5 -92 0 rlineto
          0 hmoveto
          92 hmoveto
          endchar
        </CharString>
        <CharString name="asciitilde">
          -83 531 85.1999969482 -50.1999969482 85.1999969482 hstemhm
          hintmask 10000000
          42.3000030518 581.100006104 rmoveto
          23.1000061035 -50.1000061035 rlineto
          hintmask 01000000
          34.25 17.5 19.75 17.5 39 0 rrcurveto
          hintmask 10000000
          39 0 28.1500091553 -35 44.3000030518 0 52.299987793 0 36.4000091553 44.1999969482 25.25 27.8000030518 rrcurveto
          -23.3999938965 53.1999969482 rlineto
          -24.5999908447 -18.450012207 -29.0500030518 -22.25 -39.3500061035 0.699996948242 rrcurveto
          hintmask 01000000
          -40 0 -22 35 -44 0 rrcurveto
          -54.049987793 0 -30.3000030518 -36.0500030518 -34.75 -34.049987793 rrcurveto
          endchar
        </CharString>
        <CharString name="asterisk">
          -77 566 50.5 120.350006104 -20 hstem
          42.3000030518 566 rmoveto
          144 -5 -5 81 -139 -25.5 rlineto
          61.0000152588 -201.100006104 rmoveto
          47.5 -15.1499938965 55.5 131.75 -78.6499938965 19.4499969482 rlineto
          41.700012207 167.299987793 rmoveto
          43.8999938965 -134.75 75 32.0500030518 -70.1000061035 120.800003052 rlineto
          -21.3499908447 -266.800003052 rmoveto
          127.550003052 -62.75 28.3500061035 40.3999938965 -111.399993896 90.3000030518 rlineto
          2.35000610352 33 rmoveto
          51.8500061035 -61.9499969482 94.5 97 -26.6999969482 42.6999969482 rlineto
          endchar
        </CharString>
        <CharString name="asterisk.smcp">
          -78 402.75 50.5 hstem
          42.3000030518 402.75 rmoveto
          143.350006104 -5 -4.35000610352 81 -139 -25.5 rlineto
          60.3500061035 -201.100006104 rmoveto
          47.5 -15.1499938965 56.1499938965 131.75 -78.6499938965 19.4499969482 rlineto
          41.700012207 167.299987793 rmoveto
          43.8999938965 -134.100006104 75 31.3999938965 -70.1000061035 120.800003052 rlineto
          -21.3499908447 -266.800003052 rmoveto
          127.550003052 -62.75 28.3500061035 40.3999938965 -111.399993896 90.9499969482 rlineto
          2.35000610352 33 rmoveto
          51.8500061035 -62.6000061035 94.5 97 -27.3500061035 42.6999969482 rlineto
          endchar
        </CharString>
        <CharString name="at">
          350 -192 99.5 83.5 98.5 -68.5 -21 21 -21 413.5 98.5 94.75 98.5 -98.5 71.5 hstemhm
          55.1999969482 98.5 74.8000030518 102 187.300003052 97.1999969482 74.1999969482 98.5 hintmask 1000110111100000
          55.1999969482 7 rmoveto
          -1.52587890625e-05 -138.75 83.5 -60.25 109 0 rrcurveto
          342 hlineto
          141.149993896 56.8499908447 76.5 129.5 hvcurveto
          477 vlineto
          -1.52587890625e-05 152.649993896 -92.3499908447 60.3000030518 -109.150009155 1.30000305176 rrcurveto
          -105.5 hlineto
          hintmask 1000101111100000
          -126.000015259 1 -124.5 -18 -48 -10 rrcurveto
          -71.5 vlineto
          hintmask 1100110111100000
          404 hlineto
          60.9999847412 42 -38.75 -77 hvcurveto
          -477 vlineto
          -1.52587890625e-05 -68 -21 -38.5 -82 0 rrcurveto
          -338.5 hlineto
          -40.0000152588 -54 16.5 90 hvcurveto
          309.5 vlineto
          -1.52587890625e-05 80 46 10 48 0 rrcurveto
          200.100006104 hlineto
          45.950012207 24.0500030518 -9.55000305176 -47.9499969482 hvcurveto
          1 -0.350006103516 -1 -54.6499938965 0 0 rrcurveto
          -1 -92.6500091553 1 -57.1499938965 -88.9499969482 -50.5500030518 -50.1999969482 -86.3000030518 vhcurveto
          -46 vlineto
          -0.649993896484 -68 47.6499938965 -60.8000030518 81 1.30000305176 91 0 70.3000030518 69.5 2 0 rrcurveto
          hintmask 1010110111100000
          17.5 -60.5 77.6999969482 0 0 361.5 rlineto
          126.800003052 -87.25 23.6999969482 -79.75 vhcurveto
          -200.300003052 hlineto
          -169.500015259 -23 -117.5 -67.5 hvcurveto
          275.300003052 -195.149993896 rmoveto
          -0.350006103516 1 0 31.4499969482 0.350006103516 1 -0.649993896484 31.1499938965 16.799987793 19.25 33.3500061035 3.30000305176 rrcurveto
          137.800003052 12.5 0 -95 rlineto
          hintmask 1100100111100000
          -37.049987793 -26.1000061035 -49.8500061035 -21.549987793 -48.5 0.649993896484 -30.8999938965 -0.649993896484 -21 22 0 21 rrcurveto
          endchar
        </CharString>
        <CharString name="at.alt">
          351 -97.8999938965 99.5 83.5 98.5 324 98.5 94.75 98.5 -98.5 71.5 hstemhm
          55.8500061035 98.5 74.799987793 102 187.300003052 97.1999969482 74.200012207 98.5 hintmask 1111011110000000
          55.1999969482 421.100006104 rmoveto
          0.649993896484 -320 rlineto
          -138.75 83.5 -60.25 109 vhcurveto
          342 hlineto
          141.149993896 56.8500061035 76.5 129.5 hvcurveto
          477 vlineto
          0 152.649993896 -92.3500061035 59.6499938965 -109.149993896 1.30000305176 rrcurveto
          -105.5 0.649993896484 rlineto
          hintmask 1110111110000000
          -126 1 -124.5 -18 -48 -10 rrcurveto
          -71.5 vlineto
          hintmask 1111011110000000
          404 hlineto
          61 42 -38.75 -77 hvcurveto
          -477 vlineto
          -68 -21 -38.5 -82 vhcurveto
          -338.5 hlineto
          -40 -54 16.5 90 hvcurveto
          309.5 vlineto
          80 46 10 48 vhcurveto
          200.100006104 hlineto
          45.9499816895 24.0500030518 -9.55000305176 -47.9499969482 hvcurveto
          1 -0.350006103516 -1 -54.6499938965 0 0 rrcurveto
          -1 -92.6499938965 1 -57.1500091553 -88.9499969482 -50.5500030518 -50.200012207 -86.299987793 vhcurveto
          -46 vlineto
          -0.649993896484 -68 47.6499938965 -60.8000030518 81 1.30000305176 91 0 70.3000030518 69.5 2 0 rrcurveto
          17.5 -60.5 77.6999969482 0 0 361.5 rlineto
          126.799987793 -87.25 23.700012207 -79.75 vhcurveto
          -200.300003052 hlineto
          -169.5 -23.6500091553 -117.5 -67.5 hvcurveto
          275.949996948 -195.150009155 rmoveto
          -0.349990844727 0.999984741211 0 31.4499969482 0.349990844727 1 -0.649993896484 31.1500091553 16.8000030518 19.25 33.3499908447 3.30000305176 rrcurveto
          137.800003052 12.5 0 -95 rlineto
          -37.0500183105 -26.1000061035 -49.8499908447 -21.5500030518 -48.5 0.650009155273 -30.9000091553 -0.650009155273 -21 22 0 21 rrcurveto
          endchar
        </CharString>
        <CharString name="at.smcp">
          350 -150.699996948 99.5 83.5 98.5 324 98.5 94.75 98.5 -98.5 71.5 hstemhm
          55.1999969482 98.5 74.8000030518 102 187.300003052 97.1999969482 74.1999969482 98.5 hintmask 1111011110000000
          55.1999969482 48.3000030518 rmoveto
          -1.52587890625e-05 -138.749984741 83.5 -60.25 109 0 rrcurveto
          342 hlineto
          141.149993896 1.52587890625e-05 56.8499908447 76.5 0 129.5 rrcurveto
          477 vlineto
          -1.52587890625e-05 152.650009155 -92.3499908447 60.3000030518 -109.150009155 1.30000305176 rrcurveto
          -105.5 hlineto
          hintmask 1110111110000000
          -126.000015259 1.00001525879 -124.5 -18 -48 -10 rrcurveto
          -71.5 vlineto
          hintmask 1111011110000000
          404 hlineto
          60.9999847412 1.52587890625e-05 42 -38.75 0 -77 rrcurveto
          -477 vlineto
          -1.52587890625e-05 -67.9999847412 -21 -38.5 -82 0 rrcurveto
          -338.5 hlineto
          -40.0000152588 1.52587890625e-05 -54 16.5 0 90 rrcurveto
          309.5 vlineto
          -1.52587890625e-05 80.0000152588 46 10 48 0 rrcurveto
          200.100006104 hlineto
          45.950012207 1.52587890625e-05 24.0500030518 -9.55000305176 0 -47.9499969482 1 -0.350006103516 -1 -54.6499938965 0 0 rrcurveto
          -1 -92.6500091553 1 -57.1499938965 -88.9499969482 -50.5500030518 -50.1999969482 -86.3000030518 vhcurveto
          -46 vlineto
          -0.649993896484 -67.9999847412 47.6499938965 -60.8000030518 81 1.30000305176 91 0 70.3000030518 69.5 2 0 rrcurveto
          17.5 -60.5 77.6999969482 0 0 361.5 rlineto
          126.800018311 -87.25 23.6999969482 -79.75 vhcurveto
          -200.300003052 hlineto
          -169.500015259 1.52587890625e-05 -23 -117.5 0 -67.5 rrcurveto
          275.300003052 -195.150009155 rmoveto
          -0.350006103516 1 0 31.450012207 0.350006103516 1 -0.649993896484 31.1499938965 16.799987793 19.25 33.3500061035 3.30000305176 rrcurveto
          137.800003052 12.5 0 -95 rlineto
          -37.049987793 -26.0999908447 -49.8500061035 -21.5500030518 -48.5 0.650009155273 -30.8999938965 -0.650009155273 -21 22 0 21 rrcurveto
          endchar
        </CharString>
        <CharString name="atilde">
          10 -6 98.5 352 96.5 60.6499938965 81.9499969482 -47.5999908447 82.6000061035 hstemhm
          33.6999969482 116 211.350006104 116 hintmask 11001100
          33.7001953125 131.950195312 rmoveto
          -19 callsubr
          116 -39.5498046875 rmoveto
          -18 callsubr
          hintmask 00010000
          -58.9501953125 504.69921875 rmoveto
          -44 callsubr
          hintmask 00100000
          -43 callsubr
          hintmask 00010000
          -42 callsubr
          endchar
        </CharString>
        <CharString name="atilde.salt">
          25 0 95 150.300003052 75.1999969482 120.100006104 96.3999938965 60.707901001 81.9499969482 -47.5999908447 82.6000061035 hstemhm
          42.3000030518 116 218 116 hintmask 11100110
          42.2998046875 138 rmoveto
          136 callsubr
          116 -43 rmoveto
          137 callsubr
          hintmask 00001000
          -52.5703125 502.158203125 rmoveto
          23.099609375 -50.1005859375 rlineto
          34.900390625 17.5 17.150390625 16.8505859375 42.25 0.6494140625 rrcurveto
          hintmask 00010000
          37.0498046875 0.650390625 21.6494140625 -33.0498046875 51.4501953125 -1.9501953125 45.150390625 -1.2998046875 39.6494140625 39.6494140625 29.150390625 27.7998046875 rrcurveto
          -23.400390625 53.2001953125 rlineto
          -28.5 -19.099609375 -33.599609375 -19.650390625 -29.599609375 1.3505859375 rrcurveto
          hintmask 00001000
          -32.2001953125 0.6494140625 -26.5498046875 32.400390625 -47.900390625 1.9501953125 rrcurveto
          -46.25 0 -38.75 -33.4501953125 -34.75 -34.0498046875 rrcurveto
          endchar
        </CharString>
        <CharString name="atilde.smcp">
          92 0 21 108.25 98.5 402.899993896 81.9499969482 -47.5999908447 82.6000061035 hstemhm
          hintmask 11000000
          29.75 hmoveto
          100 callsubr
          -6.2001953125 -342.25 rmoveto
          101 callsubr
          hintmask 00010000
          -235.450195312 452.349609375 rmoveto
          -44 callsubr
          hintmask 00100000
          -43 callsubr
          hintmask 00010000
          -42 callsubr
          endchar
        </CharString>
        <CharString name="b">
          46 -6 103.050003052 345.199996948 96.75 hstem
          50.8999938965 115.699996948 231.200012207 116 vstem
          50.8999938965 hmoveto
          92.5500030518 0 23.1499938965 55.5 rlineto
          30.549987793 -23.8999938965 77.8500061035 -37.6000061035 64.8500061035 0 rrcurveto
          135.899993896 38.0500030518 122.149993896 146.850006104 154.550003052 -25.4000091553 121.449996948 -148.549987793 hvcurveto
          -45 0 -75.0500030518 -12.9499969482 -54.1999969482 -23.5500030518 rrcurveto
          282.5 -114.699996948 vlineto
          115.700012207 -650.350006104 rmoveto
          285.449996948 vlineto
          48.3499908447 15.549987793 43 6.60000610352 58.8000030518 0 rrcurveto
          51.3999938965 29.6500091553 -30.25 -145.5 -122.649993896 -28.6500091553 -46.8000030518 -52.3999938965 hvcurveto
          -62.1999969482 0 -49.3500061035 17.3499908447 -38.5999908447 20.25 rrcurveto
          endchar
        </CharString>
        <CharString name="b.salt">
          46 -11.25 95 354.899993896 97.1000061035 247.199996948 -20 hstem
          50.8999938965 116 230.150009155 116 vstem
          50.8999938965 16.3000030518 rmoveto
          50.1500091553 -16.5999908447 119.899993896 -10.9499969482 101.449996948 0 rrcurveto
          125 65.6500091553 89.8000030518 179.199996948 169.899993896 -37.6500091553 108.100006104 -153 hvcurveto
          -45 0 -61.1999969482 -11.9499969482 -49.3000030518 -27.0500030518 rrcurveto
          286.199996948 -116 vlineto
          116 -699.200012207 rmoveto
          332 vlineto
          58.1500091553 18.8999938965 25.4499969482 4 55.1000061035 0 rrcurveto
          92.299987793 -0.849990844727 -87.5999908447 -95.75 -61.9499969482 -2.30000305176 -109.600006104 -89.8500061035 hvcurveto
          endchar
        </CharString>
        <CharString name="b.smcp">
          0 103 146.25 91.5 128.25 102 hstem
          67.75 116 208.949996948 117.050003052 vstem
          67.75 hmoveto
          267.5 hlineto
          126 48.5 58.8000030518 103.199996948 hvcurveto
          0 77.8000030518 -37.5500030518 40 -37.9499969482 11.1999969482 43.1499938965 14.3000030518 29.3500061035 35.4499969482 0 77.25 rrcurveto
          85.8999938965 -47.5 67.1000061035 -124 vhcurveto
          -267.5 hlineto
          116 -468 rmoveto
          146.25 vlineto
          23.3999938965 -1.30000305176 121.100006104 1.30000305176 0 0 rrcurveto
          49.25 15.1999969482 -30.1499938965 -45.5500030518 -63.9499969482 -36.0999908447 -6.60000610352 -28.3500061035 hvcurveto
          -144.5 237.75 rmoveto
          128.25 144.5 vlineto
          27.6000061035 34.8999938965 -8.75 -52.75 -47.6499938965 -12.8500061035 -19.1000061035 -49.6499938965 hvcurveto
          endchar
        </CharString>
        <CharString name="b.superior">
          -109 374 81.6000061035 208.799987793 77.0500030518 hstem
          32.0500030518 91.3999938965 155.550003052 91.3999938965 vstem
          32.0500030518 378 rmoveto
          69.75 0 22 42.1999969482 rlineto
          22.8000183105 -17.8500061035 46.75 -28.3500061035 47.8499908447 0 rrcurveto
          100.600006104 28.5999908447 81.8999938965 99.5 104.300003052 -18.6999969482 81.75 -110.5 hvcurveto
          -33.3000030518 0 -44.1499938965 -9.64999389648 -40.3000030518 -17.9000091553 rrcurveto
          187.75 -91.3999938965 vlineto
          91.7500152588 -422.649993896 rmoveto
          170.5 vlineto
          36.2500152588 9.94999694824 15.3999938965 4.94999694824 43.3000030518 0 rrcurveto
          38.1999969482 22.0500030518 -15.1499938965 -91.3999938965 -76.700012207 -21.0500030518 -25.549987793 -38.5 hvcurveto
          -45.6999969482 0 -20.8500061035 10.799987793 -29.0999908447 12.6000061035 rrcurveto
          endchar
        </CharString>
        <CharString name="backslash">
          -74 16.8500061035 770 rmoveto
          281 -842 121 0 -281 842 rlineto
          endchar
        </CharString>
        <CharString name="bar">
          -263 72.6999969482 102 vstem
          72.6999969482 -72 rmoveto
          102 842 -102 hlineto
          endchar
        </CharString>
        <CharString name="braceleft">
          -189 -210 98.5 851.5 102 hstem
          95.3500061035 116 vstem
          16.8500061035 287.75 rmoveto
          40 3 38.5 -16.8000030518 0 -39.1999969482 rrcurveto
          -272.75 vlineto
          -94.1000061035 50.049987793 -77.8999938965 158.450012207 vhcurveto
          98.5 vlineto
          -61.6000061035 -2.60000610352 -30.8999938965 35.6000061035 0 65 rrcurveto
          257.5 vlineto
          0 47.25 -37.0500030518 33.6499938965 -53.9499969482 9.10000610352 53.9499969482 7.60000610352 38.0500030518 28.299987793 0 57.1000061035 rrcurveto
          201 vlineto
          91 35.8499908447 21 55.6500091553 vhcurveto
          102 vlineto
          -143.850006104 -63.6499938965 -81.6000061035 -104.399993896 hvcurveto
          -223.75 vlineto
          0 -46.4499969482 -46.5 -3.55000305176 -33 -3 rrcurveto
          endchar
        </CharString>
        <CharString name="braceright">
          -189 -210 98.5 851.5 102 hstem
          109.350006104 116 vstem
          16.8500061035 -111.5 rmoveto
          -98.5 vlineto
          158.449996948 50.0500030518 77.8999938965 94.1000061035 hvcurveto
          272.75 vlineto
          0 39.1999969482 38.5 16.8000030518 40 -3 rrcurveto
          91.5 vlineto
          -33 3 -46.5 3.55000305176 0 46.4499969482 rrcurveto
          223.75 vlineto
          104.399993896 -63.6500091553 81.6000061035 -143.849990845 vhcurveto
          -102 vlineto
          55.6499938965 35.8500061035 -21 -91 hvcurveto
          -201 vlineto
          0 -57.1000061035 38.049987793 -28.299987793 53.950012207 -7.60000610352 -53.950012207 -9.10000610352 -37.049987793 -33.6499938965 0 -47.25 rrcurveto
          -257.5 vlineto
          0 -65 -30.9000091553 -35.6000061035 -61.5999908447 2.60000610352 rrcurveto
          endchar
        </CharString>
        <CharString name="bracketleft">
          -180 -210 102 848 102 hstem
          72.0500030518 116 vstem
          72.0500030518 -20.5 rmoveto
          1.52587890625e-05 -73.3000030518 19.1999969482 -116.199996948 137.800003052 0 rrcurveto
          83.5 102 -62.5 hlineto
          -37.9999847412 -24 31 60 hvcurveto
          666 vlineto
          1.52587890625e-05 60 24 31 38 0 rrcurveto
          62.5 102 -83.5 hlineto
          -127.299987793 -29.6999969482 -97.3000030518 -85.1999969482 hvcurveto
          endchar
        </CharString>
        <CharString name="bracketright">
          -180 -210 102 848 102 hstem
          141.350006104 116 vstem
          16.8500061035 -108 rmoveto
          -102 83.5 vlineto
          137.799987793 19.200012207 116.199996948 73.3000030518 hvcurveto
          680 vlineto
          85.1999969482 -29.700012207 97.3000030518 -127.299987793 vhcurveto
          -83.5 -102 62.5 hlineto
          38 24 -31 -60 hvcurveto
          -666 vlineto
          -60 -24 -31 -38 vhcurveto
          endchar
        </CharString>
        <CharString name="breve">
          -196 530 54 hstem
          42.3000030518 54 122 54 vstem
          42.3000030518 644 rmoveto
          1.52587890625e-05 -70.6000061035 54.0999908447 -43.3999938965 59.9000091553 0 rrcurveto
          60.5999908447 55.4000091553 40.8000030518 73.1999969482 hvcurveto
          -54 hlineto
          1.52587890625e-05 -37.1000061035 -24 -22.8999938965 -38 0 rrcurveto
          -32.6500091553 -27.3499908447 24.1499938965 35.8500061035 hvcurveto
          endchar
        </CharString>
        <CharString name="brokenbar">
          -262 72.6999969482 102 vstem
          72.6999969482 -72 rmoveto
          102 328 -102 hlineto
          -1.52587890625e-05 173 rmoveto
          102 341 -102 hlineto
          endchar
        </CharString>
        <CharString name="bullet">
          -199 296.75 171.5 hstem
          72.0500030518 166.5 vstem
          72.0500030518 328.75 rmoveto
          1.52587890625e-05 -20 13 -12 20 0 rrcurveto
          98.5 hlineto
          20.0000152588 15 8 24 hvcurveto
          104.5 vlineto
          1.52587890625e-05 22 -10 13 -25 0 rrcurveto
          -98.5 hlineto
          -21.9999847412 -11 -14 -21 hvcurveto
          endchar
        </CharString>
        <CharString name="bullet.smcp">
          -199 238.699996948 171.5 hstem
          72.0500030518 166.5 vstem
          72.0500030518 270.699996948 rmoveto
          1.52587890625e-05 -20.0000152588 13 -12 20 0 rrcurveto
          98.5 hlineto
          20.0000152588 -1.52587890625e-05 15 8 0 24 rrcurveto
          104.5 vlineto
          1.52587890625e-05 21.9999847412 -10 13 -25 0 rrcurveto
          -98.5 hlineto
          -21.9999847412 -1.52587890625e-05 -11 -14 0 -21 rrcurveto
          endchar
        </CharString>
        <CharString name="c">
          -13 -5 98.5 344 98.5 hstem
          42.3000030518 116 vstem
          42.3000030518 266 rmoveto
          1.52587890625e-05 -224.25 76 -46.75 99 0 83 1 83.5999908447 -2.35000610352 78.9000091553 33.5 rrcurveto
          76.3000030518 vlineto
          1.52587890625e-05 -1.52587890625e-05 -115.350006104 -9.94999694824 -92 0 rrcurveto
          -72 -25.1499938965 27.0500030518 142.149993896 168.350006104 34.3499908447 6.44999694824 62.8000030518 89 111.350006104 -6 0 hvcurveto
          75 vlineto
          -81.1999816895 22.8000030518 -105.300003052 6.69999694824 -52 0 rrcurveto
          -102 -73 -46.3999938965 -223.600006104 hvcurveto
          endchar
        </CharString>
        <CharString name="c.smcp">
          7 -4 98.5 385 98.5 hstem
          46.5995941162 116.000396729 vstem
          46.5995941162 295 rmoveto
          -1.52587890625e-05 -151.300003052 24.0508117676 -147.699996948 190.44960022 0 90.6499938965 0 72.4499969482 10.0498046875 62.9000091553 20.1006011963 rrcurveto
          81.4996032715 vlineto
          0 0 -128.150009155 -11.850189209 -76.8499908447 -1.2998046875 -115 2 -4.5 96.3500061035 0 102.149993896 0 117.5 17.5 67 102 0 65 0 125 -10.5 15 -3 rrcurveto
          83.5 vlineto
          -59.0500030518 19 -103.300003052 9.5 -63.6499938965 0 rrcurveto
          -174.899810791 -39.6006011963 -124.350006104 -158.649993896 hvcurveto
          endchar
        </CharString>
        <CharString name="c.superior">
          -152 373.699996948 78.1000061035 206.399993896 78.1000061035 hstem
          26.1000061035 91.3999938965 vstem
          26.1000061035 555 rmoveto
          -149.699996948 55.5999908447 -31.6000061035 72.6000061035 vhcurveto
          60.5999908447 1 55.200012207 -1.59999084473 58.1999969482 25.049987793 rrcurveto
          59.6000061035 vlineto
          1.52587890625e-05 0 -74.1999969482 -5.94999694824 -66.200012207 0 rrcurveto
          -51.8999938965 -18.5 17.5 84.0500030518 105.299987793 25.3999938965 -0.449996948242 45 64.200012207 71.1999969482 -4.64999389648 0 hvcurveto
          59.6499938965 vlineto
          -59.6499938965 17.3499908447 -71.049987793 5.75 -38.3000030518 0 rrcurveto
          -75.25 -52.9499969482 -32.25 -149.050003052 hvcurveto
          endchar
        </CharString>
        <CharString name="c_h">
          545 -7 98.5 -70.5 -21 21 -21 438.800003052 98.5 246 -20 hstemhm
          33.6999969482 116 407.650009155 115.649993896 223.350006104 116 hintmask 10011111
          33.6999969482 266 rmoveto
          -1.52587890625e-05 -233 93.8500061035 -40 99 0 168.649993896 4.55000305176 278.150009155 -51.6500091553 0 271.650009155 rrcurveto
          173.949996948 vlineto
          45.1499938965 28.9499969482 37.6499938965 21.0500030518 70.1500091553 0 rrcurveto
          40.8499908447 29.200012207 -23 -57.6000061035 hvcurveto
          hintmask 01011111
          -360.899993896 116 359.5 vlineto
          96.3999938965 -43.3000030518 84.1000061035 -117.199996948 vhcurveto
          -82.3000030518 0 -50.6999969482 -36.5500030518 -45.8500061035 -30.9499969482 rrcurveto
          310.800003052 -115.649993896 -559.100006104 vlineto
          hintmask 10011111
          -144.150009155 -117.300003052 11.4499969482 -189 -72 -29.3500061035 30.8000030518 139.699996948 169.050003052 34.3500061035 7.75 62.8000030518 89 111.699996948 -7.30000305176 0 vhcurveto
          75 vlineto
          -81.1999816895 22.8000030518 -105.300003052 8 -52 0 rrcurveto
          -102 -73.3500061035 -47.6999969482 -223.600006104 hvcurveto
          endchar
        </CharString>
        <CharString name="c_k">
          548 -7 98.5 -70.5 -21 21 -21 439.850006104 98.5 -6.35000610352 -20 270 -20 hstemhm
          33.6999969482 116 419.300003052 116 hintmask 10000111
          33.6999969482 267.050003052 rmoveto
          -1.52587890625e-05 -234.049987793 120.600006104 -40 128.75 0 81.25 0 92.9499969482 38.8999938965 111.75 86.700012207 rrcurveto
          hintmask 01001111
          -118.600006104 116 204.199996948 vlineto
          4.55000305176 3.49998474121 23.6999969482 21.0500030518 4.19999694824 3.5 rrcurveto
          184.5 -232.25 138.199996948 0 -238.899993896 306.199996948 rlineto
          19.25 20.6499938965 197.899993896 180.699996948 22.4000091553 23.4499969482 rrcurveto
          -156.350006104 1 rlineto
          -1.52587890625e-05 0 -173.199996948 -157.449996948 -26.25 -24.8500061035 rrcurveto
          432.300003052 -116 -532.25 vlineto
          hintmask 10010111
          -77.4499969482 -65.5 -121.699996948 -92.75 -86.8000030518 0 rrcurveto
          -93 -40.3500061035 40.9499969482 131.300003052 168.350006104 34.3500061035 7.75 62.8000030518 89 111.699996948 -7.30000305176 0 hvcurveto
          75 vlineto
          -81.1999816895 22.8000183105 -105.300003052 8 -52 0 rrcurveto
          -102 -73.3500061035 -47.700012207 -223.599990845 hvcurveto
          endchar
        </CharString>
        <CharString name="c_t">
          347 -7 98.5 -91.5500030518 75.9499969482 359.450012207 96.3000030518 hstemhm
          33.6999969482 116 442.5 116 -94.5 94.5 hintmask 10111000
          33.6999969482 261 rmoveto
          -1.52587890625e-05 -233 76 -35 100.050003052 0 99.4499969482 0.649993896484 66.8000030518 5.70001220703 79.6000061035 25.799987793 rrcurveto
          76.3000030518 vlineto
          -1.52587890625e-05 -115.350006104 -9.94999694824 -92 -72 -26.5500030518 21.25 144.25 176.050003052 41.3500061035 1.94999694824 60 vhcurveto
          341.149993896 0.350006103516 0 -245.699996948 rlineto
          hintmask 01111000
          -1.52587890625e-05 -140.349990845 41.8500061035 -49.3500061035 89.75 0 rrcurveto
          103.199996948 75.9499969482 hlineto
          -3.10000610352 -64.75 19.0500030518 0 hvcurveto
          -36.9499969482 10.6999969482 -14 8.80000305176 0 89.1999969482 rrcurveto
          231.699996948 131.899993896 96.3000030518 vlineto
          hintmask 10110100
          -67 callsubr
          hintmask 10111000
          -21.5 -147.350006104 -379.649993896 0.699996948242 rlineto
          -101.999984741 -76.8500061035 -40 -232 hvcurveto
          endchar
        </CharString>
        <CharString name="cacute">
          -13 -5 98.5 344 98.5 61.3672943115 136.5 hstem
          42.3000030518 116 72.43800354 209 vstem
          42.2998046875 266 rmoveto
          39 callsubr
          188.438476562 331.3671875 rmoveto
          -57 callsubr
          endchar
        </CharString>
        <CharString name="cacute.smcp">
          7 -4 98.5 385 98.5 65 136.5 hstem
          46.5995941162 116.000396729 72.2750091553 209 vstem
          46.599609375 295 rmoveto
          114 callsubr
          188.275390625 348 rmoveto
          -57 callsubr
          endchar
        </CharString>
        <CharString name="caron">
          -122 531 133.5 hstem
          42.3000030518 302.5 vstem
          42.3000030518 664.5 rmoveto
          107.899993896 -133.5 92 0 102.600006104 133.5 -85.3500061035 0 -62.3500061035 -64 -69.1499938965 64 rlineto
          22.2499847412 -133.5 rmoveto
          91.9999847412 hmoveto
          endchar
        </CharString>
        <CharString name="caron.smcp">
          -122 531 153 hstem
          42.3000030518 302.5 vstem
          42.3000030518 684 rmoveto
          99.4499969482 -153 92 0 111.050003052 153 -79.5 0 -74.6999969482 -77 -70.4499969482 77 rlineto
          21.6000061035 -153 rmoveto
          92 hmoveto
          endchar
        </CharString>
        <CharString name="ccaron">
          -13 -5 98.5 344 98.5 61.3672943115 133.5 hstemhm
          42.3000030518 116 -39.7373962402 302.5 hintmask 11010000
          42.2998046875 266 rmoveto
          39 callsubr
          hintmask 00101000
          76.2626953125 464.8671875 rmoveto
          21 callsubr
          22.25 -133.5 rmoveto
          92 hmoveto
          endchar
        </CharString>
        <CharString name="ccaron.smcp">
          7 -4 98.5 385 98.5 65 133.5 hstemhm
          46.5995941162 116.000396729 -22.799987793 302.5 hintmask 11010000
          46.599609375 295 rmoveto
          114 callsubr
          hintmask 00101000
          93.2001953125 481.5 rmoveto
          21 callsubr
          22.25 -133.5 rmoveto
          92 hmoveto
          endchar
        </CharString>
        <CharString name="ccedilla">
          -13 -176.850006104 51.6999969482 118.850006104 98.5 346.600006104 98.5 hstem
          42.3000030518 116 83.8499908447 84.5 vstem
          42.3000030518 266 rmoveto
          1.52587890625e-05 -224.25 76 -48.0500030518 99 0 83 1 83.5999908447 -2.34999084473 78.9000091553 33.5 rrcurveto
          76.3000030518 vlineto
          1.52587890625e-05 0 -115.350006104 -9.94999694824 -92 0 rrcurveto
          -72 -25.1499938965 28.3500061035 142.149993896 168.350006104 34.3499908447 7.75 62.8000030518 89 111.350006104 -7.30000305176 0 hvcurveto
          75 vlineto
          -81.1999816895 22.8000030518 -105.300003052 8 -52 0 rrcurveto
          -102 -73 -47.6999969482 -223.600006104 hvcurveto
          121.849990845 -391.149993896 rmoveto
          -51.6999969482 54.5 vlineto
          84.200012207 23.799987793 37.5 102 hvcurveto
          -84.5 hlineto
          0 -38 -2.59999084473 -22.799987793 -28 -12 rrcurveto
          endchar
        </CharString>
        <CharString name="ccedilla.smcp">
          7 -175.050003052 51.6999969482 119.350006104 98.5 385 98.5 hstem
          46.5995941162 116.000396729 97.700012207 84.5 vstem
          46.599609375 295 rmoveto
          114 callsubr
          135.700195312 -418.349609375 rmoveto
          20 callsubr
          endchar
        </CharString>
        <CharString name="ccircumflex">
          -13 -5 98.5 344 98.5 61.3000030518 133.5 hstemhm
          42.3000030518 116 -34.9499969482 302.5 hintmask 11010000
          42.2998046875 266 rmoveto
          39 callsubr
          hintmask 00101000
          81.0498046875 331.299804688 rmoveto
          -25 callsubr
          0 vmoveto
          92 hmoveto
          endchar
        </CharString>
        <CharString name="ccircumflex.smcp">
          7 -4 98.5 385 98.5 65 133.5 hstemhm
          46.5995941162 116.000396729 -14.6499938965 302.5 hintmask 11010000
          46.599609375 295 rmoveto
          114 callsubr
          hintmask 00101000
          101.350585938 348 rmoveto
          -45 callsubr
          0 vmoveto
          92 hmoveto
          endchar
        </CharString>
        <CharString name="cdotaccent">
          -13 -5 98.5 344 98.5 62.6000061035 116 hstem
          42.3000030518 116 73.75 111 vstem
          42.2998046875 266 rmoveto
          39 callsubr
          189.75 355.599609375 rmoveto
          22 callsubr
          endchar
        </CharString>
</ttFont>
